<mxfile host="Electron" modified="2024-02-14T10:31:16.325Z" agent="Mozilla/5.0 (Windows NT 10.0; Win64; x64) AppleWebKit/537.36 (KHTML, like Gecko) draw.io/21.2.8 Chrome/112.0.5615.165 Electron/24.2.0 Safari/537.36" etag="9BlHL4bC4P11EPbSd2ky" version="21.2.8" type="device">
  <diagram name="Page-1" id="2XWkQP5S-hDbL94sL5Vg">
    <mxGraphModel dx="2058" dy="1180" grid="1" gridSize="10" guides="1" tooltips="1" connect="1" arrows="1" fold="1" page="1" pageScale="1" pageWidth="3300" pageHeight="4681" background="#999999" math="0" shadow="0">
      <root>
        <mxCell id="0" />
        <mxCell id="1" parent="0" />
        <mxCell id="APLwThIm-aDqV8bCMrbt-1" value="MouseArea" style="rounded=0;whiteSpace=wrap;html=1;fontSize=25;fillColor=#dae8fc;strokeColor=#6c8ebf;" parent="1" vertex="1">
          <mxGeometry x="960" y="180" width="1500" height="60" as="geometry" />
        </mxCell>
        <mxCell id="Km0Jx6emCK2xYYK6pRIC-1" value="" style="shape=image;verticalLabelPosition=bottom;labelBackgroundColor=default;verticalAlign=top;aspect=fixed;imageAspect=0;image=data:image/png,iVBORw0KGgoAAAANSUhEUgAABdkAAAKHCAYAAAB98kGaAAAAAXNSR0IArs4c6QAAAARnQU1BAACxjwv8YQUAAAAJcEhZcwAADsMAAA7DAcdvqGQAANpFSURBVHhe7P0PcFT3ned7f4g1a0DZYCExRsKgBttgnMUGKWA8uuCKxx4XxjaqZMUjnHp28W6YCqqJccHyPEA5Raj4MdzyhbLZlHAt2TF36k5Qwc2UsENcjlnnGq/WxFiS/0xsQ7ARwkg4Rshkwh/v4vD8fuf8jnS6+/QftVpCSO9XVavPOd2nf7/zp1vd3/729zfqjjtnX1GWpkyJqb29zc0BAAAAAAAAADCyfc1dAwAAAAAAAACAPiLIDgAAAAAAAABAjgiyAwAAAAAAAACQI4LsAAAAAAAAAADkiCA7AAAAAAAAAAA5IsgOAAAAAAAAAECOCLIDAAAAAAAAAJAjguwAAAAAAAAAAOSIIDsAAAAAAAAAADkiyA4AAAAAAAAAQI4IsgMAAAAAAAAAkCOC7AAAAAAAAAAA5IggOwAAAAAAAAAAOSLIDgAAAAAAAABAjgiyAwAAAAAAAACQI4LsAAAAAAAAAADkiCA7AAAAAAAAAAA5IsgOAAAAAAAAAECORt1x5+wrbjqjKVNiam9vc3PAyNV9679xU31T9Pt/dlMAAAAAAAAAhgMy2QEAAAAAAAAAyBFBdgAAAAAAAAAAckSQHQAAAAAAAACAHBFkBwAAAAAAAAAgRwTZAQAAAAAAAADIEUF2AAAAAAAAAAByNOqOO2dfcdMZTZkSU3t7m5sDRq7uW/+Nm0o0Xv/b/G/p4ZtjmljkFqlNO3/6a/13M1X0+3/2FwEAAAAAAAAYFshkD7v9Os3/TwXeZfrtblmcUZrubp9fPcotG4H+8mu60+2HOxeM4P0Q4X978N9qxbfCAXYAAAAAAAAAwxlB9hTGT48IHt/+NY13kyPZ2BmjNMZNj7l1lMa6aYzXJBdcb/31/61//9P/4i5+FjsAAAAAAACA4Ycgeyq3fE0lbjJQEhV4H3FGqfhWsx/O/lmnfntFGm/m/9LdBF93qxqPnnUzAAAAAAAAAIYzguwRzh6zZepHaXxcyRgzf4u5MreN6PDpX5r9MF66+PsrOnnkii7a/TKDLx8AAAAAAAAAjEzX3Thx4o/ddEbjxt2gc+e+cHPD0ISv6Sabpf37K/qXm0Zp/Kgr+vQjd9vt1+lWc9tZc5vMbWPOhm4LGXv71zT1YXPfvzaP9Vf24md6/4u57/9y9+lha5uvvE5Tb5POtl5Jvl2jNPk/FOj2vx6lUceu6I/n3eIeo1SywLR1n3mMxPbOmvaS7h/yl+ax7zfrPWQu3npfU/Fto/TVqSu6kG69crN9Zj/8y3t/VlebOSfMet8Ym6r/vrGmj5VLv9a7DVFt/6XZ55H7KMd+pljvX30p/fFzd59+uBSZvn9RRZMrVTnmtP6f9zsU9UwZc/YPbgoAAAAAAADAcEAme6QrumjT1UMlY8YW279meZd66pHH8wPidzz4NS/Tu9cojbnlOt3xn67T5LyWVRml6f/hOt1yl3n8qPb+3XWanmJQUhv0nm9un3RLb211a8z4Ubrl36UfzNQvmXNFZz+wc+b6mLnqQ8mYlG2bywV/skdu/TTHoTr1epMeNPslclDbPCoq0k1uEgAAAAAAAMDwRpA9hS6bsa6gZExQh/yKus7Y+WRjF3xNk7xg9xWd/dVXOvR/XPYv//CVTnn1ZUZp0r+7LqnOe65se14w3/Tp2D+4trzLV3rvV/ZLgvgAc4/br9Mdd7lA+W/NfXvWu+yvZ24Zc9fXUnwhEJTM+bOC3XDmqNtPGUvGmP78lWvb63NoH9k+/w/7OCG59vN2cxxuGWW2P7mNY7aGvDH+wfwdBwAAAAAAAAAjG0H2CGOKpQtv/NmrvT7eZm67OuRnD/05Kdva85df060uIHzqH77S0Q9CAeM/XNHJvw8F2tNkiefi4u//rDNxFUiu6MIHX+ndv7+sd99ICFyb9ifP99u3XwQcNbeHt8db71dpgua3f01eXN8LrDsf+PtpzK2jNNZfktJ4G/z+7Vc6ZPbHGbNfepl+xG1DP/ppbnvvH8y2R7Rx5o2vdMxm3htj8vqrAmu8YvP/Rg9PM5Pd3frUXwgAAAAAAABgmCPInlJvKZSSGTYr3MzbEiklERniwbJjf9bJyJLbV3TykB/wzSYYnY0L3qCjfja3LQszNpugsfuyQGf/rE+9ci8R0gTN40vFBHr3U8aSMce+igj8R+hnP3sC9uZxSm43+6f6Ot35H67T/P9UoFtsJr7M8cpXKnvJXP3vf/e3+j//7t9q07dimtjdpl+9clht7mYAAAAAAAAAwxtB9jS8Uijjv+bVPQ+XSEnk12uXV689pTN+UNwGo/MRZNcf/qx3/+HPOnt2lMbfZWuwF3hB5Pn/wa/FHhl0D74MMNt0h71v5OU6L1s9mWnHBahvSVgnCFxnKhmTdv+E9auf5njYwPp/MPf5d9fpFlsj39ZmN/t9MJw2l1P+JAAAAAAAAIARgCB7Oi5b2oorkTJU/OHPOvr3l72677be+NmzV3RxfG/Q/c7qPAX0LVcqJp18Zen3i63lHgw+a/aHredua7O/5+qzB+Vi8ubMYf1/f/pf9O9/+n9r59tfaGJRTCsemKuYuxkAAAAAAADA8HbdjRMn/thNZzRu3A06d+4LNzcMTfiabrp1lBec/fQjf9Go60ZpzNgr+sOvXV3wiPv8RfnXdONNo/QXl3qXJTH3mRqs13pF/8suKxyliXea9S5e0WfBsjijNG7O1/SNMdK/vHtFfzzvFicyyy+0X1GXeYzP/sef9emxKxo72aw3yVyuM8va3f1GjVKxbe+YrYtu7mfvm+qS0J+Squs0frxfc/6DVxPvf0WjbjNtjZcum7YT+xnsn8unQn1JJ+d+jtL0f/81r7TPqV/9WR/8+s/qMu1dMP35X65PY00/bQDe1rLv+txflotLSbVxLqr909/pTEmlKsu+1LG3PlbUpo45G1lPCAAAAAAAAMA1ikz2DOxgme/+fepSMVZQH123fE2TI+uS9w7kefH3oUE8/5C+hMzYBV/TpBTp42NvT5M1bh73aFAD3pWy8ZjlZ21qfsp+puJKxZy9oq4UNee7zHZ598tQMiYrOffTsf0MDz7bw5WhAQAAAAAAAIA8IcieD3/4s055ZUhGadK/u07Tbw8Fmv9ylCb/h+tcsPyKTiUM/HnRq0czSreES7vYdaqv0x22FnyUv/yabn3Q3P6frvNLwpj7h9n56Q+6oH5cHfRgAFbXz6Ta7aNUssA8pnncuHFBXamYuC8IEvQMxJqXkjE59jMw3uwfu46btfcfe7s/+Okkr348AAAAAAAAAOQH5WLCIkrBJElxnwsfuZIpY0ZpzK3mPn/lLnf65V68APs/fKXTCaVU/vjlKP/xxn9NN4bXGT9KF3/7lU5c8subxJWLOX9F/2IOw18Um/tNMuuZ+/e0Zy523mvy7J/14b6EMjSfX9HZ60Z55VvG3JS87nhb9uasdPFUb3t+qRjTh/fSlFgx9x1n1h9jGk4sGdPncjFWDv20Lrp1/sKuE7r/jWYf27I8x94zu9rcnv9yMdZ43T3vdt166bhefL9DUc8UysUAAAAAAAAAwwuZ7HlzRSf//rLe+9Wf/VInPa7o4rGv9N7/8ZVORsVXPzC3/crcJ7zO2Ss69g+X9e4bV3ShK6rsiXThA3/QU7+9xOx4W5PcPO7f/zky8/zCG195g6WeOubK1QTMenag0Pf+PtxXVyrGbMfZD7wFKZjbXTZ/XkrGGH3rp8+uE7U/7f44ZO5/Ji6zHwAAAAAAAAD6Z9Qdd86OjuJGmDIlpvb2NjcHjFzdt/4bNxU2Xv+v7/1bPahWbfzHw4p6phT9/p/dFAAAAAAAAIDhgEx2IN+K5qh6eooRawEAAAAAAAAMK2SyAzmIzmSXYvOXatO3bnBzgTbt/Omv9d/NFJnsAAAAAAAAwPBCJjuQR22H9mjj22063e0WAAAAAAAAABjWyGQHcpAqkz0TMtkBAAAAAACA4YVMdgAAAAAAAAAAckSQHQAAAAAAAACAHFEuJoRyOAAAAAAAAACAviCTHQAAAAAAAACAHBFkBwAAAAAAAAAgRwTZAQAAAAAAAADIEUF2AAAAAAAAAAByRJAdAAAAAAAAAIAcEWQHAAAAAAAAACBHo+64c/YVN53RlCkxtbe3ubnhZ7hv37Vjop6oWKHHxnTphXfq9ex5txiRZk64Vysn36Z7xhS7JVLbxSP6zcmDevbz025JomAfm/uebNSS9vfd8pDCe7VvdpVibrbHxSbVtrymD91sklzXAwAAAAAAAK5BZLID17IJS9UwvSouwG7FxszQY8UT3FyEwtv17TH+ZGzyTD3sTwKRYjXL1LBrkRa6eQAAAAAAAPQiyA5cs2Zp+/QZ3pTNRq9t+onuDC7v7NSTJz/3bot0/gP95qI/2XbyQ73kT8Y7/5qWhB+zqVGvu5vSynU9DFEluruiSOrsVrtbAgAAAAAAgF4E2YFrVeEEldvri01a1/5+fBmW86f1krmkdlrPtvhB8MhSMUCP8bqp1FydPiuKaQEAAAAAACQjyA5gaCqfr7Wb69Swq07bakrcQgy6qptVaa6a3z7qzwMAAAAAACAOA5+GjKiBTwtn6YnJC/Tt4uKeASpTD5bpBslUMHDlRD1823f0/fC6XU1a91G6QS0nauaEhdoyuUSxnvrhXWa9N8x6CVnYSQOf9r09fzBQW6vcLUjZVq+ZU+rUMFm9g61G7aOuxsj+Pjxlob5fMsNsm1sUtHfS3DePA7fOnLLU7EPTjptPyfTzTtNPX+8gp1HaTu7UkvZ0We+BWdpeVa17+jyAaW7rLVxVp7o5bkbd2rdxt3afcLN5U6Jlm5dqyekDqn3uqGJV81XzUIUqbea20dF5XI3Pv6yDKdstMf28X9VzilTmlnS0tqix8ZAO3rRIDStuiOy3rXG+ZbF6byufrrU/qDTtFvl3MO3Wp2g3VrVIjz80VWWuj3bfNO9v1t69RyMyzeO3z+tvzVxVLzbr+3cw/T2g7ea23nVNXzaH+pKW6edy0083BwAAAAAAMBKRyT7iTNQTt9Xp3dnVeiwUPLa8wTKnr9D2VONljinRLYWztL1ihZ5KXLe4Sg0V92qmm4/j1mmYboPQ4QE6zWMUV6uhqk5PFLpFicb2tT0bUP6RGwzULfJk0VaIDbhH7iNziQ8Su/7ZwHdUe7PrtH3KRLcsH0ri+oN+Kr9Fc0ulDo3XslXLtGVFb4DdKiudqrpNy7TMq8uToHy+tu1aqrpQgN0qm1PhrbP2W1PN3Bc6FREon1JmA9j+bd6gopvuiw9q2z4krWeD33Wmj+EAu1WkysX3acvm+cnnRrB9HWd7+xsKsFtlc+7T4+FfCpSPV2lWAXaDOu0AAAAAAABksoeNiEz2CUv17vQZXtb6z44cDNXtttnY39FTk20Q/IiebNoTGgwzMRO6Sy8c/aeejPeZ5jFtAN16/ehP9HjceJsui9lOmjZfiMuUdxngk2foRNx6ubfnZ6Pbbegyt/2Tuc21ZbPSZ1S7x0zcPl+w7utdR3RPsXl8098nE/bRzMLTcZnpPe159zWP2XNbkLlvHudMtpnifVR4r/bNrlKsz5nlvqDvQzWT3SsX8wM/6N2xf49W7z3jbsijKpttboPhVread76qvU1n/KxuL7vcBr/NdGuQCR4wt+0yt9nJzhbVP3+oJ+vcyzS3gXA7Y25bt/5QQoa5yy6Xue2XRV7Q3MsmbzyqNu8xSrSwSjpo+tEraM9lrb8V3Ncw/Vxm+rnE9LN5Z72eaXLLLbd9HZ3dUmmRyrwM+cOmr/axbRa+/ZLATCZtX8C1G7kdAAAAAAAAsMhkH2k+36Pad36iJS02IBwOrJ7WS+31erLLTpfo5lTZ3jaY3FQfV1LmQ/OY/npS+Zj4rO2ZUxa4ALsNsO5JKEVj29yjJe/sTAjMh/SlvcJ7tcUF2G3Jl54Au3X+fT3bslMvXLQzM/T9NNnlNsBuA893RuyjVKVf2s7YYLyb8Zj7mn4uabEDi4YfA1k7cUjPrK9X7fL6gQmwG7GyG/wJG0RevlvPBAF268RRPfN8izrs9MTxcVniC1e5ALsNTq/vDbBbbU0va/XO4/5M5GChbiBRTdXjK25Q8849Wm3LtfQ8xpmEAHvQ3nHVbzR9tGVhQu3Zfu52/Swti69dH2xfmc1M32+e++ttCZrgsU07jW77UrFZ7faaQU8BAAAAAABSIsg+AvUEigsn6uEJ92r7bXXaV1Gnd6t+pKe8ai7FmjbWu0eCLr1gs7XdXNixCy7qHWeiHihxQe8jaTKY4wLZYX1sb6wrpdL1hl9TPclpPXvyiDcVK7k9urSN1dWYdWD8w66PvOBjbPJ3tH3KLM3MohQNhg6/bEu39j2fIkv7xFl1uske5fNVbbO/bWA+Mvu7V+RgoUHgurRInTv9wH5603WXV5velq6p8waCTbpsqogrARPwt89muKf/JYBXTibKTX4pHAY9BQAAAAAASI0g+whkBwXdXvEjvTt7hZ6ytctt3fG4Wun5MkHTvPIsZ/RxigzwfJo5xs/ibbuQKi3euOAylW19eW9BsrTrJzr/mpa806TXLxbrnsm2BrvZr1XmUmFrsRN0H9pKNMn7QUN03fRUYvP8UjAdLcdSZnf7GeTd+vRTfz6OC1zbEjhxpV1SqbrZz5rvs2D7juu3KQL5wbZ0dkTfvtCrK59iOwAAAAAAAOAhyD7SePXM3aCgF4/o9ZONevKdnao1lzubftJThgV9cP41Pd7yE91p9uGTJ80+vdiltjG9Qfd9t81KnTWPq8iVbWn9WAf9BckiyqUE2e+H30qVGV6iuyvsfaKD90HgOvX68YKSL7beui2dk+4Sn63uti/N4KTBtkQH0XP7EgIAAAAAAGCkIcg+oszSdm/AUDuQqF9z/PH297264x+mLNmSD2lqvA+A2NgJbipCUFLm4hkd8xbkkdmHtsb84y31WtJkg+6Nev2i6U9xtbakqQGPq8RliKcslWIsrPbLsPStXEq64HbugevEeusZBRnwKeupZ+pLFl9CAAAAAAAAgCD7iHTxI70SNwBpYKJudlP58b5e9TLji/XYjHtTZ3MXTsxLpndQH13FC/REZFB/op6YbL9ksAOVfpC6RnwfzJyQJkv9/Pt6PKgBny7wX+jK91T9SPuuhWB8mlI7afV1vfL5WrvZrzm+raaPAeYsBBniqUqlqGqR6rxa6LbcirckpEg33eQm45T0DoqabtDTNNnlido6vvCuyypuiRt8NSxW5b48CunJgE/5BUGGvgRZ/AAAAAAAAEiLIPtINKZKW2y9cDdrg88zJyzVvooVeizPpdlfOtnkBxpNmw0VS/XEhHAQ2bU7e4UabpvllvXD+df0syCoP7tO28NtFc7SE3b7vBrxR/SzLAc2TavwXm2ZXq2Gqjq/JExhfIB8pmnT/+VA+jrvD0925XsMO4Bq9BcEQ8Hn+uSivZ6h74fPH7OdD6ftc27r2SzyShflLVt8v5aV+9P5EgwKWrnCBvGnh4LUNlC+TA0rbFkXW6bl5bhM7vaObu+6csUiLQz1KVZlvxRY6gLzKTLkI8rPZNT0sZrtdWmFtmyeH99m+XQtM33dsmKpaqrcQid9KRgjyORPU1veM6dSy6p6v+Tw2zT9cPMAAAAAAAAjHUH2EeV97TjpF12P2XrhdoBO77JCDdNnKKYjXk3xvHIDg/qB9hl6bPoK12a43S69cPJ97+799dJHO/WCF9At1j3htmZXuwC7aeudPXrJTvaX2bZ1R/1BT21JmIbZ4W37kZmv1j32fhebtC4fQf2r7rReORNx/pjtfGpyui9Jcl1vILlSKZ3d6ui0Qfz7tGWXnzXfsMsGyv0AfNTgpG17m/2gt6aqblOwTp22rKhQpY6rfr8NwqeouR4MepqmRE2yo3pm53F/srQivs1N92mJ6WtH6wHtjetn5rI0GTP5TxzTYbNvbNb+khVLE9qs0F0JQX0AAAAAAICRiiD7CPNhe71qjx5RmxeIdi4e6anR/lJ4eb7YQHuTPyhoXLvqUltXo2qb6vXsebeo307r2ZafmG20wW+3yDMQbZn9+bk/6Knfnh9IDrS5/Vrb8lra0jQ22z/oa9vJf8pr//LNO3/scXTzHrudXakz9a1c1jvY2KJmL8hrg92vandeB990pVJON2v1+j2qb+1Wh3+Dp6O1RfUbEwcSDRzVMxsPaJ9Zp0dnt5p37tG69S+70ivRwe2Mge1Uml5WrWmz2bQT1tPP544mZKNnLkuTMdNdZ7Tb7Ju47TQ6Oo97bSZ++QAAAAAAADBSjbrjztlX3HRGU6bE1N6etrDANW24bx8Ap3y+tm2qkPbvSRFIBwAAAAAAALJDJjuAESc2b6pXtqXPGeUAAAAAAABAAoLsAEaczKVSAAAAAAAAgOwQZAcwwmQeFBQAAAAAAADIFkF2ACNM5kFBAQAAAAAAgGwx8GkIA58CAAAAAAAAAPqCTHYAAAAAAAAAAHJEkB0AAAAAAAAAgBwRZAcAAAAAAAAAIEcE2QEAAAAAAAAAyBFBdgAAAAAAAAAAckSQHQAAAAAAAACAHBFkBwAAAAAAAAAgRwTZAQADr3y+tm1epIVuFtmJ1SzTtlXT3RwAAAAAABiKRt1x5+wrbjqjKVNiam9vc3PDz3DfvmtG4b3aN7tKMTfb42KTalte04duNjsT9UTFCj02Rmo72agl7e+75fkxc0qdGiYXm8feaR77tFt6tQTb2qUX3qnXs+fd4qFk8gJ9/aFqXX9HqQrcosvvvahzOxp02c2PNKNXbtU4sz8uv7dDXTvecEuHmapF2rZiqso6j6v++Zd18IRbjoxskH3L4iKp9YBqnzvqlg6WEi2smavqCnPsSt0imWO43BxDNwcAAAAAAMhkxyCaOeFeba+o07tVP+q57LvtXj1c6O4wEApv17fH+JOxyTP1sD+Jq2FyrYo3rFRhKMBuFdzxiIp/vEaj3fy1qKB6q27ckcM2mH1i94dVcOOkuP0ybNgMdhtgt8HZ9QTY+6pt726t298tzblP22pK3NLBsXDVUtUtDgfYAQAAAABAFILsGAQT9cRtdWqYXqV7xhS7Zb5YcZWeml2n7RPcAuv8a1rS9BPd2XNp1Ovupj47/4F+c9GfbDv5oV7yJzHoYvr6f3zECyJ7GdsrH9Vn7tK1q1mX3vmFLvl3vAbFNHp2qfTZqb5n4588pC8/sxOdZh8cGobZ/CVa9oMKlalb+zaS/ZwrG2ivb5XKFt+vZeVu4YAr0aSJ/lTzzj2qXV7vLhxHAAAAAAASEWTHAHMlTIptcL1Lrx/dqdqe4PlOPXnyiNpUrHuKZ/l3z7vTerbFby/fpWLQB5Pn6/obzbUriRIOJl/+7Vada7yWyzRN1nV223IJspuz/08/tl82rLnG90G0WM39WlIqdex/VbvJYO+Xg88dULOKtOQH85NLaQ2kzhbtbTrjZgAAAAAAQBSC7BhYExZ69dClI3rynXo9/vnpUE3103qpfY+WvLNTd35EAHzQlM/X2s11athVN2jlJwoq53pZ7JdahmHN8bvmeWVihuW29ct01dha4p0t2r6XIG3/HdVeWzamtEI1VW4RAAAAAAAYEhj4NGQkDXxq66OvnGzLt7gF6lJb1xta99H7EQOLumx0BQOPTtTDt31H3y8u7smobOtqMusmDkraO+jo60d/osc/d4v7bJa2V1XrnowDn/a2FyW7wUknmn2zUFsmlyjWU9om9b7JNPDpw7fV6Smbxd/VqNqofVs4S09MXqBvh/flxSP62ZE9einlwKVBH2eYPvpL7P7/2cnXpMk/Mu2lH/h04ao61c1xM14Zj90DkGW8QON+XK3RN2Yq5tyscyu39paK8eq2P6KC93bos8hBQGP6+o+fVuGNCesFyz8L1otpdPV3VfhAZWiA1R06l5BFH1ZgjsPorAZlzXbbrIR+3rVGNy6vdDMhn72orh9nMfjrZLNdD/0wvq79Z806//Iv9KffRr129X+/5KxqkRpWTFXH/j1anSbI7p+PdjDNw5q06n4tmVNklnareeduPdNUomVJy7zV4sSq5qvmoQpV9hySbnW0Nmv7c0eVtFdsjfhNFSrrbNG69YeSb7clbjYv1ZLSVM+NqMFAXXuNpr10z6Xy6VpWXam5ZnvK3KKOzuNqzHYw2KDvgzQIqndsJqbaTwAAAAAAIEAm+4hjA9E/cvXR3SJPsWLF1WqoqtMTqQYiHVOiWwpnaXvFCi9wHC5ZYGurN1Tcq5lu3tMz6OgRvZpzgH0QuW1rmG6D1+Ha8Vnsmwg2AJ8uwG5vf3d2tVdKJ25fjpmhp2b/SPumuILIcfwvEvw+ukVGUNv++2Pdgqtt8iQVZBWETlDmD/55ufOkP58kRWkWV47GW88G6nc8rXGhQLJVcMdKjauOKrQR0+iVW1MPyrpjq74+2S2w+rJtCf0sKA1Cq/EuZ1GPveCuNaaPZrsS+qgbK1W4/GkVR21bv/ZL/yz81lTzt1uH38omi/0GVdvAthdMt4pU+dB8LVuVsGzFIi10cz4bEK/TlhXhALtVpLI592nLrmV5rmE+XWtNP5MHA3XtbVqmtSl+HRKrWaaGTfd52xM+C8pKp6puU5a/KjlxTIc7zfWcmxP2wwAqLdIUNwkAAAAAAKIRZB9hZk75jsv09uuj9wwu+k6jXvAGCC3WY7OX6mE7mcQGf6t1z5guvRBat/boEf/mMVVaGR7AdGyJHzzuGqwBR3vrr4cvtSe73O3pzNJ2b9vM5MUjcdsXrh0/LcsgdpDhLpt9H5XBPmGpf7s9DicbQ3Xq/f1ps0Zjk7+TFNR/+LYgUz/++NWa4/f6xeK4wHsqBxtb1GwDdcaA1co+2RAa3HSHn8lts7VDA576l3A2em8Q+nJnirxZG+C214lBdhec1+wf+pnwnzXr3NMbXBsbdO49717m8cPRcsvP9LaBa2/w0V0bQn00673SbNopVeF/rO0NTGe9beaSkJ1+uXFN/O27mv3lqbY3YAPsy/3gePzAsaa/po9WwQM/jP8ywMp5v/RXMGjmFzqV1flVpDIvc9wOrLlH++z5WVqhJXMSlmmq7gqVSglqvvtZ7qHBOTcecPcv0pJNiYH53MVqKv1gfudx1Xv9Ci57tG7ncXV0FpmzJULVIm2xpXNsP/cf0Lqe9er99cwt2Q1qekZvtnSb6xs0adAGQAUAAAAAAJkQZB9JCu/VFhfYteVEbH30Huff17MtO12gfYa+H5lFbVw8oieb6vVsaN0PP9+jJ10cu3xM73ozxwxOve98mDllge6xE15Jmj1x2xeuHZ9NyZu4AHtkeZuJemLyDG/q9aPmOLTHB+Ht/lzifXFRrG8Xh46DOX7ft4cv4vh9aI7f4z3HL4MTh/TMej/Al66MR96kCoxHKCj1g91f2ahjlBSZ7kFw3sswf2WDPvvxVl06GQSu23Tply9Gtl1Q/UMVepnxNki+Rud+2xa6n1mvcau6nt6hc/81RSmXPmxbFL/fabbXs0DjXImZS7seTRg41vTX9vEVLyqt6yvjM9Jz3S/9N143eYeyW+3+gox6v/AJAsnxy04lVmMqn6/HXeDalnV5Jjw454mj2r2+NzBfneexBzpaDieUdzmjtqaXtdo8r5KfUyVa9pDN6pdf7mZvfAkbb72dx81UkebOy7afRbrpJjc5IEoUq1mkaltWqg/HEAAAAACAkYog+0jSk1n+Rop63af17Ek/Kz1Wcnt86RdPl16wtcLdXNixC9lkiw9VE/VAifvy4Uiamu/nE6N8yXoD7Ef0ZKr68UEZnYtN2pEqaP/5h3rdXMUdh4zHb4jKWAImEFOBF/A+rEsp7jq6wg82J2Z++8F5G4TeoK7G1Fnh8X1YoMIH7HrNOpeuHvrJN1L2J9i23AY9jWn0bNN+mu21CqqrvYFVL7+yQed+6y9LdLn5sNf/xIz03PbL1dHZkfyFT3hZe4cfeO9xkyu70tqc4tcYZ7T7lzZ4bQ5TxS3+c6ef2t7qzTpfWzNdsWyyyctv0VzvC4cW7Y2oJ+9p+tichdn1s63jCzc1AGzN9112UOSl2mJL4nQe177nqccOAAAAAEAmBNlHkCCzvO1CmnTsC2f8gIqtv+4tyN2HF12AbOyEiID9UDJB07wyK2f0cT+C1zN7SsBYZ3TMTSUJguVjqtRQ9SO9G3mp9jPrQ7I6fkOQHxjv1JfNGUJ1rn546qxwF4RPyvwOljfry8jBP6WCyrku0B+6PchCf++tuJI1fRFsW/pM9FRS1JdPEGT3Z9x/SXLcL9eIWNkN3nVHx1nvOtKn3V5QPG91xU8c0uqNttxSkSoX2xrsNiBtLpttLfYUQffgy4DSCm3xAthRl/sUMRzuVWf33Sl/EgAAAAAApEGQHQMnjwH7Ia/kO95gpDY7/UlbA94G0G+b5W4cyYJAb4cuZ0qWzpjxHgSlEzO/MwerI8vQZJ1hn0ofti3KXfO8DPX0WfBZthG5LTnuF6QXlFvauEf1+4+rubNbHaW9Qfdtq6abozZwgi8XBoT9EsHVmK/f3+0PyvqD+QO6PQAAAAAADAcE2Ueg2Njw6KQJgizri2kysbN1/gP9JlON9yGlRDcnDDSardiY3hrsL7XX+zXqi6u1PWpXB18+dDX2DFya8hJRcibt8RtyssvWtjINelrggtJJj5VqeY9+BsNTctuWYyZ8dvXYsxHT1xdFlNG5avvFOqtPvTLxecogT6OsbLybihBkkQ9EXfETZ3Rw78t6Zv1uPzC98YA3oHDZnPv0eLgGfJBN33qgZ7DTlJf12ZZm6dann7rJAWG3bbfqW83kIBxDAAAAAACudQTZR5APuz7yAzjFC/REZDC5d0DOtjMfpK5NnrXTeuWMX6s9Nvk7Kdo0CmfpiQlZBOEHLCP+fb3qdbNYj824N3Vpm8KJqW9LGOT0pY8avZrq90yvS97u4MuHlMchWu/xm6mHvSUJCoOyNxmUz9fazX6Zim15HhAySZ4GPS2o3qpiN/hnYuZ5EJxPnRGeItDf4c8XPPBdPxgdZfICv/9Rgm3Lkb+9mQLcbbr8mb2u1PV3eQuShAdvPR+q2Z7zfsmLYKDSGzQpm7rlOQjqo2tOpZZFttE74GhHy7He4PWJs+YsM1IEj2M192uJPTQRYlVpstRPHNUzQQ34cOD/xDEdtg2m7GdflOjuCjvY6xc6FVmHHgAAAAAAXA0E2UeS86/pZ0EweXadtocD2zbQXbFCj3lB2iP6WXvmQT6z8WH7P+kFL5vdtTllVihQPdGrY75vdrUem54mCK/P9UlPRnxofdPnh/sQpE7npZNNfhDOlnmpWJoQ9A/6uSJlCZjkLyXe1+NH7SCyUYH7YIDZ0D6J246JeniKaa9qaXwwPfTLgKdMH8PbHuzHxDruURZWV6jSBRHtAI79D/ylFtT8zn5g0FIVPhQKbE9eoHE//rmKHyjVpfe80GhSpnvGkicuo/vyO4fig8knD+lLF8Ae9+M1Gj05FD4106NXbtWNG1ZqXHWGYhl3VOvrd/Xep8D0+esra1MH7j1BFnmlCkOPX3DXAtMPN+NcarFDYkqjl2/VuFA7dt983fTR7hu7/ef/a/zgrTnvlzw5+LYNOBdp7rwB+iLnxCE12kxr08aSTcu0tirUTvl0Ldu81AXLj6txb3hQVZdlr6mqC5d2KS/RslXLtGWxDWJHKJ+vx1fcpy27lvklYcz9w2KmzbUrXFA/rk58MACr62dS7fYSLaxZpG27FmmhW5JSMIhq68c66C8BAAAAAABDwKg77px9xU1nNGVKTO3t8QGu4WS4b59vYiiYHqVLL7xTr2fjBgAN1om6zTdzSp036GfbyZ1akhSgz9zm60fr9Xia8TyDx09iS6589L6biZa+byGF92rf7KrUmaoR+ybTY/f0O6KfKbcpcPGIXjiyJ35/p+ujuf/rF2bonuLUx8lauKpOdXPcjLq1b+Nu7R6grNjRK3+ucXd06vzTa/SnTCVJ7lqjG122ejx//UuVNqCshMeK6es/flqFNzbr3MqtkWVbvCx4G6Tf9ajOhTK9PZNrVbzhkZQZ6Zffe1HndsQHr3sFbbvZBJHthQT9ShS1nr8f3UySqP3bz/2SF9O11g7o2dmidWnKoATnY/POej3T5C+L1fjB7kzLvGz1nmB6lBTnd9UiNbiAeKKO/XvUWLbU9Cl53VjVfNU81PslVaQU2xv0P6XO49r3/Mtpn4vR+2CguH2r9McPAAAAAACQyT4CndazLT9R7dEmve5lRQe61NbVqNqm1MHZ3IXb9MvH+GybTXrynfQBduvD9nrVnjwSH+ixQeiuDCv2xfnXtKRpp5607eRp3/Rk8nv12eNL4thtuvOdRrMN5vHdMo/ZR6+fNO21JATYLdtHt06v3vvvuBBeHu1gY4tXO9rq2P/qgAXYpT7W/P7tVp1z2eq+Tl16ZYe6VvoB5OjyKv0c3PNkg3n8DV67cet/1qzzuzaoK2WA3WrTn368Qefj+ixdNuueezpz4Ppy43+O3N5wyZfApR2PqmtXsysd43wWv3/i9XO/5MVR7d3fLZVWxNcoz6sz2r2+Xut29p7Tvm51tB7QuuUpvkBqetmsc1wdcbv/uOo31mv13jNq7zD9jtDW5A966rcXf58OGyTfuSdlQLpt726vbvu+VlejPWAep3m/6ev69AF2+6VFjQ3Sd7Zo74AH2AEAAAAAQF+QyR4yMjLZAWCwBJnmA/uLiZHAz/gfzP1IJjsAAAAAANkikx0AMEDOaPfzLerw6pFnUXMckWyZGFtSZ2B/eZJCaYVqwvXuAQAAAABAEoLsAICBc+KQVtvSLHag0c0E2vuqp5Z76wGvlM3gOaM3W/ySOJUrlqphV527cAwBAAAAAEhEkB0AMLCaXtbqjTaj3Sj3lqAPbH352ueOurnBY+vIr9ufULseAAAAAAAkoSZ7CDXZAQAAAAAAAAB9QSY7AAAAAAAAAAA5IsgOAAAAAAAAAECOCLKPILYcDgAAAAAAAAAgfwiyAwAAAAAAAACQI4LsAAAAAAAAAADkiCA7AAAAAAAAAAA5IsgOAAAAAAAAAECOCLIDAAAAAAAAAJAjguwAkE/l87Vt8yItdLMYmmI1y7Rt1XQ3BwAAAAAAkLtRd9w5+4qbzmjKlJja29vc3PDD9mFYK16jG6dVuplelz55VOe63MzVZIPTmypU5mZ7dLZo3fpDuibO3KpF2rZiqso6j6v++Zd18IRbjiHHBtm3LC6SWg+o9rmjbikAAAAAAEDfkckOjBAFo5PC10azvhwKAfbhwH5JYAPsOq769QTYh7q2vbu1bn+3NOc+baspcUsBAAAAAAD6jiA7MEJcPrVGnx1+1F026Pwls/DSKV32b776ThzS6uX1qu25HFCzu2noK9GyH9gs/G7t2/iyDrqlGNpsoL2+VSpbfL+WlbuFAAAAAAAAfUSQHRiRJuu60ebq4hAKsl/DYjX3a0mp1LH/Ve0mg/2acvA5+2VOkZb8YL5ibhkAAAAAAEBfEGQHRqLiebIx9kvdb/jz6IfpqrG1vTtbtH3vGbcM146j2mvLxpRWqKbKLcpG+Xyt3Vynhl11lJsBAAAAAGCEY+DTELZveCkYu0Cjy6p1fVGpCtyyy90v6tyxhtTZ22NjZp0fqjC0ji4163zHL/Snrqh9F9PXZz2twos79NkxG7A260/6rgrLKkNt7jBtvhHZZkFxrbnvXI0eXeqWdJr7HzbtNejSBbcoSp/7Ga9g0lYVl0nnf7dGf0rXTkhB8RqNs9tlo/OeTl3qaNT5U9Hb1n/TtXbXfarsw8Cnsar5qnmoQpXB7lS3Olqbtf25o2nXj1Ut0uMPTVVZz3rJOvbv0eqoILpZt2HF1NS394jp7s1Pq/L0Dv20Ubq7ulqVc0yDnc1qfn6r3tSC5GWJWfHlMc2o/qG+Ze5T5BZ59/3lL/RmU8QWltfqe5seUVGrafO5qC9UXJ9Km/Xq8q064pYGSqpqNe+huZpW2nt+drce1tuNDTqSIWO/pGqNHnioUuYUdTr1yf5GvbX3DeXnq4gSLdu81PsFQfPOej3T5Bb3CG63JXx2p/+FQTDobh8GQV24qk51c9yMVyYoQxsAAAAAAGDYIpMdw1BMo2/ZquJvrowPQhsFRY+oeO5WfX2sWxBig8jF33xa4xLW0ehKFU57WsWTIopJjJ2v60dLly+eNNO15rHN+qEAu1VQtFLjota17U17JBRgt0zbpo/jvrlV44qji1fk1M8EBWNsmx26nFWAfYHGzfq56Ws4wG6VanTZShXPqo3vx1VhA6p12rIiHGC3ilQ25z5t2bUsZc3thauWmfXSB9jTWfitqeZvtw6/lSl0PNkFnOfpwU0r/WC6VVqpadVr9L2EZZXVC/xpxwatv7fpad0fDrBb9r4rntb3aiKO+02TvPt2d5jzM5LrU+cpJY1/a9qrXfFIKMBumbbnPKL7N23Vg1WpzrMFenDzz8264QC7Vappi1eqdnOtOVr5cEa71/t1+ytXJB/fPpXwOXFMhzvN9ZybtdBfAgAAAAAAkDWC7Bhm/MxyG4C2mbOXPtmgrtBgn+c6mnVZpSq8OSEw7AW8/eC4zTwPr9Nl1rEKyn6YHJwfM8l/nPE/VPE3H1HBpWad+92G3va6vXupYMxkf6KH6WdZpbn2+xgekLTrE7+Po6dFtJdrP+Ms0PVe5PUt2bFP01ugcXNXavRom7Vu2vtd0J65/G6HP3jq6EdUWOzf+2oJAqo22N28c0/v4KkbD2ifDZ7amtubFiUHUKsWqW6OtzO0L7Teup0t6vDucFz1bll0lnqJJk2011/oVKZAbrkf8NacSk1r3aGG5Y/qpzv9Y1Zkltls8/CyOF7A29zHTHYH9/MuG9Sw3z3G4h/q7oRAc0lZmXfd3ZEijz/o0+lTCdnlMd39kH9+frJzg2vLtWf6120D5iuS2/MC7LtWalqpzVo3/dwYrGcuG3eo2R6L0kc0ry9lWdI6qmd2HjfXCTXVy+fr8T6V8DmjN1vsk/UGTcpyANSDjS3+9hjU4gcAAAAAYGQjyI5hpWDSD1XoFRt/UV2H1+hcV1uolEmbLp3aqq7f7dC5j8MlYxZo3DQbUDSrffKouuJKu5j17TodXnRQ1xfFZ+8WjPaDmAU2G71jgz57f6suXQgCmqa9jhdDjxXh0mGdjyvvYtrrMu3ZAH1SKZfc+xlnrP/FgJd9n8HoW1ZqtOwXB2Zf2rIw4f5ceEN/+tjfvoLRadobaEFA1ZXseKYpFFQ9cVS71+9xgfapqk6onR0ru8G7bt65W7tD67U1HdJqL3g7VXelDQiP103e9zndavcXpOayytX5ohqecyVTPj1lep2wzOnNPl+gB1f4x/2TnY/qH+Pu16Yze7eqYb9/3KfNiz8OxV56fqe6P/Xnk2TKdO88rLfiytCY9pq26h+Xb9CrG9cklbOZsWqlppnzxd72K1sWJnz7iTf05vMvettbVJbH86XpZdW3muvSCj3uHd8SLftBhcrs+fB8dmWGehXpppvcZCYnDumZ9em+gAEAAAAAACMFQXYMIwtU6AUVm3Xu/TR11y+8EVfvvGBStTcI6OWODTqXVDPDZ+uke8HkhIx0v+yKDXpvUNep1OG85IB2m1lmrkY/onG3LFBBUuZ5W1JN9v70M47Lvr98KVP40WW8q1Ljvvlz3Tg34mKz9737XkU3Fcn7qqO1OUU28Rnt/qUNmEtlFbf0ZjtnqbQsP8VNgqzyT37Z0Bskd0Hu8LLE7POSmmpNs/P7N+hXSXXHfWfeOuyC1+HjHtN4m2XfeVi/T5FlPeNbfvA+OdO9TWdPm6vSR/TAqgUqScrubouoyb5AN3s1yit1/6af6+92RVxsfXjvvvl18Dm/bEzZ4vu1dpX/qwbvi5MU2x2lreMLNwUAAAAAANA3BNkxfLgM7ezKoPTyA+Wd+rK7bzmvNohZMMZeN+vLFIONFhTNTRnQvnTMlpPp9Gq2F3tB7K0aN2lByqB17v2MN7rIBlZtn/35lIrneUH9oS7IRu/oOOtdR/q02y//UlqkKd4CXxBYrVyxSAvDgeTy6Vq7wtZaN3u8Iz9ZylFZ5X6QO36Zf79mfewC6sF6n7zVx+NePl/T7KpJpWACLgif0H7gyHMb9Gprp4rmrFStFzTfqgdrFqSup141z/sy4Oo4qmc22hI/Raq05X9aD0QMhAoAAAAAADAwCLJj+AgytLMog9IrCJRnGAQ08rEn6zqvNM2plFnzQWD8K5u1nqRNl46t0We/29BTK94bSNQLtifmW/enn2HucdL0ORCUwrGlaXprxkdf0mXxD2lBqRFNVd2mOjXscpdN98nL8W49oL15CdYGWd4dOtuTXR0EucPL3P16BiKNuk+EqLIvWQ96mirTvU1Hnlujn27coFf3uzrsduBSL9ie/HuAnkz9naE67Cku/7g3/+dLbN5U/xcN1sTxZs/1TfBlDQAAAAAAQF8RZAcyCgYpTchIDzK9L6YKWGcZGL/gasXbgPXvdujSJRtszzR4aZQU/YzjvhhI2edkV7Xeeh+UlY13UxGCkjKRtdP90Wn9gU4D3Wref0Drnjuq9OHgs/rUK4cenyGfJBhgtPUtHfEWWC7IHV6WciDSdIJBSm1Avbe3mQY9LQkyzzO1daJNR/baOuyPeoOXftJpg+1Rg5768lpvPVtVi7TF1uVvPaD6/eZ49tRn76tufZqqfj0AAAAAAEAKBNkxfLjAcUHZd1OXORmbWI7F1UZXpa4v9hYkCQ+mej5UYqUn07v7De86WapM9wV+HXY3F+fCG15Wu1Sq67wAfSD3fsZxXwxkk+1/+ZIfdi4YPz+6r0ZBcSzlbT3K52vtZj9DfFsugc8MAey2t477AfI5lVoWGfgt0bKH/NIvHS3H4oPmVYtUN0fat7Feq5f7g1j6l916Zm+mALt1Rqds7XLdoEkpgs6eqKxyF+ROn33uaqOb435zigFYS2p+qEovI/1FvRXKuk836GlJzVbVusFUkzPdF+hBW4fdzcU58YZ+9Uv//CxKGCD0TId/vhRVzE9ZUqakKpa63Eygz+dLUNrnuOqfO6qDe1/1BrotW7xUa9MOWhtWorsr7J7/QqeyruNu2g36uWq6WwYAAAAAAEYiguwYPi4c0pdeMfZKjZu1RqPHhjJqzfToW7bqxm+uTCrFcqnbBg2l0dO2alxxeJ0F+rpZJwhWnv84fjDV9KVgjCCgffZQ/Hp2AFNbh32W315ckNq0Oc5loyfKtZ9RbOB8dJApb/dN+PECXa62/ehHTF9re+9vFARtTntahSmC/oGF1RV+ENiwA1NGB8KjuCxxTVV1zfTe8h/l0+Prp584pEav5EuRlmxaprVVocCsue+yzUu9gTBtELZxb3zOtl8ipEg3zcsmmBvt4Nt2UNUizU3zGFFZ5dkuO/K2f9ynrdiqB6tCx6l8ge5etVW1i/3j3vx8aEDVHqWqrA4FzM06D27+ubfOJ63ezo1ry/IGWrV12Df77cVtlV3fZc0naXpLn9jr0kfMurWaETpGJUFfVzyteRkC3309Xxau8kv7NO98WQe9JWe0+3lbn93V2veWZVB+i+baNls/do+RWaymsrefKb/gAQAAAAAAI8GoO+6cfcVNZzRlSkzt7ZlzO69VbN8wMLZWxd98JGV29eXuF3XuWHIQevQtP9c4r05HlE6d/90a/Smu5EtMX5/1tApHN+vc4a2RA60WTPID37am+bmEzPLgtpS6d6jr2Bt56GeiBRo3d2Vypv+lF9X1fkRwvniNbpyWIqhqXDb9PBfRz7CFq+q8bHFft/Zt3K3dWWYLx2qW+WVAErUeUO1zR92MVRIKpkdJ0W75fG3bVNFbyztCR+dxHf7lYe1uSlVUZbrW7rpPlZ0tWrf+UGT2+4xVP9f9czrVvHGN3nR98Jc169XlW125mJju3vy0KkvDy3z+fd1MkvjH7VG1Rn/nstXj+ff//TwboFfkul6muxe8T6F1hxqeeyM5qJ+yTV+3We+VqPVC+nS+VC1Sg81iTzofQudOxG2Jgvs276zPesDUxHOzY/8erU74EgcAAAAAAIwM1904ceKP3XRG48bdoHPnvnBzww/bNwz8r3/WxY5mfTX2dhWM+de9P9W41Kzz7T/VuVP/XX92i8Iun/2Fvvwypn81pkxfCyL0lzp16Q//l859tFOX/pdb1mOWxpTPVcGlt3X+D/8c+Zj/6sblGj2mU192/Fr/M2H9P//Lr3X+iz9o1F/cpK+F+nnZtPk/2zebfr4XGbjuez8TtevLL/5CBd+YoQK3/mWzby52vKpLFyPOjYtvev0s+MZN5v7/2i20wfUX9S+fbNK/fNYeue1hJ05fp6m3larMrN6x/yVt/R9pvwWI88UH/6y3/6JEt08vUk/rnce17//5WP98Mvw4F/TP/+2w3v78OhWV+W35utXR2qT/3/rX9d/PuUVh5y7pYnmZ5pbG1eaJ86//dZFuq/ympn5+WP8jsspOlzr+4hbdVzFNt//Fcb3yQeL2xTS9+q9Nn47qd//nmz0DmnrL/vS2Dv+3fza9t2bpjv/3XBV1hpf5un77C33yeUyTyspkThdfZ6c+Ofh/6ZWnd+po1LadfFPnyv9KN5f2rKBP9vfef/L9y81t4T71uvDBr/VW6x903Q03aYxZP9g73abNzobNemXve9GBctOmXa/ktptU9K97DoK6W1/Uf39+k37zSnvcdkXJ+nyxX5Csud2cF8dVv/63SozD23PnD+Y5OnfONP1V5HEJTNeK/883VdbZou0vfKpsXyG/+OB/aupd03rOtX/5/e/StAEAAAAAAIYzMtlD2D5gJHHZ70qdgW7vs3DVUi+zOn2mcpBJ37dMfVx9fuZ8P46by6Ynkx0AAAAAgJGLmuwARiZXhztpMNQ4Z9Te0e2m0wnqgNu68FnWAcdVZ0u++F+gvJrzFyN+Xf9uHX6LADsAAAAAACMVQXYAI5odXNMOlpo49GvMDpq6Kqi7nTxoapITh7R653F1aKrqNhNoH+rCNdtzzkAvn6/Hvcdo5tcLAAAAAACMYJSLCWH7gJElfpDNFGwN+Odfzj6IamuF/6BIjWadgwRehywbZH+8rFmrMwyKGq3ErD9Xjy+eqjJzftSvN8fa3QIAAAAAAEYeguwhbB8w8sSq5qvmoakqLS1SmVtmdXQe1+FfHtabTWfSlJPByDRda3fdp9LWA9r+3FHODwAAAAAARjiC7CFsHwAAAAAAAACgL6jJDgAAAAAAAABAjgiyAwAAAAAAAACQI4LsAAAAAAAAAADkiCA7AAAAAAAAAAA5IsgOAAAAAAAAAECOCLIDAAAAAAAAAJAjguwAAAAAAAAAAOSIIDsAAAAAAAAAADkiyA4METNWbdXf7fq5vrdqgVuCa11JjX9MH6xyCwAAAAAAADDsjLrjztlX3HRGU6bE1N7e5uaGH7YPV015rb636REV2enOF9WwvkFnvBuGgHDfEnR3NuuTX/5CbzYNrfPKBrdrF3fo1eVbdcQtS22BHty1UtPcXEqtO/TT595wM9mI6e7NT6uytFPNG9fozRNuMQAAAAAAAIYVMtmBoeDEIX3SaSc69UnLoaETYLdumhQZYLeKSitVueJpfa8m5pYMBTHdWlFqduUpdbklaVXNyxxgN7o7TrqpbE02+8dcdR7W7wmwAwAAAAAADFtksoewfUAyPyu8VJ/sfFS/anILrfKYZsz7oe43t0nNWWaNDwaXmd7nzHNfyu3tq+AXADn2AwAAAAAAANcGMtkBpFVc5qVjq/tTf77HiTYd2fuf1exl4JdpfLm39OpzmemfvJ1bYDvl9vaV+wVA3zPggSGgfL7Wbq5Tw646baspcQsBAAAAAEAUMtlD2L5rnauBfXqHftoo3V1drco5tmxIs5qf36o3tSB5WWIZD5udXf1Dfcvcp6dEir1vZN3xoOZ2hizuqIzmqjX6uxWV/nRYxnrsoW30Hsv0t+a7+tbiyp7+dpt2XjG3RT+Guf+q+O3rbn1Rbzc26MhNtk9lCfXDM2/jjFU/1/1zUtcdLzHb+sBDpn82du3p1Cf7G/XW3lR99JWUL9Ct5nhNS+jrK88l7p8FenCzuV9pTwNpZMq4D+qzZ5uZn3p/ds3LU0a8SrRs81ItMZvXvLNezyQ9VnB7t/Zt3K3d/S5NM11rd92niLMzSXR/+mqwn7dGxl8ZpD/vS6pqNe+huaFzrtMc98P+8yjD/s/1+ZC9/JwvC1fVqW6Om1G+zi0AAAAAAIYnMtkxjLga2JqnBzet9INyVmmlplWv0fcSllVWL/CnHRv8+t6mp3V/OFBnpaw73qbft9g07nRZ3DHd/QM7aGinmht7g3klZWVuKl53pnrs5fM1zWyClx1tA4W7TH9DAXaraM5KPRBVIz24f8L2Fc15RPdvWqMHv2XDqh06Gw6kufbU+lZ0wNk85rdsIC6y7rgNfv9ctSvCAUWrVNMWr1Tt5lpF58fawPVW1brjldjX2l1bdXd4f5dPMo8f10Bqmeq028ey16m2NyzD/pxn68KrWR/3Owh9RrvXHzCPJHMeLtOyhHMtVnO/F1Dt2P/qNRoEHeznrZHxVwZBPf2I88W0V7vikYQvdUzb3nHfqgerUo1PkOvzoa+G+/kCAAAAAMDQQyZ7CNt3jQuyU+106w412GzuqlDGeOKyFJnl8ZngMZXUfFe1i+1tEdnabr3u/Rv0j3sj9m2m2wPufhmznoPH6+yUSktV1NmsV5//hY6csI9tg9M22GgmkzJ0gwxtu30uc91th5dZax7T22+JmfSp+u/VY+/NoE/ud9Cey9J9y+zPYL+VL9DdP1ipytKo9YIMYjtt1t35n/VWU1vPsejJ2k+Z8e/azfiLgBSyPV6h/Wn32avPZ7k/+6NqkRpWTDWP2aJ16w/J6135fG3bVKGy8LJrzVV43masux/0Kel5FJyf/rn5q54sedNe1XfdcY/6VUeuz4d+6O/5YsvF/KDC61fH/j1avTcvZzEAAAAAAMMSmewYPlx2qhfYDIJtn55Sd+IypzeLdYEedIE6G+T6x7j7tenM3q1q2G8z1ks1bV5Clqp7/KKyyf58nJjufsg8rmn7lbQB2yCzPXMd8CAD3svc3r9BP12/1QXYrTYdaXzR394EM1YFAfYdZvviS1qcadqqf9xp817N7QmZ9D3tLX5af7fr570XmznsBdht0HBDUmDQb69Zr25co1/ZMhjhgOOJN/Tm834/i8ri92dJzQ/9ALs9XsvNuj0BdsvWgDd93bjDC2qH+9kjyEQ/fSr69gyC7e3uSH+8gv3pBXzXR+9P7zjk2I9ITS+rvtVcl1boca9GdomW/aBCZaalfc9fowF26yo8bzPW3c+U6d552Pvyp5dpzx735Ru8cz6xnE2uz4d+6e/5cuKQnllfr9rl9QTYAQAAAADIgCA7ho0gQPrJL0MBWBcsCy9LDKSW1FT7AeiIYHHgzFuHXRAsIZh+4pA+sXG8iZOSSj0EAeO4/kSK6VZbWiSy5Eo8Pzhog4rpM63jgoM9JV1sPfNwVm6yxOBy0F4yG1zfoQYvaJjYjwW62avlXKn7N4UC83FBepe5HGeB5i227TXr1XTZ3yfeiAtqxwmOd06DnrrjYNpPW+IltD9tADiVtEHaHB18zi8DUrb4fq1d5Zf9aN55bdfKHvznbUzjJ5qrNM+3GV7ppOTngw2mnz1trkof0QOrFqgkqUxUW8S5mevzof+G4/kCAAAAAMBQRJAdw0ZUdqofLItf5t+vN5AarPfJW6mD1qkFQbdJKvYXOC5g3Loji/IPrv5zxqxnFxz0+h7d15J5c11wt/f2nmVp6r37AczEzN7e9l5d/qh+ai8bXaa8zeRNzMgNVM3zs7z7qi/10FOIOt7ZS1OHOyT7/RkVpO2vo3pmY4s6TA8q55hetB7Iw8CjV9egP2+DcQZSPt+C8z76PDry3Aa92trpjX1Q6wXNt+rBmgWp66nn+nzIi+F3vgAAAAAAMBQRZMcwEWSLhgfuDIJl4WXufj2B1Kj7REhTPqKrw6ayV+rmKn/e8stDxA92mpILwmXOvs4cBI4KWGYORgYZ3In7wLUXDnqfaNDbXgmKubo1xWCvPZnJO11gPs0lLhs/U4mOjLI8lqlkWWom+/2Zj0FPk8XmTZW/h42J401r+TZda3fVqSGLy9rQOZ+bq/C8zXieBc+zVJnubTry3Br9dOMGvbrflgVyA5d6wfbko5Hz8yFPBv58AQAAAAAABNkxPERmQUcEiXOq2e1qqxtRmclnOjq86556yq6cSPf+/5xUmzlKdBZ5hCAjNmMGbh+DzEFmb2Lw3rWXGIw88rYtQFGqyuoF/oIU8lpfOisRx7sv+h3kD2T+MiRnVYu0ZbHpZesB1e/vDtXbvkZdhedtpl8ZlGR8njkn3BgBNkC+cYc+6bTB9h/q7hRfPg3+88EYbucLAAAAAABDFEF2DA9RAdKoIHHS/Vy5l4RM9LDwYJxvRWUmN72lT8yVX/c5prt/YOsrN+vtLLNS/czozIHxnozYlBnv6YK7EYO2WuULXH+NhKBiymCk217NmacZ3oJ4PV86VMxPWUKjpCqWfFswiOzi70Y+rsf0N2WIMAjE5igoUZJd+ZFSFd3kJuPEegdFzRSkLZ+vtZv9jPBtWQU+p2vtiqnm+rjqnzuqg3tf1b5OW297aR4yysOO6pnl/oCXmS79Lj1yFZ63Ub/2CJTUbFWtG0w1rn3PAj1o67C7uTgn3tCvful/+ZR4XuT8fEg06OeLWT9ob9V0twwAAAAAAEQhyI5hISognO0yPzNbmrZiqx6sCgWibQB61VbVeoNxdqr5+VSDcZ5UdzD4adV3/cFOd27NMps6yD6v1LdCpSZKqhZoRkJGbLrgoCcITibUCg+2r2jx0/pejX3cmErctn1v00o/EGkkBu9Tt/eGPrYlY1IFOIMgfOkjqt1cG7cdQbu1K57WvMR1g0FkzePev3mN188eZnqGWe/vTH8fiCjJEWdOte4OHUe/TdMPNx8t+18B+OWB7Pli++hNekqqavXg5qd1v1f+JCpIG29hdUXPvrcDUy5LkQEdWLjqPrNnpOadL+ugt+SMdj9v622bPbZikRZ6y64tV+956/8SoydUbdZ5cPPPvXU+afWPb7gtyxto1dZh3+y3Fxfmtuu7rPkkuT4fEgz2+RKrqextb05lxvYAAAAAABjJRt1x5+wrbjqjKVNiam+PDzwMJ2zftWvGqp/r/jmdat64pqdEi7/MDtoZBLxjunvz06osDS/z+fd1M0niHzdK0H53Z6mK9KIa1qcKyCfzsme9gGA8W8O5d9DU1H0PBI8Tv54v1fZ1t76otzvm6v7FStjGDO1VrdHf2YzfzhTbGtyeQnfrDr3y3BvJ65XX6nubXGZ9BNvfV55LtW+DPrvZBNH7082mErl9C/TgLpetnqjT7K+Wsoj9mWzhqjrV9RyTbu3buFu7U92/apEabFZy6wHVPnfULfTFapb1lARJvG2ouyrP25Tnpn//38+zz6Po45fqudrDnNcNUed1rs+HkME+X3ru53Ts36PVe9P1EAAAAACAkYtMdgwDUVnIbllc6ZTU5VSOPPeoGnY2+xnpgc5OfbJ/hxqWpw+WWkGd8qLSzjQZ79HO7P3PetVlz/r8duNL02Su850u093fvhe9LN1uu12tL+rVjRv0j88d0vh0g56maq/pF2q2XU41AGrTVlenOrxdfpD81Y2PmnZTBBRPNOgfl2/w9octHdOjs1nNO21/0+3bNr25foOa4/aladMGvk2b8V88uO3LJLLkyxv6ldm2uHbsPjX9a1i/1e2vzBnxBxtb/H1odOx/NXXAtHy+toXKfiRq27tb9faXBXPuy7KMyFBxlZ635tyMer4F909XvunMXjvgqX/sw+en95yyxz/VeZ3r8yFksM+Xtr3mORffXQAAAAAAkAKZ7CFsH0Yel5WdKiMdwMjmsuLJZAcAAAAAIDUy2YERzKszba4T67gDgBUru8H87dbht3iFAAAAAAAgFYLswHBma5zv2qoHa0KDPFpxg0M26+29/MIBQILy+Xrcq9/enLo8DQAAAAAAoFxMGNuHYSfDQKK2HnWmAToBjDQlitXM1eOLp6qs87jq17+sg+4WAAAAAACQjEx2YDhLOZBohsEhAYxg41WzeKrUekDrCLADAAAAAJARmewhbB8AAAAAAAAAoC/IZAcAAAAAAAAAIEcE2QEAAAAAAAAAyBFB9hGEUjEAAAAAAAAAkF8E2QEAAAAAAAAAyBFBdgAAAAAAAAAAckSQHQAAAAAAAACAHBFkBwAAAAAAAAAgRwTZAQAAAAAAAADI0ag77px9xU1nNGVKTO3tbW5u+Bnu22ctXFWnujluRt3q6PxCjc+/rIMn3CIAAAAAAAAAQNbIZB/RilRWOlV1mxZpoVsCAAAAAAAAAMgeQfYR5uBz9apd7i4bD2hfp116gyaVezcDAAAAAAAAAPqAIPtIduKo3mzpdjMAAAAAAAAAgL4iyD7CtXV84aYAAAAAAAAAAH1FkH2Ei5Xd4KYAAAAAAAAAAH1FkB3GFzp1wk0CAAAAAAAAALJGkB0AAAAAAAAAgBwRZIcxVXWb52thuZsFAAAAAAAAAGTluhsnTvyxm85o3LgbdO7c8B0oc7hvX5QvPjitP5SXadKt03Tvt+fq31bP1V/9xXG98sEFdw8AAAAAAAAAQCpkssNT5q4BAAAAAAAAANkjyD7SVc1V3ZwiqfO46jfuUe3yeq3ee8bdCAAAAAAAAABIhyD7CBcru8H87da+51/WwRME1wEAAAAAAACgLwiyw/hCp064SQAAAAAAAABA1giyw7hBk8rdJAAAAAAAAAAgawTZAQAAAAAAAADIEUH2Ea6t4ws3BQAAAAAAAADoK4LsI5w/8CkAAAAAAAAAIBcE2Uey8umqWVzkZgAAAAAAAAAAfUWQfYRZuKpODbvcZdN9qrQLO4/rzRPezQAAAAAAAACAPiDIPqJ1q6O1RfXPH1KbWwIAAAAAAAAAyN6oO+6cfcVNZzRlSkzt7cM3HDvctw8AAAAAAAAAkF9ksgMAAAAAAAAAkCOC7AAAAAAAAAAA5IggOwAAAAAAAAAAOSLIDgAAAAAAAABAjgiyAwAAAAAAAACQI4LsAAAAAAAAAADkiCA7AAAAAAAAAAA5IsgOAAAAAAAAAECOCLIDAAAAAAAAAJAjguwAAAAAAAAAAOSIIDsAAAAAAAAAADkiyA4AAAAAAAAAQI4IsgMAAAAAAAAAkCOC7AAAAAAAAAAA5IggOwAAAAAAAAAAOSLIDgAAAAAAAABAjgiyAwAAAAAAAACQI4LsAAAAAAAAAADkiCA7AAAAAAAAAAA5IsgOAAAAAAAAAECOCLIDAAAAAAAAAJAjguwAAAAAAAAAAOSIIDsAAAAAAAAAADkiyA4AAAAAAAAAQI4IsgMAAAAAAAAAkCOC7AAAAAAAAAAA5IggOwAAAAAAAAAAOSLIDgAAAAAAAABAjgiyAwAAAAAAAACQI4LsAAAAAAAAAADkiCA7AAAAAAAAAAA5IsgOAAAAAAAAAECOCLIDAAAAAAAAAJAjguwAAAAAAAAAAOSIIDsAAAAAAAAAADkiyA4AAAAAAAAAQI4IsgMAAAAAAAAAkCOC7AAAAAAAAAAA5IggOwAAAAAAAAAAOSLIDgAjUfl8bdu8SAvdLLITq1mmbaumuzkAAAAAAABp1B13zr7ipjOaMiWm9vY2Nzf8DPftu3ZM1BMVK/TYmC698E69nj3vFg81hfdq3+wqxdxsj4tNqm15TR+62SFt8gJ9/aFqXX9HqQrcosvvvahzOxp02c2PNKNXbtU4sz8uv7dDXTvecEuHmapF2rZiqso6j6v++Zd18IRb3i8lWrZ5qZaUdmvfxt3anZfHHAD2y4VNFSpzsz06W7Ru/SFl+g9gg+xbFhdJrQdU+9xRt3SwlGhhzVxVV5hjV+oWyRzD5eYYujkAAAAAADD4yGTHgHj4th/p3aofad+UiW5JOrO03dz33ao6PVHoFmHgTa5V8YaVKgwF2K2COx5R8Y/XaLSbvxYVVG/VjTty2AazT+z+sApunBS3X4YNG2S2AXYbnF2frwD7yNG2d7fW7e+W5tynbTUlbungWLhqqeoWhwPsAAAAAABgKCDIjgFx7EKXdx0bO8G7Tqtwgsq9iTP6eKhmrUc5/5qWNP1Ed/ZcGvW6u2noi+nr//ERL4jsZWyvfFSfuUvXrmZdeucXuuTf8RoU0+jZpdJnp/qejX/ykL78zE50mn1waBhm85do2Q9sFrfNNh+h2c8nDmn18nrV9lwOqNndlC0baK9vlcoW369l/ovXICjRJPedZfPOPaH+k8UOAAAAAMDVRpAdA+LDi2f8ibETNNOfSm1siV9yxaxzzFuAATd5vq6/0Vy7kijhYPLl327VucZruWzSZF1nty2XILva9Kcf2y8b1lzj+yBarOZ+LSmVOva/OnTLuVwjDj5ng/NFWvKD+cklowZSZ4v2NrnXVwAAAAAAMCQQZMfAuHAmY23jJBc+vzbqmOdb+Xyt3Vynhl11g1Z+oqByrpfFfqllGNYcv2ueVyZmWG5bv0xXja0l3tmi7XsJ0vbfUe21ZWNKK1RT5RYBAAAAAIARiYFPQ0bSwKczJ9yrlZOrdM8Yt0Bdaut6Q+s+ej8i0O0GIlUwoOdEPXzbd/T94uKeDM62riazbmiwz55BQY/oyaY9eslb6NYbK504Wa/HP/cWauaUOjVMLlbbyZ1a0n7au1/8wKdZtJeocJaemLxA3w6vc/GIfnbE9CVdSZpc1/PY2vLVuqePA58uXFWnujluxivjMRCDRi7QuB9Xa/SNmYo5N+vcyq29pWK8uu2PqOC9HfoschDQmL7+46dVeGPCesHyz4L1Yhpd/V0VPlAZGmB1h84lZNGHFZjjMDqrQVmz3TYroZ93rdGNyyvdTMhnL6rrx1kM/jrZbNdDP4yva/9Zs86//Av96bdRryX93y85q1qkhhVT1bF/j1anCLIH52Lzzno90+QWWuX+r03aTsSv598/OGcTBz4tMbffr+o5RT2DjHa0tmj7c2kGFy2frmXVlZobXqfzuBozDc6a63qe6Vq76z5VZjnwaZxgENVBGgTV298Tc+gnAAAAAAAYUGSyjzg2gP0jNUwPB9itYsWKq9WQbvDRMSW6pXCWtles0FOhILQVK65SQ8W9vaVhzn8uP7ZVopt7Hm+C7rfrjSnWPcWz3DLplrHF3vWJizbAnmBslu2F2KD9u7Or9VjiOmNm6KnZqQdjzXW9a8LkSSrIKgidoMwf/PNy50l/PkmK0iyuHI23ng3U73ha40KBZKvgjpUaVx3e04GYRq/cmnpQ1h1b9fXJboHVl21L6GdBaRCSjXc5i3rsBXetMX0025XQR91YqcLlT6s4atv6tV/6Z+G3ppq/3Tr8Vuos9vaObu+6tCz8iwpbx32ptmxamvBLC1cjvPO43kwMZN80XWs3L1VdKOhtlc2p0JbN0eVVYjXL1LDpPi1JXKd0quo2pf6VR67r5cWJYzrcaa7n3KyF/pKBV1qkKW4SAAAAAAAMDQTZR5iZU76jx7zgepdeP7qzd9DOdxr1wkW7vFiPzV6qh+1kEhtsrtY9NsM8tG7t0SP+zWOqtLJnnNPP9Yn3eCETZuoeN5lcq71Ln1xwkz1MX6Zn254zYamXFe9t38lG1bp1gvVs9mds8neSv0jIdb08ONjYomYbqDMGrFb2yYbQ4KY7/Exum60dGvDUv4Sz0XuD0Jc7U+TN2gC3vU4MsrvgvGb/0M+E/6xZ557e4NrYoHPvefcyjx+Ollt+prcNXHuDj+7aEOqjWe+VZtNOqQr/Y21vYDrrbTOXhOz0y41r4m/f5Q+BmXJ7AzbAvtwPjscPHGv6a/poFTzww/gvA6yc90t/BYNmfqFTac6vto4vvOuysvHetaf8Fs1132FELj99NiGrukhLVtynSpvRHhqgc93O4/7NUeVVqhZpiy1lo2417z+gdT2DevrrdZhbIgcZzXW9vDmjN1vsFxM3aNKgDYAKAAAAAACGGoLsI0nhvdriAsm2DMvjn4cyx8+/r2dbdrpA+wx9P1XW9kVb/qVez4bW/fDzPXqyy58uHxOsd1ofe0HzYk0b6y3QzDE2o/SIXrf3HXObHvAC1hN1s3f7GX0cVY4l6/asiXpi8gxv6vWjZvva40vf2PWWeAH6Yn27OB/r5cmJQ3pmvR8YTFXGI69SBcYjFJT6we6vbLQySopM9yA472WYv7JBn/14qy6dDEKxbbr0yxcj2y6o/qEKvcx4GyRfo3O/bQvdz6zXuFVdT+/Quf+aopRLH7Ytit/vNNvrWaBxrsTMpV2PJgwca/pr+/iK/dakVNdXxuds57pf+m+8bvIOZbfa/QXRmj6W9xXBxPG92eY32Qzx42puNdNJy6WOjrP+fFjncdUv363doQE625peVr19DCMpU/4hm2Vvy9Ts1jN7j8YF7e16q70AfZHmzsvHegOhSDfd5CYHRIliNYtUbctKZTqGAAAAAABg0BFkH0nG+nWV1fWGno2sL35az570s8RjJbdHlGLp0gu2NrmbCzt2wUW9Q4JlfiB8oh4oKZYuntGr3vIg+D5B0+LK1oT1rT0V3q5v28e62KQdrt57ks8/1OvmKm77cl3vWpWxBEwgpgIv4H1Yl1LcdXSFH2xOzPz2g/M2CL1BXY3xt4XF92GBCh+w6zXrXLp66CffSNmfYNtyG/Q0ptGzTftpttcqqK72Bla9/MoGnfutvyzR5ebDXv8TM9Jz2y+D6aw+9b4f6C1J4pWZ6ezWb20pmdKputtlbMfKbvCuOzsSvxjq1j5bC93NhQXlaOIEGfGdLdobrgMf5oL/ZRW39Ab5c10vz4Ls/wFha77vsoMiL9WWxVNV1nnc7FvqsQMAAAAAMNQQZB9B/Exyqe1CqkiyceGMH8Cx9de9Bbn78GI4+OaC6abtl7o+8toI12W3wfdjbjJnwZcIY6rUUPUjvRt5qe4tWRPIdb1rlB8Y79SXzRlCda5+eOqscBeET8r8DpY368vIwT+lgsq5LtAfuj3IQn/vrbiSNX0RbFv6TPRUUtSXTxBk92fcf0ly3C+D6oxOeT8amaq7vJIurszM6bM66AWTezO2p5TZMi3H9dtUAe5suYx4W0ZmixdQjrrcp6ThaXNd7xpmT+tT/iQAAAAAABhCCLJj4LiAfWzshJ567K93vd87KKqty144QV5i7IXP40q0YKAEgd4OXc6ULJ0x4z0ISidmfmcOVkeWock6wz6VPmxblLvmeRnq6bPgs2wjclty3C+DLH7wU7/MjFcS5tNuL8jrL5+uuyhd4gky+gfEiUNa7dWY36P6/d3+YK4/iB44FgAAAAAAXD0E2UcgL+idSpDVnY/M8lAw/WEviz4Y3PR9vWqrvYSy5dNm12cryMLvauwZtDTlpeW13qB+rutdk7LL1rYyDXpa4ILSSY+VanmPfgbDU3LblmMmfHb12LMR09cXRZTRuWr7xUouA5NK21tuwFA7yGnVzV4muFcS5sQxHTaP4ZVeKR8v+3VA8qCnOXDBe7Ue6Bm0NOVlfahUSq7rDYhuffqpmxwQZ3Rw726/pn0WxxAAAAAAAAwuguwjyIeuTIuKF+gJb9DRRL0DgLad+SAPweTP9Yk3kKp081g74Grv4KZ+TfUZun+yH9Q/cTE0CGuuzn+g39j2Um5fCrmul0pfS+2Uz9fazX55i201AzxAY54GPS2o3qpiN/hnYuZ5EJxPnRGeItDf4c8XPPBdPxgdZfICv/9Rgm3Lkb+9mQLcbbr8mb2u1PV3eQuShAdvPR+q2Z7zfsmLoAzMDZrkaqqndOKsOerGxPFa6GVpByVh3GPYIG+6QU/7ygXvNadSyzL1LSzX9VLJKXhdorsrbNmcL3TK+0YRAAAAAACMRATZR5Lzr+ln3nihxXpsdp22T7DFlp3CWXqiYoUe8wYhPaKftech6K3T+thmro+p0mM2xt71Yc8gpkHAv3xsOMO9v4KBW932TZmlmXFB84l6eMpS7ataqofdEl+u6yUKvlSYoe/bx/CWGWbfPpwmeL+wukKVXlqwVLb4/vwEDFMIan5nPzBoqQofCgW2Jy/QuB//XMUPlOrSe14oNinTPWPJE5fRffmdQ/HB5JOH9KULYI/78RqNnhwqimGmR6/cqhs3rNS46gzFMu6o1tfv6r1Pgenz11fWpg7ce4Is8koVhh6/4K4Fph9uxrnUYofSlEYv36pxoXbsvvm66aPdN3b7z//X+MFbc94veXLw7ePmb5Hmzsv0RU5v1vtdtu56qCSM/xg36K5v2bluHX4rcdDTXJzR7l/6fVuyaZnW1kxXLO45UKKFNYu0bdciLXRLfLmul8htr6aq2j6Gt8won66FmZ6LweCrrR9HDvQKAAAAAABGBoLsI8xLH+3UC14guFj3TF/RO7Dn7GoXYO/SC+/s6QmG51NcSRhXSiY2Jj7Dvd8+36Pak/abBLN9k6vVMDs8eOkKPTV5hmJm+29ODHrnul6c03rljPcthmL2MYL1zb59anJokNerqC81v4Ngsu5YqeIdP9eN9rJhpUbf2KnzTz+q815gMvGxMpc8SV2Gpk1/+q8v+gHmGys1bsPTfpteu09r3B2luvzeizrXmKLwR0+QvlSFy3vXLTZ9LrzjkZSZ5742XXrH/9Kg4IHQustX6nq/u71+u1Xn3rMTpRodasfum0LTRy/A/vQa/Slu+/uzX/Kk6WPZI+qVe/GXpNA7+GmlrbseLgnjlWgpMsunmpk8Zm83vax1+20tePPYi+/Tlk3hwUuXqm7xVJWZw5OUhZ/renHO6M0Wvw59mX2MYP1N96muerq3PJXYPPP45rr57aP+ggHlBqGlDj4AAAAAAEMOQfYR57SebfmJao826XUv2B7oUltXo2qb6vVsvgLehl8WxurSb7rC2fG9pWTy7cP2et35TqNe6DLb5JZ5Lnbp9ZNmG1v2RG5jruuF2ceoPXkkYf0j5jFT15w/2NiiZj++q479r2r3gJWd6GPNby+Y7Drm6dSlV3aoa6UfQI4ur9LPwT1PNpjH3+C1G7f+Z806v2uDunbEZ4fHa9OffrxB5+P6LF026557+lGdC5VuiXK58T9Hbm+45Evg0o5H1bWr2ZWOcT6L3z/x+rlf8uKo9tqAdGmFHs9QlsjPWPfFBZCDUjJWnoO9bXt3q3bjAe1rdbXWA6ad5v0HtG79y5HPjVzXC7OPsW6/X4u+R+dx7Xs7XTmc6apZbDP9W7TXK6cDAAAAAABGqlF33Dn7ipvOaMqUmNrbByjLcggY7tsHYKQr0bLNS7WktFv7Nu4ewC90hr+Fq+pUN2cw96M7dmrRugEfyBUAAAAAAPQFmewAMGKc0e7nW2RLvizZlKlWOVKJ1SxT3ZyB/uVJCqUVqqka4AGSAQAAAABAnxBkB4CR5MQhrd5pS6NMVd1mAu19ZQPsW2yZmNYDWr03HwO/Zqu3dnzliqWh2vMcQwAAAAAArjaC7AAw0jS9rNUbbUa7kXZQUETpaD2g2ucGY7DTeD214+OHHQAAAAAAAFcZNdlDqMkOAAAAAAAAAOgLMtkBAAAAAAAAAMgRQXYAAAAAAAAAAHJEkH0EseVwAAAAAAAAAAD5Q5AdAAAAAAAAAIAcEWQHAAAAAAAAACBHBNkBAAAAAAAAAMgRQXYAAAAAAAAAAHJEkB0AAAAAAAAAgBwRZAeAfCqfr22bF2mhmwUAAAAAACNHrGaZtq2a7uYwUoy6487ZV9x0RlOmxNTe3ubmhh+2D8Na8RrdOK3SzfS69MmjOtflZq4mG5zeVKEyN9ujs0Xr1h/SNXHmVi3SthVTVdZ5XPXPv6yDJ9xyIGcx3b35aVWWNuvV5Vt1xC0dcqrW6O9WJL++fLLzUf2qyc0AGGJ4fQFyVlyobd8dm/y+9YsLWrfn/LXxvhVIif8P16Th8Hk6nWts+2yQfcviIqn1gGqfO+qWYrgjkx0YIQpGJ/07Mpr15VAIsA8H9p++DbDruOrXpwqwF2jZ0glq+FtzWVpo3r46t37DX2Yua291y0YU9ktqk1VUaq46T2koP1VLyqJfXz4mAJYDng/5xf5MjdeXkYfnw7UrdOziLuO1bek3tOzWAne/geDaDp8zwwLPh9T4/4BslGjZ5jo17Eq8LPN+2b2sqsTdbyhxfd48f8Bfz9r27ta6/d3SnPu0rWYo7gsMBILswAhx+dQafXb4UXfZoPOXzMJLp3TZv/nqO3FIq5fXq7bncsC8RbpWmH/WP7Dfqndr38aXddAtTeuLyxHftn+lT8+6yZGK/RKvfJKK7PXpUzrjLRiazuxdo58uf9RdNqi50ywc4h/Mrgk8H/KL/RmP15eRjedD/3Sd1+r/8rlqey5/vErvW69T2Q3Xa8m3i4ZhEHwQ8XyIx/+Ha9OQ+TxdpLLSqVqyYml+g9nXYLzABtrrW6WyxfdrWblbiGGNIDswIk3WdaPN1cUhFGS/hsVq7teSUqlj/6vaTYmYa06sZpHWrhr4bIZclMyb633I+eTtN/wF1wSX/TTEP5jlaiifLxh6eH3JN15fMNJ9qfpwcP8X3ap/50t12JtuGKstBNqvGfx/yLfh/f9haDuu+nDwe+Me1e8/7r8ulVZoyyBkjQ9lB5+zXwYUackP+P8+EhBkB0ai4nmyMfZL3dfSG6eharpqbK21zhZt35vpLd1lnfrCTYad/cp/EzIUFRdqrfsp7bZ5A/VT5Ku7X6aUTVXlnCJNcfNDSXGZ91tddX/qz18TquZpmrm6tj6YZW/gz5dr8HUiV7y+XFW8vgw9vL6gz7ou6+Bbf9TqX1zwj+ENY1WT9xIn1+mmG9zkYOH/w1XF/wf0y4kzOrj3Za3e2OI/l0orVFPl3TIEjNdN9vQeVEe115aN6et+KJ+vta4cD+Vmrh0MfBrC9g0vBWMXaHRZta4vKlXw1uxy94s6d6zBvKVKYWzMrPNDFYbW0aVmne/4hf7UFbXvYvr6rKdVeHGHPjtm/6Gb9Sd9V4VllaE2d5g234hss6C41tx3rkaPDl7pO839D5v2GnTpglsUpc/9jFcwaat58ySd/90a/SldOyEFxWs0zm6Xjc57OnWpo1HnT0VvW/9N19pd96myDwOZxKrmq+ahClX2/OPsVkdrs7Y/dzTt+rGqRXr8oany3k+m0LF/j1ZHBdHNug0rpqa+PcHCv5mguph5vHe6tfott+d6Bs+y2Ul/zK7cTEa2zmSRlpgPRc2/+VzP/N4t7hHc/pX2/eKsdqf4XWXQX1/6+/bH4O2XZAtX1alujs3AyLLUT9ZSDRoV04yqyeb6pI40hc/MBXpw10pNa92hnz7nv57Er2/Wq/muvrW40ssusrrNfV8x90115pVUrdEDD5n795zbnfpkf6Pe2pt6HSvX9aySmq2qXWzOu41r9Gbef9lh6ygu9X450ryzXs8k1dwMbrelm3YPyC9LBu586XU1nw/ZCPoX/doSCF5jUveX15f+4PUl368v/rFK9doSCF5jBuY1gNeXBMXXa1lloebGrjN983V88aUOt17Q7t+7vvdwrzkKBh4tMNv6DVWH1227oO2/Tj0oaezWb+jxOderLE1AOW6/xblea//2G6rsy8CnKbav8b+ZY5D0Wpj5NTU2b7y2zL5OKQdf7cv+NPtiW4Z90aPtj6r99ZduJqRPxy8e/x/6g/8P+X//GVI+XcuqKzV3TlHved15XId/eVi7mxJ76f5nKPg8W2KO+/2qDq/b2mI+q6b+rNuvz6k5fJ5OtX2Nz5vzNGm/Zv6f2DP4Z6o+9Km9RFlun9mH2zLswx6pBint03GPEAza2odBUIP3Jb6B+2yD/CKTHcNQTKNv2arib66MD0IbBUWPqHjuVn19rFsQYoPIxd98WuMS1tHoShVOe1rFk3re6fUaO1/Xj5YuXzxppmvNY5v1QwF2q6BopcZFrWvbm/ZIKMBumbZNH8d9c6vGFUesY+TUzwQFY2ybHbqcVYB9gcbN+rnpazjAbpVqdNlKFc+qje/HVWH/wddpy4pwgN0y/wTn3Kctu5alrIG2cJX5x28HLM3mn26Ehd+aav526/BbWfxzNdq/+Mq77uwOfbjoumzeQhrmtnZvQT5c1u49fn3Qym+P17Jif2kgNu8bXgC+450/DsiHlr4avP0yBFR9V/evWKn7H5pvztxeJTXVCRk4oUGnymv1vV1P6/7QBxyraM5KPVAT9Zw3H5g2/1y1K8IfVKxSTVu8UrWba+Pa7pXrer387KcOnR2QN4FntHu9X3+xckXy83q4lG4a6s+Hg81+xmTlnDRlCYqv11wbnGn78qoH7Hh94fUlGwcb/Yy7SrPvUp7X5bdoru1C68dX/bzO1bXxfCjQsr8Zr4bvmvcqoQCtFdQfTzkg5Q3XaYp5/Vm7tEh1ievGUpdTWWja2/LtLIPKeWAD4qm2r+67uWVvt30clI0x+8BbEshtf+a+L/px/AYZ/x/4/5A983nTfG5s2HSfloQCrVZQf3xtqizl0iJNKZ+utZuXqi5x3Tmpy6n093NqX9mAeKrtq9uUWzZ121tB2ZjkX20MRHup5L4P+3Hcw04c02H7wjLnZi30l2CYIsiOYcbPLLcBaPPOQJc+2aCu0GCf5zqaddn8sy68OSEw7AW8/eC4zTwPr9Nl1rEKyn6YHJwfM8l/nPE/VPE3H1HBpWad+92G3va6vXupYIzNGggz/SyrNNd+H8MDknZ94vdx9LSI9nLtZ5wFut6+S+p+S3bs0/QWaNzclRo92matm/Z+F7RnLr/b4Q+eOvoRFSYEcAdbEFizwe7mnXtC9eAOaJ/3LrlISzYtSv6HVrXIe6PjfTMcWm/dTvfTtlB9uejsgBJNmmivv9CpLN/QtYXfxPf4Sp9G/Vy1377UM7+xmUXXaclfhz5UFhfqcZfptD0yG6uXDaY1u74NZEB+cPfL1RTT3Q/Z536imG6tMCdx54t6K8igdINOdWuuHtj0iIo6m/Xqxt7BnV5t9e9WVJb4+mI+qNiMpFKb/bNDDT3rmMvGHf6gUKWPaF7SG8Jc1wtboJttxkXrW6HMqXw7qmd2HjfX5nkdrm1YPl+PZ126aWgb8s+HrvNqtOlCacoSLKy0WYBfaV9zRHajw+tLvvH60i8nDqnRbnean3MvrHaDnDdml4U2FF0Tz4dbx3rBWZv1XP+L7tDgorb+uB8Urfz2N1IEKmyQ+huqtL/U+03vuuu890NG1OvWrd/wAvJ2P8Sv40qweBnN/rLoLPY+Mu15GeemvWbz2rfOPXbQT9tm2exvJCVIZNT1pQ57x7FAk8Lr5rI/f//H0P3coK42Q75nWeiSmMXer+Pn4/9DvvH/od+q5npBVpu9XL8x9Hlzua0/7n/or1wR8XnTY4PG96nS/tIy7jOnfT9rRP3f6ffn1D4y7XkZ56a95v0HtM49dtBP73Upl8E7g+CybtCk8LoD1V6Uppd7HrtnsFSb/R5qs+eSmGXer+MedkZvttj7J+yHNOyX/975bzD227WDIDuGlYJJP1ShV2z8RXUdXqNzXW2hUiZtunRqq7p+t0PnPg6XjFmgcdP8Nx2XPnlUXXGlXcz6dp0O77+7ri+K/465YLT/XWaBzUbv2KDP3t+qSxeCHyqZ9jpeDD1WhEuHdT6uvItpr8u0ZwP0SaVccu9nnLH+FwNe9n0Go29ZqdHm35DtyzlbFibcnwtv6E8f+9tXMDpNewMtCKzZNyAbd+uZ8M+1ThzV7vV7XKB9qqoTvg2PuRSd5p27437m1dZ0SKu9Nz1TdVfaN3Supltndx8zXcyb97NuMuyLy+ZI5pn5kFTvgmGPe1lRBVr21y749d+y+Dlz13k9s8f/cJSXD5ZpDcZ+sT8r9GvbBRf/Z3jmzW/C8qyyEvrKnK/eh4hWc1KWTlLPZ2BvuTmLWw71/Bw2GHSqqNTcsH+Dfrp+q470vLlq05HGF81Zn2zGKvNBxTxvX924Rr+yP68NvyE78YbefN5fr6gs/nmb63pxgg9mHZlfX/rFvFm2I/XbDyWPe8/rEi37gQt+PZ/lz2GzcjXPl0F8nchBTzb71Ov9BXGu1132NPniS72ZLjDC60t+8frSbz3Z7N+a7i+IM1132eNpPmjnpxQBry8pmfcu635hXhf22LIp4dcGW3/8rP++JjGQHGaDu//lbFxJkrbg/ZBRWuSlyPSIufnm3ySuc16rveC8eU3LW+a1eR82x3/dtO0989aXcfvc9tNv8zrNvTm+n9m7TjeNd5NWf/dnX+WjPf4/5Bf/H/rPvPdct7Feq9fbMiahz5tmzx3cu9t/X5ougGqDtMsTP3O697NGaVm+P6f2hXkf/ZD9dbbf3jN740ut2n76bRZp7rxcs8uLdNNNbnJQ2suT/h73JOH9kMGJQ3pmvR/Uz8sXKRgUBNkxjCxQofc7oGadez9N3fULb8TVOy+YVO0NAnq5Y4POpQgG2Drp9vESM9L9sis26L1BXadSvw1LDmi3mWXmavQjGnfLAhUkZZ63JdVk708/47js+8uXMr1tdBnvqtS4b/5cN86NuNjsfe++V9FN7mdbrc0pvt09o92/9LMEyipu6c16zVLiG55+Mx88au0Hv7hjaEu7mA8SUfUs8+Dgr/0MJJsVtfZv/DIx3gfJAcoKyslV2C9Xw4xqmxF0WB/7KSg9vOUyH37e6n1e+j97lT7Z+aj+cW/q52v8BwqXyWOet/dv+rn+blfExWYlefcNy3W9BDcFH3Iyvb70nz9Sv5/lsnaV/2sW74NIXoJfV9m18HwIMiZjhcnZlrdeb84kqaMtPnh01fD6wutLtnp+zl2ZnD1XdbN/XrccGxrnda6ukedDW9C/4gItvLXQvH8Zr21Lx3sDYfq1uhMCyT1sEkF0He2gNEguEgPzOQtKaX1xQXtTjWnx+y/9/2+x6/v8vjWV3Pdnbga7vZzx/4H/D33QFrzHLC/Rwqr55v3nMm3bvCz0pUmqAKpNAomuWd7eEfWVRXby9jk1KIXW2aK9qcYkafrYf13K4fN0ksFur59yP+7x2jqG3U9kEIEgO4YPl6GdXRmUXn6gvFNfdvf1n3LMrGuvm/VlisFGC4rmpgxoXzpmy8l0ejXbi70g9laNm7QgZdA6937GG11kPyLaPvvzKRXP84L6Q13wLX9HR1QKivNpt/+zuoRacME/Ou8nXuEP07Zm3gr/2/XOjuHwrfGXeuYXNuv0OlXan0O3/THNYIXD3VE90/MzP//iZyD0/uQyuKQe+C5X/gcJmy0U//RzHzBaG0PZkTGN90oRNevjFP0IMo3iPlBUzZOtq9lnua6XYMa3/NeXVH3OL3MsN9qs0yJV2p/Tth4YgGN2Nc+Xoe6ydrfaAERitmWQpfmlGgc8+3Co4fUl0jX1+hJ8MZ+YPRdk3R1XY96yyXh9SSdmA7NLJ6jhu0Wq+/ZY7/1L2Q22xEr+BSVDvBIm4S8NbW33b/tZ53E1u/tjvKtRfsNYbflbs32Rl294X+jkLjkzezD3pzXY7Q19/H+IdI29/4zZAOvmOjVsWqo6OxaYef9ZZj5fDoRB/ZwaJK2VVmhL6FcV8Zf7+vm61K1PP3WTg9Je/gzmcce1jyA7ho8gQzuLMii9gkB5hkFAIx97sq7zStOcUqq33UFg/CubtZ6kTZeOrdFnv9vQUyveG0jUC7Ynfl/bn36GucdJ0+dAUArHlqbprRkffUmXxT+k9fxEb6o3uErPP3VbM88ubj2Q+tv1a0zs5uv9NzPWDQXmTMDAa9PZ027S8AeWatbbe9t0piOUSuQ+YPQOOGVN9gd+soNO+QuS+JlGneoO3rAaJWX+UbbZRz31LFNcwtlJua4Xz30wS9PnfIvNm9p7Xk8cz3k92H5/QfvMZ8Cy2WN7a1EOoQFPhzdeXwZM02GvzFzZ4rm95/UwGPD0mmJrltvArJfx/aVXt9zW9l7n6nsHZV/y5vdBKRl/0NGeYLet7W4Xt/0xddb5UBK8/pp3+afCT5TB3p+D3R4S8P9hQNga4jbA6m3+ca+OuK3Rvc7V6fY/U+bRcPmcGvz/7MMYZkNKHo97kByI4Y0gO5BRMEipecsazkgPMr0vpgpYZxkYv+BqxduA9e926NIlG2zPNHhplBT9jOO+GEjZ52RXtd56H5SVpfnNafBteWTtdP8nevG/nnQDsDwXXx8u2Vl9an9WHjFa+pASDLBlPiR6A0711GfH4HEDS8UNyFSm8eVuIKrwgFOWqy2p06d6amTGCzKNOnQ24g1r2rqVaeS6ns99MEvZ5zwLBkwyHzK8gYd66rNj8FzWm222/EJvvWL/C730A54i33h9ya9gcLLeerf+F3rd1/SAp9eOIHvcDUK6549e3XJb27strr53vvmlZOLfD7qBSX+dx9JXZ7/y2zDvyWzAOe1lTxZj54T0JFTEfcmZx/15w3VZvN+9WscP0fj/kB9B9rgbhHT9y14dcVujuy2uTne+9edzah8Ev/o276mDX1SkvKzv29hHPQkx4S+pB7C9rGX1+X0gjnsoox/DEkF2DB8ucFxQ9t3UZU7GJpZjcbXRVanrUwy+Ex5M9Xzo6/GeTO/u8Lf/Yaky3Rf4ddjdXJwLb3hZ7eZVX9d5AfpA7v2M474YyCbb//Il/995wfj50X01CopjKW/rUe5+XrWrTttyCYBl+AfY9pY/+nhk/VRP78AqSXVUq+yo7dI+O5hJ3D/05AFYop3RKS9TpC+DnQy24MPOl6o3HxIPvvVHl3lapLXZDOJV7H7u+7cTtI3AfO6qvqvK0k41Nya8XtyUPOCUFfwUNz67KCw60yjIUCqqmG/O/GglVbGk23JdL47LiMpp0Kk+v04Eb3qPq958yDi491WXebp0YAYMu+aY533wvP0bv9TBQGl767zsf63KOYXmo3eB7rYlqTINeBrg9SU/eH1JL4f3IW17m/3z+qH55rwu0d0VZo/lbcDTa90gvb7Y15HQIKS9CjTJTeXNrd/w6oTvs4N1xgW6kwcmzShTIDrdeBb9YV5PH7cJFUbz8YgvOfOyP/swOGp/2+P/Q37w/yG9vv5/sP8HQoOQ9irJ/+tSvz+nhmQKKKcbj6Q/zP593CbEGM1vh76kznd7OSW89eHze16Ou3sv0aeMfvN5Jzg/V013yzDUEWTH8HHhkL70irFXatysNRo9NvSNuJkefctW3fjNlUmlWC51249R0uhpWzWuOLzOAn3drBP8JO78x/GDqaYvBWMEAe2zh+LXswOY2jrss/z24t42mjbHuWz0RLn2M4oNnI8OMuXtvgk/XqDL1bYf/Yjpa23v/Y2CoM1pT6sww5vthdXu51WGHaAw+3+kLktcU1VdM918yHXKp8fXpTtxSI3ez7SKtGTTMq2tCr1BMvddtnmpNyBiVB1V/ydbRbqpH6OWH3x7iIx8nsLCv/F/6tz8m2AQsMva/d9sfXbzTLG1R71lqS2sdD/3NezAqXn9QDhEtHccV3Nr1K8c8udmWyuy87B+n/Cmquhb9sOM/xPesKif4sYJPlAkfDhS01v6xF6XPqLazbWaEXqulJQv0N2rtqp2xdOalxiIznW9CPaDUs/65THNMB+OMunr68TCVf5PZZt3BoNIndHu5219dnNe29qV3rKBMRjnS3/F5hX2Pm/zHchJ8qX2er+QuV53z/NLFWQ74CmvL/nB60t6ub0POaq93i9kpuruGv+n7oMx4CmvLyHer+7CA38WKHbrN7RtqXm/l/mw90nMG9T0Ot0UN75EX32lT70SyterOtzv4uvj67zb92FuPIsl3x2vtfa+cbcXaOE8s51/m/k9mscOLGrv/92xLos9xbg7/dqfX+q33slv+vzXhQl16+3AphH7rZ/Hj/8P+cH/h/T6/P/B+9Vk6HOpShSrWqRt9vOmrW+fR/n4nJr152n7PtqNR+J9nrb3jbu9RAtrzHbuyvI9th0g1N5/U4XLYk8cNylf7WW7fWFH9dsgdvCD+Qn17u3AphH7Ox/HPYeyc7Gayt7zM99fgGDAjLrjztlX3HRGU6bE1N4+0G8vrx62bxgYW6vibz4SH7gOudz9os4dSw5Cj77l5xrnf8kaoVPnf7dGf4or+RLT12c9rcLRzTp3eGvkQKsFk/zAt61pfi4hoy+4LaXuHeo69kYe+plogcbNXZmc6X/pRXW9HxGcL16jG6fZUFa0y6af5yL6GbZwVTDqttWtfRt3a3eW397Gapb55SAS2Z+WPRf+yXZJKJgeJUW75fN7//mn0NF5XId/eVi7I7+9tqZrrR2YpbNF6wbq52y5Mh9mGmwWu/1J8q/js5pi88b3lJBJvC1s4d9M8LK7fF9p3y/Oanc2GarwzFj1c93vzn9bb/JXwRvMqjX6uxXuudW6Qz99LpwxFNPdm582b6qa9eryraGf9/YqqTEfOhaXxj9mIPzYEbpNe6+Y9pLO6FzX67FAD+5a6X34itP5ohrWN6RZr4+vE+ZNbYPNYk96HQi9ZkTcNpL0PL+djne6tXpAByG9Xmt7Bur7UvX/JfhSLz1eX/qH1xcj368vcdz/d2/aDk4YfKk3sg3G60tiG3G+MK8x5s1W3ezr1fybz0MB5QItswHcG1K/lgSPm9Tn4sLeIHUKHabdw60XtDsyO9uXst/p3oelYtrb99/+GNqOYPvcbISOtgva/uvkEjO57c8EafdR/Ot+Ptrj/0P/8P/ByPP/h5SfSy3zebG+xZzXi6eqeWd48NrgM2rqxw4et2P/Hq0OJ4Tl5XNqmn6nex+dimlv3/Mvh7Yj02dw08fWFm1/Lvozct/bS9aX7euRdt/G/79P28eUxz1Z8DiZ7heW2HbSOYIhiUx2DC8XGtR1eIPOdXfGB34vNev8JxvUFRFgty4de1RdnzTrcjhafqlTlzp2mMeLClz3b9DTy6fsgKc7dD6hn5dtm14/owPXfe9nojd07ncv6lJo/ct233TEZ9v36Nrq6sR7XxH38L6s+J3pS4YAu3WwsUXNbvWO/a9m+cHW17Z3t9btd+VgAvaf7dtn3UzgjHavr9e6nb1t+brNP/YDWrc8xRumE8fU2OrXukulrHSqlqxIV4IiyHYbYvWg7YehUJmYRG1vnfUHnop9I+3PcA82X1CzP7i9+VAa/rCHvmnWxyneUCX/JDf6p7hhaTONmrbqpxt36JPO+Odtd+uLenXjo/rHVB9Ucl2vxxv61cYXzfpu1ujubFbzLxOynSJk/Tph3xSHysQksq8Z3gBEc+7LrTzVMOGVcHHP28ERZDkafRjwlNeXfOH1JZ3c34cE2W4GA572GIzXF/seZd1vvlRHuB0bdHY1vg+mf+vWd11fqtEbXyK1shuu15Jvpy+15/X7HdNvN++x/T6e/Nj2vrW/+KP2mXbj7+/qwJvtzO410axvA9e/6NbqiAC7lZf92XVeq01/m03/wmzb+35zIe75kY/2+P+QL/x/SKcv/x+8z6U7zefScDft51JXq/tg3BM5D/LyOdX1O6vP0/59azce0D7Tbvz9XR14s53Z/Q8169sA9MY9Wp0iwG7lo72+bF+PE4e02rTbbNoJs33et/Nw/OtZXo77dNXYYHlnS58Gq/VK18U/LXANIJM9hO0DRhL3zbvSZaCXaOGqpV6GQ/pvjjNnKQDAoHO/Zhn4TPYg65BsQwwvfpYj/9sjDeLry8ByGeK6oHUpBxotMK9xRV5m9bW/vQCGvnx+TsXV1u/3Eu5XvBznawOZ7ABGJlcXLX2N1TNq78gmvSeoB23ryg1sPWgAyJZfZ/grHf54gANCxYWqtj/r/yLLAU+Ba0H5fFXbMgKdDHgaZdBeXwZacTZjSVxWe0IGNwAMmLx+TsXVZEu++F+E9O0X/WF+ff5uHX6LAPu1gCA7gBHNDnJjB0vtKfvoxOygqauCOmjJg6YmsT87sz8l01TVbSbQDuAqKy7U47Ymbtv5Ac0sj93aW6e3uTVVFihwbYlV9dZrtSUHOK8TDNLry2Cyg2uuvbUg+f1g8fVa9jdBjfEv1UgWO4BBkrfPqbgqemqqtx7IPQO9fL4e9x6jmV/UXSMoFxPC9gEjS/xgNynYmmsZBlyJY2tG/6BIjWadg/wjBDDoChSbN1aPz75eZbZOr61/627Jm4gB8Dra/qjVaQZRBoa8iIHQ7Lguq0fwIMrJBuH15SqIH2QzBVtTPG4gUgAYOAPyORWDygbZHy9rzvF9RIlZf64eXzxVZeY419v67+4WDG0E2UPYPmDksdlqNQ9NVWlpUfwHa/PPzI7W/mbTGTLYAFxDrtfav/2GStv+qO2/Tlf+oB9cLWaPHaSv9Y965vdkd+Ia52qeeuyga798Vc+Y9wAIG4TXl6vE/iqnZs71Kr3huvj3g198qcOtF/SmeY3j/SCAwcTn1JFsutbuuk+lrQe0/bmjHOdrCEH2ELYPAAAAAAAAANAX1GQHAAAAAAAAACBHBNkBAAAAAAAAAMgRQfYRhFIxAAAAAAAAAJBfBNkBAAAAAAAAAMgRQXYAAAAAAAAAAHJEkB0AAAAAAAAAgBwRZAcAAAAAAAAAIEcE2QEAAAAAAAAAyNGoO+6cfcVNZzRlSkzt7W1ubvgZ7ttnLVxVp7o5bkbd6uj8Qo3Pv6yDJ9wiAAAAAAAAAEDWyGQf0YpUVjpVdZsWaaFbAgAAAAAAAADIHkH2Eebgc/WqXe4uGw9oX6ddeoMmlXs3AwAAAAAAAAD6gCD7SHbiqN5s6XYzAAAAAAAAAIC+Isg+wrV1fOGmAAAAAAAAAAB9RZB9hIuV3eCmAAAAAAAAAAB9RZAdxhc6dcJNAgAAAAAAAACyRpAdAAAAAAAAAIAcEWSHMVV1m+drYbmbBQAAAAAAAABk5bobJ078sZvOaNy4G3Tu3PAdKHO4b1+ULz44rT+Ul2nSrdN077fn6t9Wz9Vf/cVxvfLBBXcPAAAAAAAAAEAqZLLDU+auAQAAAAAAAADZI8g+0lXNVd2cIqnzuOo37lHt8nqt3nvG3QgAAAAAAAAASIcg+wgXK7vB/O3Wvudf1sETBNcBAAAAAAAAoC8IssP4QqdOuEkAAAAAAAAAQNYIssO4QZPK3SQAAAAAAAAAIGsE2QEAAAAAAAAAyBFB9hGureMLNwUAAAAAAAAA6CuC7COcP/ApAAAAAAAAACAXBNlHsvLpqllc5GYAAAAAAAAAAH1FkH2EWbiqTg273GXTfaq0CzuP680T3s0AAAAAAAAAgD4gyD6idaujtUX1zx9Sm1sCAAAAAAAAAMjeqDvunH3FTWc0ZUpM7e3DNxw73LcPAAAAAAAAAJBfZLIDAAAAAAAAAJAjguwAAAAAAAAAAOSIIDsAAAAAAAAAADkiyA4AAAAAAAAAQI4IsgMAAAAAAAAAkCOC7AAAAAAAAAAA5IggOwAAAAAAAAAAOSLIDgAAAAAAAABAjgiyAwAAAAAAAACQI4LsAAAAAAAAAADkiCA7AAAAAAAAAAA5IsgOAAAAAAAAAECOCLIDAAAAAAAAAJAjguwAAAAAAAAAAOSIIDsAAAAAAAAAADkiyA4AAAAAAAAAQI4IsgMAAAAAAAAAkCOC7AAAAAAAAAAA5IggOwAAAAAAAAAAOSLIDgAAAAAAAABAjgiyAwAAAAAAAACQI4LsAAAAAAAAAADkiCA7AAAAAAAAAAA5IsgOAAAAAAAAAECOCLIDAAAAAAAAAJAjguwAAAAAAAAAAOSIIDsAAAAAAAAAADkiyA4AAAAAAAAAQI4IsgMAAAAAAAAAkCOC7AAAAAAAAAAA5IggOwAAAAAAAAAAOSLIDgAAAAAAAABAjgiyAwAAAAAAAACQI4LsAAAAAAAAAADkiCA7AAAAAAAAAAA5IsgOAAAAAAAAAECOCLIDAAAAAAAAAJAjguwAAAAAAAAAAOSIIDsAAAAAAAAAADkiyA4AAAAAAAAAQI4Iso8oE/VExY/0blWdnih0i3ANyfH4Fd6rfVV2vYRLxb2a6e4yuDgPAQAAAAAAMHwQZAesCUuTg9ARl31TJroVMLyUaNnmOjVsnq+YWwIAAAAAAABkgyA7MNydf01Lmn6iO3sujXrd3QQAAAAAAACgfwiyA2EXm1QbF5COvyxpP+3uCAAAAAAAAAAE2QEMVeXztdaWcNlVp201JW7hQBmvm0rdJAAAAAAAANAHo+64c/YVN53RlCkxtbe3ubnhZ7hvnz/g5Ao9NqZLL7xTr2fPT9TDt31H3y8u7qlD3dbVpHUfvaYP3XyimRPu1crJVbpnjFugLrPOG2ad95PWmTmlTg2Ti/X60Z/o8c/dwiRBn47oyaY9eskt7VE4S09MXqBvh/t48Yh+dsTc97xbkMBvV24bzYKox+hqjO+zrck+fYafyd6Sevvjub4rWKfv+zPV9v3m5EE9+3li1nz88XtFs7RyxgJzLIr9my926fWT/2T2daZs+1naXlWte/qyrTkcB9vfmRMWasvkGYq588Xuj5+dfE2a/CM9VRych/5tiRauqlPdHDejbu3buFu7T7jZfKhapG0PTVVZNsH11gOqfe6om/HFapZpy2L19qt8upZVV2runCKV+XdRh1lvu1nPe1Upn69tmypU1tmidesP+cvi2LrwS7WkNM22RrXReVyNz7+sg/ncNwAAAAAAAMgamewj1dhZ2l6xQk+FgqZWrLhKDRX3aqab72UDvD9Sw/RwgN0y6xdXq6GqTk8UukXOh10feYHEeyZHPZ4zYaEeM4/XdvJgUoDdBsvfnV2txxL7OGaGnpqd3SCkKR/DXLILpGdhTIluKcxhf96Wevsem75C2ye4BRGmTa5Tg1m3J8Bumel7zHrv3jbLLciP3I6D/4VAw/TeALtl98dTs+v0/bFuwVWWVYA9Czbg3rDpPi0JBb8tO52vr+1StlE6VXWbBiPbHwAAAAAAAFHIZA8ZOZnsblZdeuHoP/VkTM+csNQLilqJ2edBVrpd53WzTk+2tM1wnlHtHjMxGz0+8zoqY/nh21JkNAeZ5ba9k29oR3tv1rnt5xYbvLX9j3jcoK+vdx3RPcU2O93068hBvXQ+yPCeqJmFp/VhZHupJWfk574/g/b8bPD4vj085Tt6ytvXqfanPxdkhfuZ5OH1ovoa1odM9hyPg39c7VT8+TLTnC8rzfnif1GT+rzw2HIxP6hQZanUsX+PVu89424YCNO1dtd9qkyZZZ7Mz2QvUnPrcVXOmSp1Hlf984d18ETQzxLFys+oLcgw708me9UiNawwbahbzfubtXevy443Yua2x81tZQOR7Q8AAAAAAICMyGQfqWzguak+riTJh5/v0ZNd/nT5mFB2cuG92uIC7DYoGleO5Pz7erZlp164aGdm6PtxWc2n9ezJI+a6WI9NjsiuNo/7ffuwFz/SK3GB1ol6YnIQnDbthQK7lu3nkqP+4367OHU2uw2wt53cqTtbbEmTUJ9Nv+IC7PnQl/1pmdtq3/mJlkT07aX2erdeiW5O+HVAwG7Xko+CALvlr1d70m/wnuJ8ZLPneByC4xpxvnxozpfHe86XDE4c0jPrzTYtrx/gAHv/2AC7/RKgdr0t2RLuZyjA3i8lWvaQDbBLzTt365lQgN1qa3pZq3ceN1NFmjuPbHYAAAAAAIDBRpB9ROrSC7aWtpsLO3bBRYXDxpb4ZUK63kiRdRwE06VYye3xpVE+/1Cv2+vimXrYW9BrZvFt3uO+fjIhm7rwdn3bZjpfbNKOVNnY7nGT2gvratSS9nAAOws2u7vpJ7oz4pI6M7yP+9PpCfQXTtTDE+7V9tvqtK+iTu9WBVngxZoWWValS7/pit6uoESPxk5IvV+yletxyHi+DDOtBwb2S4DyWzTXlrXpbNHeJn9RkqaP1Wyuyipu8fc9AAAAAAAABg1BdmQ0c4yfHdt2IWWUWbpwxg/u2vrk3oLA+9rhZVfP0P1xNcYn6oESG0k+olcTHzYI0o6pUkPVj7ygc/KlWvd4d04tbX+HADuI7PYKsy2zV+gpW+ve1jwP11jvj6TjkIMcj0NW58sw0tFx1k0NkJtcDfbSCm3ZVaeGyMt9qvTuDAAAAAAAgMFGkB0DLnIA1DQDno4IXr12N4jsxSN6/WSjnnxnp2rNxWbNB2VmAAAAAAAAAAxtBNmRtdjYuFT0eEHW88UzOuYtCDn/mn5mg8ZjbtMDrsb4w3ZA0lRlT4Ks+K7GpJItSZdMA3cOSbO03Q0m+sJRv2a8rXdua7N/GFefPQfpjkNf9fM4pD1fhqrSIk1xk0PGp93qsNetB7z69GkvWQ7aCgAAAAAAgPwhyI6Meup8Fy/QE5EDcfYOkNl25oPIoPdLXeEBMmfp/sgBT53zH+g3dmDMlO0NE3b7w4PI9piom91UtFS12jMfhziZSsrkeBx6z5fkOvyewgmaZjP4Mymfr7Wb/XIo22oGa0DPGzSp3E3m24mz6rTXKQL5sZr7tcTWXk904pgO2xXnVGrZQPUNAAAAAAAAOSPIjsyCTHQV67HZddo+wQbKncJZeqJihVf6xdZX/1mqgUY/P6gXLvoDZD48YaZXxztpwNMewUCqrr0pszQzLsg7UQ9PWap9VUujg7jXijFV2mK3zc3a7Zo5wWyX3Z8ZSrPfM/1H2hdeN9vj4Plcn9jguWbo+wmP8XDcfs7xOATBefP4T1WY20LreNs3O3M9fWthdYUqXdC5bPH9AxxgPqrfttrrIi35wXwtDLdVXqKFVfkI8p/Vp16UfarqVk3vHaDUPP6yVcu0ZXGRW5DojHb/8ri5Nn3btExra8y6cfvC9K9mkbbtWqSFbgkAAAAAAAAGz6g77px9xU1nNGVKTO3tw7cYwXDfPi/T2QvEdumFd+r1bEQW+cwpdWqYXKy2kzu1JC5QG6zrZpOkfsxA8Ni+I3qyaU/aeuzx949w8YheOLInqc3U25DGhKV61yvhkoEtnfLR+24m9/2ZdtvMdj15Rnpq8gy9fvQnerxn/NDe9tou2kFS3eI4mY+DlbL9uO3z5XQcCu/VvtlVvYHkMFuD/sIM3VOcvq8LV9Wpbo6bUbf2bdyt3Sfc7EAon69tmyr8QUaTHFf98pd10M1ZsRo/MN6xf49W7zUHLBtVi9SwYqqbiWcfp7Fsqdnm6G0N2kup87j2Pf/ywO4jAAAAAAAAJCGTHVk6rWdbfqLao0163ctSDnSpratRtU2ZA7sftr+h1910NgOeftherzvfadQLXaYNt8xzscsbKLS2JTnAfq2w21Z79IjawvvSBqtdjfaX4vZxgosfaZ13LOLXb+tq0pNZBNgtr/2TZn0377Htd/VE9HvkdBzOv6Ylbp1evfffcSHzyK4HG1vU7GV+2wD0qwMfPD5xSKs3HjBtdrsFvg4bvN55OC7AnrOml7Vu53HzmG7eMo9fv7HeC9S3d8S3Hda2d7dqTf/2tboa7QHT3+b9B7RuPQF2AAAAAACAq4FM9pDhn8kOAAAAAAAAAMgnMtkBAAAAAAAAAMgRQXYAAAAAAAAAAHJEkB0AAAAAAAAAgBwRZAcAAAAAAAAAIEcE2QEAAAAAAAAAyBFBdgAAAAAAAAAAckSQHQAAAAAAAACAHBFkBwAAAAAAAAAgRwTZAQAAAAAAAADIEUF2AAAAAAAAAAByRJAdAAAAAAAAAIAcEWQHAAAAAAAAACBHBNkBAAAAAAAAAMgRQXZg2JioJyp+pHer6vREoVvUL/l+vJFiKO+3Ei2sWaRtm+vUsCu4LNJCdysAAAAAAAD6jiA7Bk7hvdpX9SO9W3GvZrpFiWZOqdO75j77pkx0SzDQZk64V9sr/P0eXPbddq8eJpA+7C1ctVR1i6eqrNQtAAAAAAAAQL8RZAdGjIl64rY6NUyv0j1jit0yX6y4Sk/NrtP2CW4BhqESTXLfZTXv3KPa5fXu8rIO+osBAAAAAACQA4LswIhgS5is0GPFNrjepdeP7lRt0090p3fZqSdPHlGbinVP8Sz/7hi+Olu0t+mMmwEAAAAAAEB/EWQHRoIJC/XYGDtxRE++U6/HPz+tD70brNN6qX2PlryzU3d+9L5bhgFXPl9rXW30bTUlbiEAAAAAAACuNaPuuHP2FTed0ZQpMbW3t7m54We4b1+Yrcu9crItG+IWqEttXW9o3Ufvh4KvAZcFrSbVtrxmbp+oh2/7jr5fXKyYu0dbV5NZ194WYmuyz65S7GKwXjJbk71hcrHaTu7UkvbTbmmvvvQzeKzXj/5Ej3/uFiZx2zLmiJ5s2qOX3NIehbP0xOQF+nZ42y4e0c+OmPuedwsS+O1KL7xTr2ftfaIeo6sxet/m0J7dhpkTFmrL5BmKuf1i9//PTr4mTf6Rniru6u2LJ9hmZdg3iYL1gsfL8riHpdi+35w8qGc/TzzeOZ5nITMnLI3bL1Eiz7VBOQ7xFq6qU90cN6Nu7du4W7tPuNkB4rU5sUXr1h/SyHilAwAAAAAAGHhkso84NpD5I1eX2y3yFCtWXK2Gqjo9kWoAzDEluqVwlrZXrNBToWCkZWt6N6QZ4LTv+t7PD7s+8gKH90xO0w+X0d128mBSgN0bhHV2tVdSJW7bxszQU7OzG5w15WOYS9SXAn1vzw9EN0yPDyQHNdW/P9YtCCu8Xd/27ntEr2YdYE8wtq/H3fTzttTb99j0Fanrv+d4nj3s1ZtPH2CPMmjHYagoLdIUNwkAAAAAAID+I8g+wsyc8h1XNsSvy+3X5DaXdxr1wkW7vFiPzV6qh+1kEht0rNY9NrM5tG7t0SP+zWOqtDIqcGqWN1T9SO9GXGzmeZSc+nn+A/3G3jbmNj2Q4ouCh4tnmL9d+k1XQibzhKWuL6a9k42heuX+9tngfWzyd1J/AWH6M22ye4yLtiRLqM9NO1V7MqEMS47tPXybn5GeuF9qzX55/WJxdIB5bIkfPO76MDlzPytmX0/v43G3X2YUF3vZ4In74smTXd5d7pmex/PM7E8bkLf7JX6dJpexbX+54C+Ly2IfzOOQ4GBji5o7/emO/a8OeBY7AAAAAAAABgZB9pGk8F5tcQFFW8bC1uXucf59Pduy0wWwZ+j7qbK2bdC0qT6u1MeHn+/Rk37cVOVjMmd7Z5RzP0/r2ZM2EFusxyZHDOBpHvf79mEvfqRX4kp4TNQTk23w3ZZTMe21x5d1sdu3xAvwFuvbxam3757iGV4pkjtbbImRcBD/tD7MR3tB/yP2y4dmvzzes1/izRyTh3rffT3u5rbad36iJRH74qX2erdeiW5O9aVFH9sLttHuz/h1XnP7cobuT/oCaHCPQ5ITh/TM+nrVLq/X6r0DPRBpiWI1i1Rty9N0dqvdXwgAAAAAAIA8IMg+kvRkNL+Rok50EKSWYiW3R5Tk6NILtka1mws7dsFFP6PYmuyhDOHwpdZlNcfpTz8//1Cv2+vimUlZ0jOLb/Me9/WTCTW9g3Iqpp87UpVTcY8bvV+crsbkWt9Rcm0v434ZKLkd954vFgon6uEJ92r7bXXaV1Hn/YLhKS9IXaxpkWVVcjzPMkj6IuCaOw45KJ+vbbvs4KpLtWXxVJV1Hte+56nHDgAAAAAAkE8E2UeQINu37UKawtwXzvgBOFsX21sw+PrXz/e1wwvcJ2YuT9QDJTayG1GXPAiapilr825Vte7x7pxa2v6G5dheVvslwocXXZb02AmpvyAYAHbQ2u0VZltmr9BTtra+rXk+xouu512wjV4JmnB2vK3tPt3PVj9xMeELkEE+DkNBh7mc8icBAAAAAACQJwTZMexEDoCaZsDTYe9qfHFia50Hg9ZePOLVO7e12Wtdffag7Eve9JSS8Qcr7QmS29rudnFXY+ps9eHsxCGtXm5L0uxR/f5ulZVOVd0P5vtfLgAAAAAAACAvCLKPQLGxUaOTOkF278UzOuYtuHpy7uf51/QzG3ANDYCacsBTKwhCdzUmlbNJurQklJrJRT/bS7tfogQDwqartZ9XQfZ4lz8Iacser965rc3+YVx99nzzI/fevu3hBjT9KL7eumewj8NVdUYH9+5WfauZLC3SFH8hAAAAAAAA8oAg+wgSZHireIGeiBxwsncgyLYzH/Q/mJyjfPTzpa7wgJWzdL+tUpI04KkTBKFTtpdnObbXu1+S6817Cidoms0cT3Jar5zxA9Cxyd9J3WbhLD0xIY9BeLu/Q4OC9pqom91U3kxY6tV5f8EOthoXIE8e0LTHoB+HBOXztXazrZdep201fgkaAAAAAAAAXHsIso8kQYa3ivXY7DptDwdUbYC1YoVXUsXWLf9ZNgN4DpR89PPzg3rhorwBKx+eMNMrGZI04GmPYCBV196UWZoZF3SdqIenLNW+qqXRQdU+y7G9UEb6UxXxtcdnTjD3D0qjRPiw/Z+8/RHXpneLNbFn/cempwnC99WYKm2JascevzyXZvfrpBdrmvelSrYG/ziELayuUGWpP122+H4tK/enAQAAAAAAcG0Zdceds6+46YymTImpvd3L4RyWhvv2+SaGgtRRuvTCO/V6Ni7jO1gn6jbfzCl1aphcrLaTO7UkCHwX3qt9s6sUu9ik2hRlViLX8+TSz3jBY/uO6MmmPWnrscffP8LFI3rhyJ6kNlNvQ3o5tRfsUzcbx9Y+vzBD9xSn2jeZ9+nrR+v1eE/t8hyPu5F220w/nzwjPTV5hmnvJ3lpL+1+cdpMu785eVDPJmTXD/5x8C1cVae6OW5G3dq3cbd2n3CzA6JEyzYv1RK1aN36Q342PgAAAAAAAPqNTPYR57SebfmJao826XUvGzfQpbauRtU2pQ9cD57+9/PD9jf0upvOZsDTD9vrdec7jXqhy7ThlnkuurreLckB9v7Iqb3zr2mJW6dX7/13XAgvTxTep/Hrt3U16cl3wgH2/rHbVnv0iNrCx84Gq12N9pfijmkenP9AP4vbJ8liY2bosekrtD2hlPrgHwffwcYWNXf60x37Xx3gADsAAAAAAAAGCpnsISMjkx0YblwGvFL/YsLe5+HbVnh12/v6i4Phg0x2AAAAAMD/v737jY3izvc9/4nCCu5klGDwKGmT4CYZyLlXVwTjQMh6sJSzMBGQDdbmGtmJro6vVoyClQkSCC2guyI8wVwhkJiJDBq0EudBYgtvJIjCoAzMRoKLIJDGo3lwpZAZbDOhO9kY2kEn2SARZetX9at2dXf1v3IbcPv9khxXVXd11a+qyINPf/39AZgMVLIDmNoe+Q966d+Vmqz3K/2tjOryaSG2VO0tTLQKAAAAAABQLYTsAGpC/Kn/zZ0kd3yiVc+/N5Pl/pPfd/0+T+p7X43qwpW0u9S8cYP6jzrXxP1Zo1Z3KwAAAAAAAKKgXUwA7WKAqel//af/020FU1TYBKbTULx9jd5eukANMbtBQ+rtOqWzdg0AAAAAAACVIWQPIGQHpq5//4t/1qan/kmN/26u4nabMfz/fa5P/nFWH3/zVZF2MgAAAAAAAEA0hOwBhOwAAAAAAAAAgErQkx0AAAAAAAAAgIgI2acRU6kPAAAAAAAAAKgeQnYAAAAAAAAAACIiZAcAAAAAAAAAICJCdgAAAAAAAAAAIiJkBwAAAAAAAAAgIkJ2AAAAAAAAAAAiImQHHjSNK3SgZ41a7SowHcTbO3Vg8yK7BgAAAAAAMHUQsqPmzdq0X48fel9zN620Wyrw1Er93Nl/rrO/+Qzvczo0w75cdS1rdGD3UjWY5UZ3CyJq3dyp/qPdBLdTSEPTKvXfl/tVr9Z2599eT7f7zHg/fNEFAAAAAADKQ8iO2vZUhx5ZHHMXZzw+r7Jw3Nl37s5N7v7B/WYsflVz39mqWXa9akwF+8YFatCQenec0tkRu70GmCrlexpaOteyranOXWx4Yo7i7tKDoXWzDXF7VoSfV8uaaRnyDg/0afvJtNS0Sgfa6+3We6N18wZ1r3P+7Xn/qwAAAAAAAKgIITtq2z8u6s7XZiGlH/5yUXfdjeWI6+f/+6tuuH73r4d0c9Pr+tr+3DyacD7rA/3gvbFK6tX5pqlgT+vErlM6a7fWhnq9uLTOuQVpXbdbJt3I33Q5ZRbSSlz5m4bdjQ+Ces17wi7G6jTfLo5znoNXFniL9/J6PSBM0N47KDWsW63Oe/aXHOP3JHHkmDq6eu1Prf07BAAAAAAAk4WQHTVuWP/2jgnHt+rb4xVErU+t0MzHnd8mYD90Liucv/vp/so+qwzx9tVaH5OSJ0+rr4Yq2D1z9KSpEP7q1j0Mu0fVt8MEpX3aNzBqtz0IvGuRTKXtejbvOUg7rzsr9/R6PTjOHjyjhOq0/s0Clf6TJXVFA+cfpGcFAAAAAABMFYTsQIgZzcvcKvYfrpzzNkyqRWpfZyq9r+h3D1QgXCUtz6jZ+ZX47Kq3Pp01zpH5viF1ZUhJzda8rGpt7zlIDo7JvCmZvGW3TzdXNWDaxsSWqr3FbgIAAAAAAHiAPbT4uSU/2eWS5s+P6/r12q2tZHw14IWterzLRLo5vv5QN9/pL9IuZqUee6dNsx43EWgxCX27aX91W8WYHtwbFyh58pi2VBCyxxsX6cW2Zi1rqvMmSnUkB6/odwcvFq6AbqxXa9tqt1+5v49SQzrx0WX1hVbx1quzZ4PWf3VGHQdNSG4miFymNtO/2nuDc8wzzjGvBo65SNt6mtUc83qiFzek3tC2HM5xNmefpxnb8eMXdfZJc71m68SuvvGqf3sN86SuaPuOItcj0vjGxVtWqP2VBYGxpp33D3nnGfYXCfY8EyevKLZuqVJHerXvvPeS6Vu/d92Yeo9I3eY9gdcyKr1/ps+/mUjXGYM3vlx2/LHw+1Dx+ALizljfdvYd73Oedsad0MBA+LXMUvK8q8v0ye9+otSzAgAAAAAAEI5KdtSUGbFM9Jjlbql+7E/N04ySAfvkaH3ehMNpXb5UbsBuAuhO7d29SuuDYaujoWmp9h7tDO1nbULPA7s3qDtnH8UWaP3GDeGTTTb+Usv8qmoTfB61E0Tal42GplV6O7ivqdYuK2B3hPUd948TMrbu3Z3a5l6vMd0IhLzxhtl2KVuyVD/2KOPzOddz78alOV8mOOfsn2dL/j7eeab15aVbMh1hYg3+e2wV+8nLkju+IX2aE7BHun9Peu8tXBVvW/mE3YcI4/OYL1m6nX2DAbtRp+Z1q7S30ISvQX5P/aZn7t3kr84483vkAwAAAAAAlEYlewDjq0G2sv2Ho6/r20/ttpJW6rFDmzSrZPV7NRSvJM7nv98sp5U4ctrtI+3d1UAVdm4Fd8t4pXd2ZXa94s4+e519zOdlVYcbdj+3h3iszvlc5zwPX9bZEfOFgAn7TejrLBasOF6kbUdXqblkRbnPvt8sOvv0Hh6vmHYro01wa1ZKfZ4979Bq8KDI4/Pvg3cP9mWqyJ3r2bLMnmfu9Qze68ua5ywvu+L99YJbSd00vn29qnP/vOr4usLXoWDFeJTxGf79s1Xrl5zz9F9vXKTON1e5z27J++Lwzl0hx6i+8evPZKcAAAAAAKByVLKjpnmV7Sn9mPTWy2Kq2s3vr29McsBuFKkkDuFPkOqGzGZSz0zAbozq7MApbdl1xg2nx7cv0jYb0Jpwc0smoDWc/Z19tpse2KrTsuXZ1cl+hXiDqWY+eUwdO07ZANpwjnf8iopeWtuDvNxJPFs324DdhL47sluSDJ93xnZkyFsp8XmZivEvvfVCJjy+1FDOZJnO9TTn2XVMvXnhcP69bmiY4wbdbU1yq9jPhk4SG/3+zW8wVehFrkOpSveKxuffvyH3tX2mLUzw9ZGr6jvsXc/xCv5S6vTkk3ZxUpgvKda417/cf4MAAAAAAAC5CNlRw+KatSQmfX1ZP/zDbipHgxey301VstO9YCdINSFmsSrukatZ4XS8vdkNrk3P90LVw8OXzEScNvQN8EJaE+4W7xdfMKS1IW5Zk57asNn9AiGrqjpf8c+r14tLnfNODelCTgicK/r4RnXjK+dXbKne3rxI8bz2PKNZ98Blv3DwWtjY/R2tbUudazSk4+b4/nsCx4t+/+o17wnnV5Hr4LUqct6SzB17hPE5z+cL5v5pgbp3d6v/aMiPqZp331vacHLMLk0CtzWQOacN7l8BmL9gOJH1xRQAAAAAAED5CNlRw57Sw487vyqsSJ+11ESaKd1JPGCRm18VPvj3ilpa+NXM5fd899mQ1u0PHr5vfLnXviU/pPX4/eZLVZQb/mcV66NeXoV6WDV4mImN7+zBY+odTLs92/e6oXKntrUvKtxv3H7h4H/W9WRaeqI5UMUefrzI98/2my98Hfzxh1/PisfX8oz3VwhTkPmC4oa3CAAAAAAAUDFCdtSuF5ZrlvPrhyvnvPWyxDXDBPNK6u6DVshechLLMH6Qmj1RaJ7Qzy7dyqZ4O5Iyj22VDpNthXqpz7Nhb+nq+YmOb1RnD/apY9cx9Z40leR2Yk83jM5vh5L7BYFbqe32gb+i39kq+vzjTeD+lXxe/PEXqnSPMj7zVwG96ugq/lPsrwZ8/udNipGL2uKeixlbWg2xBep+s4wJWQEAAAAAAEIQsqNmRerHHrH6Pbpb+jLl/IrVab634T6oV+crIW1D/MrkkpXQhQJgG+JWWHlfWOlQ3Civ2t0x4fFZI6NeL3wT2u46o0TKhNGr1ZnVYiXkC4Iv00oMDunER36bEnu8MtrcZAu/f35IHVaFb8RLjt8qa3zjyu+3Xo4y7uOEmLH1qXfQWbyv/wYBAAAAAMBURsiOmjUjZhLZCivS7+mkp4bfm3u25hUILTO+TLttLRrWLVOrtyVfY247D//zF+iFFndDnuBkqgOBnt+ZyuSCFeElQm+/vU1FCk10WT8+KWqJUNirBi8RjDuij2+Rtpk+5XYty8hV7fvITM6aO46Qzxq5qH0HT6kvc83te7LGF/3+FavCj7d3aq+dTDW/0j3K+MZ7qDcs/WXBivB4S32Z1eJl/tUCAAAAAADAA4CQHTXKb/vSrEfaxmO9GS+s1Kyn7EqIGc3L3JC9shYzE3P2My+0XLa8RAXwyN902VS9m4kle9aotTHwfme5dXOn+nev0ts5rTy8z3euxMZObWsJ7rNInc4+e93JVNN5Ez8Wb5XisJXQxXqou5qa1Rk4btw97oq8LwrcHuWO5o1mbO6iK96yQtt6NqjbnVSzWPsTw68+X6C2wHWItyzK+kwj6vjciUhNn/Ie73pmhcbO2LbZqvIsWZOeFhAy6akR9f556rS+LRCYm/Pr6Xb3SQx61zu30j3S+Izzf1fC/I4tdfZ17m/wHvrnunGD2gt8WZDF7ydftb+CAAAAAAAAmDwPLX5uyU92uaT58+O6fr1onDalMb7aMqNtv+a+bJK6bD8cfV3ffmpXcsza9L4eW5zSd3u26t/uWU/2Rdp2dJWaU1e0fUdYUBrQuEIHdi91e22HSQ5e0e8O5n9G6+buTEidL60Tu/rUl1UxXK/Ong1aHxtSb9ep0KDTrYY2Ye2RXu0LVFCP8z/DrubI389eB7uWJeWcx5XZ6l6nkHPN5p9XruzjTWx8hY6RMXhG2w9eHb8PLWvUv3FBkWtV/HiV3z+HPWY+7/0XlpvjhV/PisfnK3hMT9LZ73dh++Uodi2qzz4LKuPfHwAAAAAAQAgq2VGz7h7/vb79q1v6baX0w8eH9F2BgF2Z6vd7PenpVQ2cTLsVwLlV6HncCRuPqXfQax2TkRrSiSPHtCUkYDfOHuzV9iNDSmZdjrQSJ89oe1dYaF26/3nJSnCNqm/HMZ2wFdO+pAnMd4WFp1e1b9eZ7Pebc3TGtX3HKXsepduHDA+cdq/POG+cwVYqEx3f8ICZENQ71+B9SPrnmxMkl9MnvtjxKr9/jvOnQq+D/37veOHXs9LxZTjH9Pq259zzwSvuPd9SRsBuvmxpNwF/TvsbAAAAAACABxWV7AGMD/ePX1ldoCoZmCa8qv17+e+ASnYAAAAAADAxVLIDD4RR9R2+oqTpob17TeGJTYEaZtrEmLY4yZOn7/0XTbGlag/2vAcAAAAAACgTITvwoDCtYExLEH9iU7sZmA4yfeAHz2jLQPZkrJNrVBeueO1tmjduUP/RbvvDv0EAAAAAAFAeQnbgQXL+lLbsMhXtjkZ3CzBtmIlROw5etWv3julBv/1kTs97AAAAAACAMtGTPYDxAQAAAAAAAAAqQSU7AAAAAAAAAAAREbIDAAAAAAAAABARITtqhmmHAwAAAAAAAAD3EiE7AAAAAAAAAAAREbIDAAAAAAAAABARITsAAAAAAAAAABERsgMAAAAAAAAAEBEhOwAAAAAAAAAAERGyAwAAAAAAAAAQESE7gJr07Ob9euvo+3pj80q7BdNVfbv3LKxtsRumgsYVOnC0W/25Pz0rFLdvwXQ0Q50bfqH+38xR51y7CQAAAABw3z20+LklP9nlkubPj+v69WG7VnsY39RW6+ObykzI2bEuqdNd+/W53TapGjv0xu5XVWeWUx+qf0e/Rt0XprDgmHKkUwld++gDXTj/YD3/ld33lVp7dJOetmsFDR7SuwfP2ZVyxPVizx41x1JK7NqqCyN284POhOy7l6rBrmakrmj7jovi/3RRmIC6TutnO4tj32v7se+867jwUfW/NNMsKfHJN9r3hbv4gPLH8KNOfHBLfTftZlctjA8AAAAApiYq2QFMsrgWLo1JqRvKyoMm08hFXUuZhZSuXbk49QN248l5oQG7URdrVvPGPXqj/UGqca7wvrcsLx2wO9LJf9ilcj3lXB/nV+qyvpgqAbvhPMNbunrVkfk5o4R9CVUwdjfki4of9eUtuzjV1fr4AAAAAOABQ8gOYJLZkPOrG/cw7B7WhR2v692urfrjQG3U/NY3eDXN146YcQV+du3U6ZPuNwqqW/eannWXHgQV3vfz+7PG1W/HlDve9yq9n432y4l7+vwBAAAAAIDphJAdwOSyFcrXPqukxQdyzW1wy7GV/tJbzxgZ1ucDv1fCzaQbNKfR3Xr/TfC+FxxvpexfAFReAY/ac1c3xuxi0K0flbSLU1sVxte4Qtt6vP7/B9rr7UYAAAAAQCn0ZA9gfFPbdOvJXt+4Ugvb2vR0UyzTRiQ9+KE+Plik/3hjXM+2/VbPB/ZRKqFEwX7etp/1V34fbGf/9tf0/LrmwDEPOcc8FzjmSq3tcc4rZkLSUhIF+nU7x9mcfZ5mbJ8d79fnT27VWxsbsvtrt5htzXYloGQ/9ijjy1bvHPvlV5z3Z4ab0rWTx3VpoMg+bq9yZ/T+GJx7ufbNwDVz7snpw851ybQ38fuKF7peZqLX97W6qXDf8SjnaZT/nFXjvvv8/uyl3ucr/LzcXG6udcytiP/jefvihNUr3rJMb78yWw2xzBGVHEzodwevhrTp8MRbVqj9laXOfbQbythn3CJtO7pKzRX0ZI9yvHh7p/Y6z+aJXX3qc5/NRepsa9ayprpMf/jk4Jkyz7kYOx67VkziSK/2Venetf76F+qOO2P4S1pbLt31Ns59RAde+5kzvjvq/cNtnfW2Zokvn6O9S5zr4vdBnztTnc2PaFn84fHrMnxbv/vTnfzrEvbesTs6/mfnWAV7Kc1QfOHP9HbTTDWYHuuO5PD3Op74Tmo2YwjryR59fL7Wzd3qbrIrzvOSeQ4AAAAAAEVRyQ5MOSZQ3K+O3ZvUHAzLHXVNr6rj6H69GFLNbELWN3bv0eqcfVSsn3fjCj0dk1cFbCbePOrsHwigjbqmTXo5uK9pz1FW0OoI69ftHydkbKt379fa500sl9StQPDjt1LJlS7Vjz3K+DJMqPy+OjYGg2sjpqfXbVJHT4cK1YF6VdreGEzg/pZzL7PCabMYDLbseWrwUnjg7Jz78yYYC+07HvU8K3zOJnrfg/wWL4XGG1T0edmq5aYvvBL6e7UC9sZF2tazQXs3LggE7EadGppWae/RTnXm/furV2dPt7NPMPA2iu0zEdU5ngnc+3ev0vpAwG6Y5YkF7PfP9bEf3d+ptA2gjZt35f4hiPPadXdDcSZw73/tUa0PhOZG2HUp+N7ZM9X92i90YPkMuyXIm8B070vjAbvREP+Zs88ctQW25arG+AAAAAAAlaOSPYDxTW3To5Ldr2g2yyldO/J7XTo/bIPkQBV2bgV3oNI7uzI7rnpnnw5nH/N5eVXQdr90KiXFYs7nmgrrD/T5iLnOJoQ14aaz6HymVwmey1Ykl6wo9/kVzA5nn9OH+zPV3G4ltgmKzUqpz7PnXbJ6OfL4/PO01eCXnOvpX7fGlXrxzU3uPQo/vr2Hcsbw0Tw3/HbvyXH/M5zjtkifB/+ywD/Pkzuze5Kbv0xYPl55n3+8qOcZ8TnLqPS+5yg03jxVel7KFqi+Tg3pxEeX1Xfe/9R6tbYvU9u6BUrlVF571eHmTNJKHDntvGb3MVXib67Sevc6D6m361SRKuPyK9kncjx/38TgkJqbFrjj7D18WWdHxscZbxzVsP8cTTULH1X/SzOV+OQb7fvCbrOh9np9r+3Hvgu9tl4l+8NKDN9Rc3ymNHZHvX/+Xmdv+mH2DMXn3tVw8Nsjeywz4WjiL99p4NJ4lXvcee1tE6I7r+VWpPvV6O5+n9x2ztM7RnzuTLX/L4+q2Q3ZwyvZo44vw7SLedP7ciZ58pi2DEz8Xw0AAAAATAdUsgNTSH37b73g04SGZlLPTPBpmN7c+/XerkNu2Di+faXWbvQCdhOmvpfV+sTZ39nHm2QypqeXZ1ds+xXiboXyyZ16d4dpYeJHNM7xjn+otF0LVeGkk89utoGpCbV3jAemxuh5Z2xHEt5Kic/zzrt0P++o4/POM6HTu8zEqoHg2hg5pwuHvf3qGsIq4O2EoFqmlzc2OPdkp3dPMp/hHDendU/mPNft0VtH3x//MX+Z4AbsJkTfmRfoRz3PaM9ZwAQnG/XHm04WjQPLel7c+1elSU/j7c02YDdB96lAwG6M6uzAKW3ZdSy7tUnjCr1tA2/TeiMTeBsjV9W345hOuGXGC9RWjR7YVTqeCdhNyNrhjHM8YDemcMCe8aO+vGUXg8buOk93cSZgN61YOo6ZVi+BanHlBOwm2G4yAbuU+OSW9gUCdmP4i9va8skdZ+lhLXsmUM0+9xG12YDdhOh+wG4M37yjfcec+xrWdz1L9PFp5KL27ehVR1cvATsAAAAAVICQHZgyVmr5OpN8JnS6WFXuyLmssLG+vc0NIk1VcKGq7tFLl23Y+pS3wfLamphwvnhFccFJJe2kk2VNfplpefKh+kOr4scV/7y4FpoWIaGtU7JFG99KPeP2LG7W6t2BwDsr/H7VC5nD+AF0LKb0ES/ALsU/z3wmXD+kfjdEz/2cqOcZ7TnLUsl9z2PvX6kWL2U+L+Y8qjPpab1eXOp+mk4cLlJJnhVIO560rVYGEwV6W4+q76Mhd6lh6S+d0U9QtY43eKY2Q9YvbqvjD7kV4HfVd+wbdfzJhN4lDN8e73VezNyZWmYqzse+10CmojzHF3ecp9y0gZk5fh/m2LYyw9/lV6mXY6LjAwAAAABEQsgOTBWV9KkO8ALalK5dKh3mZotrzhPmtwk7w/etX77Mhpjhrz/r9k8vXVFuZD6rSB/18irUbaV4yerliONrWe5VT0dlA+hiX3pkGz/P012v613zs8tW2KcuexOXhoWpUc8z4nMWVMl9z2fvX4m+7eU/L4Wfz8rM0ZPmvDSmGyW+vAmK26bayWRYabH1ZVpJ8ztWp/nuhuiqdbyi+09jSdvzvCQ/LJ/9M+39zS/UH/rzqPeXEQHxOq+qvezjAAAAAAAeCITswFThh7MVVeX6AW32RKF5Qj+7dNjpB/jhYWqZx7ZKfxngVziX+DwbLpeuoo42Pj+4Na133MC7yE9YdbwfQJf/pYc9z2DoPdKvzwad37FlWlhgAsvI5xnpOQuq7L7nKbPVTPnPSxUnPUUVmR7z3eov42dbi90FAAAAAIAHFCE7MO3F9eIrXj1laMV2wbCzVJgaEg5PSJkVzmVVuzsmOL7wfuulRAig7Xnmht6ff2YaTcTU3LbS21BAtPOciAne9wmH/L7ynpfKzda8Al9sFNPQMMcuhfBbvKTSuu5umLh7fTzkuPWj86/cMWzat3xT/CdkMtKG2Q/bJQAAAADAVEDIDkwVX97w+qave03PelvyNa5U9lSGw7r1lfndrGcKVIMGJ7m8FKj4zVRCF6wILxFi+hXJFYmp7km7mCU+PsllWRXOpUPsqOMbTbrRmeqWrsi51uPqW+IFXqs8+PXPM6/lyflLumZ+Ny0PfR4in2ek5ywg0n0fV1ml/8SfFzNR6LYer2L6QNGJR6/qU/PXA87o1r+5wjlCAY31Wa8NXxrywtamZnWGhvP16nxlgbuUvPK30hNTlmgpU/XjTZqr2tflTbBZ6idrItmp4uYdXTYTlMYfUedcb1M5hv9+x7t/8ZlqdbfkmPuwnvQ6Ak2SReP/HjYvstsAAAAAAKUQsgNTxchFXUuZhWat7tmqZxsDUZ6z/Ozm/Xpr9ya93J4d/3kVz9LTG/drbUtwn5V60dmnw53kMqXE4exJLou3gnH4FdZFemK7mtr0YuC49e5xO/IC3JtJd3DOeZqxuYuu+pYOre3Zo9XuJJ6lKpz9SvFmPR+4DvUtK7M+04g8Pj/cjr2qjh5nHMFz9a/pxj1aHvalRpmtUIIKn+c5/d0NfQt8gRL1PCM+Z3nKvO/Zyq/0r87zIrW2LfW+ZHI0rFtdIJj2nD1+xQtAY0u1t2eNOluCoXy94i1rdGD3Bu0NhpPO9Tzuh/O7O7UtuE/jInX2bNB69/hDOl50otFb+tId8gK1tS8aD/Kdz2gNnnPVjoeJuau+QTPR6MNa/9ocbVs+U/GssH2GWpc/qgO/eTQ7TPfDec1U9wbntcA+8YXO+1/L7+NeTfH25vF/DwW/qAEAAAAA5Hpo8XNLfrLLJc2fH9f16/ev7m2yMb6prdbH52rs0Bu7Xy1YKZwe/FAfH8wOy41nN7+fCR3zpZTYtVUXskLNuF7s2aPmmJlsc39o24/6di+gNz2/wyfw9D/DrubI32+l1h611ce5Us55XGnQ6nUKOdds/nnlyj7eBMfXslVvbSwcdaUHDzn34Vx+kG73M5OehvVrz1fiPP3zSH2o/h359z3yeUZ8zjyV3Pfi780IHV91npfWzd3qzvzbSOvErj71FQv4G1fowO6lXruVUGGfUR8It8OUcVxHvL1Te9eF3JXBM+o4eNWuGNGP5x8jefKYthDCZ8SXz9HeJQ8r+Ze0tly6a7eW5u9X0NgdnfjzbfUF/7Rl7iM68NrPwp8x5/2JsZlqjv+oEx/cyt6vCnKfMZ4DAAAAACgPlezAVDLSr/e6dur0YMpt6ZGRSihxZKfeKxB8fn7wdfUfSSjtFf96UildO3lI/V1hIWTptiYlK8E1rAs7dirhnGtQ2gSgu8KC+XP6465D2e835+iMq3/HfnsepSucRwd+716fcd44g61wJjy+8/v1rnOu15zzCzLhsxnbe2HBtaNg65eCSpzn+Q+UMKdQaALUiOcZ9TnzVHLf7fhKCa38r87zYqrT3WvoSJ48XTLoNpXiW7qOqffkkGwxvZVWcvCMtneFhdej6tvRq+1Hxo/lKbZPvuGBPm03x7XrrtSQTnx2y674qnM8TNzwpVvq+OC2TgzbHu2+sR+V+MttbT+WE7AbN7/TFrvPuPH3Dzj7TpbhAeffeNYzAwAAAAAoB5XsAYxvapsWlewAAEy2ljXq37iASnYAAAAAKBOV7AAAAMiIN5jZVdO6fImAHQAAAADKQcgOAAAAT+MKvW36sg8maCsEAAAAAGUiZAcAAJj26hVvX+NN7JsaUm/WZLoAAAAAgGII2QEAAKa9OWpft0Ayk+PuOKWzdisAAAAAoDRCdgAAgGnvqvZ19WrLwatiCnEAAAAAqAwhOwAAAAAAAAAAERGyAwAAAAAAAAAQESE7asb16/yBOwAAAAAAAIB7i5AdAAAAAAAAAICICNkBAAAAAAAAAIiIkB0AAAAAAAAAgIgI2QEAAAAAAAAAiIiQHQAAAAAAAACAiB5a/NySn+xySfPnx3X9+rBdqz2Mb+pr3dyt7ia7orSSqTEdP3xKZ0fspgfJC1v1eFezXRn3w9HX9e2ndqVm1Ku1fZnali5QQ8xu0pB6u5x7Y9cAAAAAAACAqYhKdtSwOjXEFqh79xq12i0PkhmxBrsUlNCdmgvYzZcfG9S9LhiwAwAAAAAAALWBSvYAxldjGhep881VWh9L68SuPvU9iNXsGXH9/J09ekQf6uY7/bprt9aGenX2bHDug5Q4ckz7zo/a7QAAAAAAAMDURyU7atfIVV24krYrD7qn9PDjzq+vb9RYwB6QuqIBAnYAAAAAAADUGEJ21LTh5JhdesC9sFyznF8/XDnnrQMAAAAAAACYEgjZUdPiDbPt0uSb8cJWzX3nfT1+yP/Zr8faVmqGfb0Yrz97Sj8mvfVSZrzQocfe2Z91rLmbOjTrKfuGIiZyntGM6sZXdhEAAAAAAACoMYTsmAbGdGNS+7Gv1GPvvK+5Xc2aYVq+ZMQ06+VNmvtOR8kAe0bMzAia1N1/eOtFmZC861XNejw4i2hMMxa/qsd27tdjL8TttlwTP88JidVpvl0EAAAAAAAAagUhOzAhK/XYoU2a9XhKP3x8SDf3vK6vN9mfPYf03dfOWx5/VY+84L073ErNXOz8+usl/eBtKCKun69pdn47xzu6c/xYm3bq5tGE7prAvOu3+nleRXs1zhMAAAAAAABALkJ2TAML1N2zQq2NdrWKZm3apFlK6Ns9W/Xt8XPZlej/OKd/+78+dCcynRErVF3ueGqeW0F+N1VOGbv19WV99+mwXTGGdffT/bq5aad7Lv+W81FVOc9I6hVvX6O2JmcxldZ1byMAAAAAAABQMx5a/NySn+xySfPnx3X9ejDYqy2MrxbVq3XzarU11cl0PTeSJ49py8CoXZsIWx1u14q5+/FO3Txe4Nq/sFWPdzXrh6Ov69tP7bYiZm16X48tdj7zr4f07Uc5gXmoKp1nJRpX6MDupZlrrtSQThw+pb5JbdsDAAAAAAAA3HtUsmNayIS91fTC8rKC61JmLTXtXxK6U0bAbvxwaKe+/WtKMxZv0tydZUxcWqXznAgzn+sNbxEAAAAAAACoKVSyBzC+GtSyRv0bF7iV1L2HL+vsSDUq2D0z2vZr7suxsivQw8X183f26BF9qJvv9LstW8r2VFyzml/TIy8324Dd9Fv/vb7NqUSvznlGVa/W9tXqXlfnnN4Vbd9xUdPsCQQAAAAAAECNo5IdNS3eMNv5b9ptVVLNgD1oYn3Mn9LDjzu/vr5RWcBu/GNYPxw3fdi9yUt/+DqmWS+HTXrqqX6/9XKM6uxAn3oHncVYneZ7GwEAAAAAAICaQciOaWBMNyahF/jdlGmCIs1YsqJgq5YZL8QLt3ExbCuX8iY9XanHNhVoC/OPc/r2VMJZiOnhnN44VTlPAAAAAAAAAKEI2TENzNa8RrtYTZ9e0g/m9+Ovau47HZoVqCCf8dRK/XzTfs3t2qNHXrAbizABeGZ/0wbmhfyq8xltbZpl+rC/s1+P5YbizvEeW2N6u4eo4nkCAAAAAAAAyEZP9gDGV3vi7Z3au046satPfZNQza4XturxrgLhtuPuXw/p20PnirSCWanHDm3Kn5j06/Ae7X5/9YKc490MO96Ez3Mi6tXZs0HrRU92AAAAAAAA1B4q2VHThpNjdmmSfLrf9kNP2Q2eu3/9UN/ueT088M5yznnfh87+dtVx9+uEvjt1MXS/u8e3usf77q+prNfvOsf/4ejOwseb8HkCAAAAAAAACEMlewDjqz2TXsmOMlDJDgAAAAAAgNpFJTtqV+Mita+rsyu472JL1d5Sb1cAAAAAAACA2kAlewDjm/paN3eru8mu+FJUUN9v3l8U5H7hMaTerlM6a9cAAAAAAACAqYhKdtSwtJKDV9R7mID9fhse6NP2k0NKZreEBwAAAAAAAKY8KtkDGB8AAAAAAAAAoBJUsgMAAAAAAAAAEBEhOwAAAAAAAAAAERGyo2aYdjgAAAAAAAAAcC8RsgMAAAAAAAAAEBEhOwAAAAAAAAAAERGyAwAAAAAAAAAQESE7AAAAAAAAAAAREbIDAAAAAAAAABARITsAAAAAAAAAABE9tPi5JT/Z5ZLmz4/r+vVhu1Z7GN/UVuvjQ2We3bxfq5tiSg8e0nsHz9mtmI7q2/erY11M1468rj+etxsfdI0rdGD3UjXY1YzUFW3fcVH8nw4AAAAAgAcHIXsA45vaCNkfXF7ImdTprv363G6bVI0demP3q6ozy6kP1b+jX6PuC1NYcEw50qmErn30gS6cf7Ce/8ru+0qtPbpJT9u1ggYP6d2KvjSJ68WePWqOpZTYtVUXRuzmBx0h+ySYoc4NdVo/21kc+17bj33nXceFj6r/pZlmSYlPvtG+L9xFlMT1BAAAAAAf7WIATLK4Fi6NSakbumm3TLqRi7qWMgspXbtyceoH7MaT80IDdqMu1qzmjXv0RnvcbnkQVHjfW5aXDtgd6eQ/7FK5nnKuj/MrdVlfTJWA3XCe4S1dverI/JxRwr6EKhi7G/JFxY/68pZdRGW4ngAAAACmOUJ2AJPMhpxf3biHYfewLux4Xe92bdUfB2qj5re+watpNi1P3u0K/OzaqdMn3W8UVLfuNT3rLj0IKrzv5/dnjavfjil3vO9Vej8b7ZcT9/T5AwAAAAAA0wkhO4DJZSuUr31GX/SJmNvglmMr/aW3njEyrM8Hfq+Em0k3aE6ju/X+m+B9LzjeStm/AKi8Ah61565ujNnFoFs/KmkXUYkqXM/GFdrW063+o9060F5vNwIAAADA1ENP9gDGN7VNt57s9Y0rtbCtTU83xTJtRNKDH+rjg0X6jzfG9Wzbb/V8YB+lEkoU7Odt+1l/5ffBdvZvf03Pr2sOHPOQc8xzgWOu1Noe57xiJiQtJVGgX7dznM3Z52nG9tnxfn3+5Fa9tbEhu792i9nWbFcCSvZjjzK+bPXOsV9+xXl/ZrgpXTt5XJcGiuzj9ip3Ru+PwbmXa98MXDPnnpw+7FyXTHsTv694oetlJnp9X6ubCvcdj3KeRvnPWTXuu8/vz17qfb7Cz8vN5ZMx6Wm94i3L9PYrs9UQyxxRycGEfnfwakjbDE+8ZYXaX1nq3Ee7oYx9xi3StqOr1FxBT/Yox4u3d2qv82ye2NWnPvfZXKTOtmYta6rL9IdPDp4p85yLseOxa8UkjvRqX5XuXeuvf6HuuDOGv6S15dJdb+PcR3TgtZ8547uj3j/c1llva574wkf1dtNMNZge5AVkfa4jvnyO9i5xrucHt9Rn+ibNnanO5ke0LP7w+PUcvq3f/elO/vUMe+/YHR3/s3OOxXowVbSf7asuv6f6DOcaPaq2rPP73jk/2289x0Sup9G6uVvdTXbFeT4zzx0AAAAATDFUsgNTjgkU96tj9yY1B8NyR13Tq+o4ul8vhlQzm5D1jd17tDpnHxXr5924Qk/H5FUBm4k3jzr7BwJoo65pk14O7mvac5QVtDrC+nX7xwkZ2+rd+7X2eRPLJXUrEMT4rVRypUv1Y48yvgwTKr+vjo3B4NqI6el1m9TR06FCdZlelbY3BhO4v+Xcy6xw2iwGgyZ7nhq8FB44O+f+vAmqQvuORz3PCp+zid73IL/FS6HxBhV9XrZquekLr4T+Xq2AvXGRtvVs0N6NCwIBu1GnhqZV2nu0U515//7q1dnT7ewTDLyNYvtMRHWOZwL3/t2rtD4QsBtmeWIB+/1zfexH93cqPR6E6+ZduX8I4rx23d2Qr/XXc7T3peIBeykmcO9/7VGtDwTYRtj1LPje2TPV/dovdGD5DLslW9T9NPthzZ87U9s21Kk7d9/4z7R3wyPO/xHyRb2eAAAAAFBrqGQPYHxT2/SoZPcrms1ySteO/F6Xzg/bIDlQhZ1bwR2o9M6uzI6r3tmnw9nHfF5eFbTdL51KSbGY87mmwvoDfT5irrMJYU246Sw6n+lVgueyFcklK8p9fgWzw9nn9OH+TDW3W4ltgmKzUurz7HmXrF6OPD7/PG01+CXnevrXrXGlXnxzk3uPwo9v76GcMXw0zw2/3Xty3P8M57gt0ufBvyzwz/Pkzuye5OYvE5aPV97nHy/qeUZ8zjIqve85Co03T5Wel7IFqq9TQzrx0WX1nfc/tV6t7cvUtm6BUjmV1151uDmTtBJHTjuv2X1Mlfibq7Tevc5D6u06VaTqt/xK9okcz983MTik5qYF7jh7D1/W2ZHxccYbRzXsP0dTzcJH1f/STCU++Ub7vrDb8qq5c9h9zESeJz65rb4vvEA5vvARvf1S8Yptr5L9YSWG76g57nzGmPPeP3+vszf9UHqG4nPvajj4rVPgeIm/fKeBS+NV7m41vQn7zbn41fG+SPvZsWe+PMgd46PulwtG9jWz7DErup5Bpl3Mm96XQcmTx7RlYOL/SgEAAADgfqCSHZhC6tt/6wWfJjQ0k3pmgk/D9Ober/d2HXLDxvHtK7V2oxewmzD1vazWJ87+zj7eJJMxPb08u1bRrxB3K5RP7tS7O0wLEz8ycY53/EOl7VqoCiedfHazDUxNqL1jPDA1Rs87YzuS8FZKfJ533qX7eUcdn3eeCZ3eZSZWDQTXxsg5XTjs7VfXEFb7aScE1TK9vLHBuSc7vXuS+QznuDmtezLnuW6P3jr6/viP+csEN2A3IfrOvEA/6nlGe84CJjjZqD/edLJoPFfW8+Lev4jnkSve3mwDdhN0nwoE7Maozg6c0pZdx7JbmzSu0Ns28DatMDKBtzFyVX07jumEW/a7QG3V6EldpeOZgN2Enh3OOMcDdmMKB+wZP+rLW3YxaOyu83Tni9d51d+JT25lwmdj+IvvtOWTO87STL2w0NtWiAnYTUuVjmOmZUug6ls5AbsJqJv8UPuW9gWCcmP4i9v2mA9r2TPBqvSo+wWYLwD+kDvG2+q1HxSz1yFfZdczy8hF7dvRq46uXgJ2AAAAAFMaITswZazU8nUm+UzodLGq3JFzWWFjfXubG0SaquBCVd2jly7bsPUpb4PltTUx4XzxiuKCk0raSSfLmvwy0/LkQ/WHVsWPK/55cS00LUJCW6dkiza+lXrG7SHcrNW7A4F3Vvj9qhcyh/ED6FhM6SNegF2Kf575TLh+SP1uiJ77OVHPM9pzlqWS+57H3r9SLV7KfF7MeVRn0tN6vbjU/TSdOFykkjwrkHY8aVutDCYK9JoeVd9HQ+5Sw9JfOqOfoGodb/BMbYaeX9xWhwmSs4Ltu+o79o06/mRC6GgKB9DW8O2sXu0FzZ2pZaaqfOx7DeRWjfu+uOP86zBtXGaO37+o+2X8qBOmZ7tdC/JbwoSapOsJAAAAAFMNITswVVTSpzrAC2hTunapdJibLa45T5jfJuwM37d++TIbYoa//qzbP710RbmR+awifdTLq1C3leIlq5cjjq9luVc9HZUNoIt96ZFt/DxPd72ud83PLlthn7rsTVwaFqZGPc+Iz1lQJfc9n71/Jfq2l/+8FH4+KzNHT5rz0phulPjyJihum3gnk2GlvtaXaSXN71id5rsboqvW8YruP80M237jzS89qta57qLH9DC3rVSyepKHSBYLqoPm2H7os3+mvb/5hfpDfx71/qIiKOp+AAAAAICqIGQHpgo/nK2oKtcPaLMnCs0T+tmlw04/wA8PU8s8tlX6ywC/wrnE59lwuXQVdbTx+cGtab3jBt5FfsKq4/0AuvwvPex5BkPvkX59Nuj8ji3TwgITWEY+z0jPWVBl9z1Pma1myn9eqjjpKarI9JjvVn8ZP9ta7C73S6Zlijd5aCa0fs2G1sO3C1ePAwAAAACmBUJ2YNqL68VXvPrG0IrtgmFnqTA1JByekDIrnMuqdndMcHzh/dZLiRBA2/PMDb0//8w0foipuW2lt6GAaOc5ERO87xMO+X3lPS+Vm615Bb7YKKahYY5dCuG3eEmldd3dMHH3+ni1z6tEd/8CIMNMMHpb2/+U3f98Qm796B1j2LRh+ab4T3BS0aj7AQAAAACqgpAdmCq+vOH1TV/3mp71tuRrXKnsqQyHdesr87tZzxSoBg1OcnkpUPGbqYQuWBFeIsT0K5IrElPdk3YxS3x8ksuyKpxLh9hRxzea9GK2uqUrcq71uPqWeIHXKg9+/fPMa3ly/pKumd9Ny0Ofh8jnGek5C4h038dVVuk/8efFTBS6rcermD5QdOLRq/rU/PWAM7r1b65wjlBAY33Wa8OXhrzws6lZnaHhfL06X1ngLiWv/K10+FmipUzVjzdprmpflzfhZamfrIlk74eFj6rbuaknPvhGW7IC6/wJRifs5h1dHnN+xx9RZ7A1TSlR97vvFo3/+9u8yG4DAAAAgKmHkB2YKkYu6lrKLDRrdc9WPdsYiPKc5Wc379dbuzfp5fbs+M+reJae3rhfa1uC+6zUi84+He4klyklDmdPclm8FYzDr7Au0hPb1dSmFwPHrXeP25EX4N5MuoNzztOMzV101bd0aG3PHq12J/EsVeHsV4o36/nAdahvWZn1mUbk8fnhduxVdfQ44wieq39NN+7R8rAvNcpshRJU+DzP6e9u6FvgC5So5xnxOctT5n3PVn6lf3WeF6m1ban3JZOjYd3qAsG05+zxK16AHVuqvT1r1NkSDOXrFW9ZowO7N2hvMCx0rudxP5zf3altwX0aF6mzZ4PWu8cf0vGiE43e0pfukBeorX3ReJDvfEZr8Jyrdjz44u6kpg/ryWdKTG5aFXfVN2gmDH1Y61+bo23LZyqeFZrPUOvyR3XgN4+q1W7xRN3v/oq3N4//+yv4xRAAAAAAPPgeWvzckp/scknz58d1/fr9q3ubbIxvaqv18bkaO/TG7lcLVgqnBz/Uxwezw3Lj2c3vZ0LHfCkldm3VhaxQM64Xe/aoOWYm29wf2vajvt0L6E3P7/AJPP3PsKs58vdbqbVHbfVxrpRzHlcatHqdQs41m39eubKPN8HxtWzVWxsLTyGYHjzk3Idz+UG63c9MehrWrz1fifP0zyP1ofp35N/3yOcZ8TnzVHLfi783I3R81XleWjd3qzvzbyOtE7v61Fcs4G9coQO7l3rtVkKFfUZ9INwOU8ZxHfH2Tu1dF3JXBs+o4+BVu2JEP55/jOTJY9pCCO+Z+4gOvPazIvdcSo7d0eXB79X3RfYEqPHlc7R3ycNK/iWtLZeKT44a5O9XkHO8E3++rb6cP4mpfL8Z6txQp/Wzf9SJD27lfZ4RdQzlyH2mee4AAAAATFVUsgNTyUi/3uvaqdODKbelR0YqocSRnXqvQPD5+cHX1X8kobRX/OtJpXTt5CH1d4WFkKXbmpSsBNewLuzYqYRzrkFpE4DuCgvmz+mPuw5lv9+cozOu/h377XmUrnAeHfi9e33GeeMMtsKZ8PjO79e7zrlec84vyITPZmzvhQXXjoKtXwoqcZ7nP1DCnEKhCVAjnmfU58xTyX234ysltPK/Os+LqU53r6EjefJ0yaDbVIpv6Tqm3pNDssX0VlrJwTPa3hUWXo+qb0evth8ZP5an2D75hgf6tN0c1667UkM68dktu+KrzvFg3byj48NeT/ZCGmbP1PqX6rRtod0wQcOXbqnjg9s64Rw3636P2T7wx/IDdiPqfvfL8IDz/5SsZxQAAAAApiYq2QMY39Q2LSrZAQD3kK301vfaXnDC0Blq/XWd27d9Mqq9p4WWNerfuIBKdgAAAABTFpXsAAAAYebO1LLZUnK42ASnd3V9rHilO4qLNzgXWWldvkTADgAAAGBqImQHAAAoomHJo9q2cIZyp/uNz52pzl/7fdDv6DhV7JVrXKG3TV/2wQRtjAAAAABMWbSLCWB8UxvtYgAA1db661+4rWCKKjARKYqpV7x9md5et0ANqSH17jils/YVAAAAAJhqqGQHAAAo4OyfvtH2T75XYixnMlFH0oTrn6QfuAlFp4Y5al+3QDKT8RKwAwAAAJjiqGQPYHxTG5XsAAAAAAAAAO41KtkBAAAAAAAAAIiIkB0AAAAAAAAAgIgI2VEzaBUDAAAAAAAA4F4jZAcAAAAAAAAAICJCdgAAAAAAAAAAIiJkBwAAAAAAAAAgIkJ2AAAAAAAAAAAiImQHAAAAAAAAACAiQnbUlNbN3eo/6v906kDPGrU22hcBAAAAAAAAoMoI2VHD6tQQW6Du3WvUarcAAAAAAAAAQDURsqOmnD3Yq44u+7PrjE6kzNbZmkc1OwAAAAAAAIBJQMiO2jVyVReupO0KAAAAAAAAAFQfITtq2nByzC4BAAAAAAAAQPURsqOmxRtm2yUAAAAAAAAAqD5CdkwDY7oxYhcBAAAAAAAAoIoI2QEAAAAAAAAAiIiQHdPAAnX3rFBro10FAAAAAAAAgCohZEdNGx44rd7BtJKxpere3a3+o9060F5vXwUAAAAAAACAiSFkx7TQYH8DAAAAAAAAQDURsqO2tSxTd1OdlBpS765j6ujq1ZaBUfsiAAAAAAAAAEwMITtqWrxhtvPftE4cPqWzI4TrAAAAAAAAAKqLkB3TwJhujNhFAAAAAAAAAKgiQnZMA7M1r9EuAgAAAAAAAEAVEbIDAAAAAAAAABARITtq2nByzC4BAAAAAAAAQPURsqOmeROfAgAAAAAAAMDkIGRH7WpcpPZ1dXYFAAAAAAAAAKqPkB01pXVzt/qP2p/dq9RsNqaGdGHEfRkAAAAAAAAAqoqQHTUsreTgFfUevqhhuwUAAAAAAAAAqumhxc8t+ckulzR/flzXr9duXMn4AAAAAAAAAACVoJIdAAAAAAAAAICICNkBAAAAAAAAAIiIkB0AAAAAAAAAgIgI2acR+rEDAAAAAAAAQHURsgMAAAAAAAAAEBEhOwAAAAAAAAAAERGyAwAAAAAAAAAQESE7AAAAAAAAAAAREbIDAAAAAAAAABDRQ4ufW/KTXS5p/vy4rl8ftmu1p9bHZ7Ru7lZ3k11RWsnUmI4fPqWzI3YTAAAAAAAAAKBsVLJPa3VqiC1Q9+41arVbAAAAAAAAAADlI2SfZs4e7FVHl/3ZdUYnUmbrbM1rdF8GAAAAAAAAAFSAkH06G7mqC1fSdgUAAAAAAAAAUClC9mluODlmlwAAAAAAAAAAlSJkn+biDbPtEgAAAAAAAACgUoTscIzpxohdBAAAAAAAAACUjZAdAAAAAAAAAICICNnhWKDunhVqbbSrAAAAAAAAAICyPPz4E0+8Y5dLeuyx2fr229qdKLPWxxdm7H98pf+3sUHzFj6tf35pmf5T2zL9z//TkD7+H9/bdwAAAAAAAAAACqGSHa4G+xsAAAAAAAAAUD5C9umuZZm6m+qk1JB6dx1TR1evtgyM2hcBAAAAAAAAAMUQsk9z8YbZzn/TOnH4lM6OEK4DAAAAAAAAQCUI2eEY040RuwgAAAAAAAAAKBshOxyzNa/RLgIAAAAAAAAAykbIDgAAAAAAAABARITs09xwcswuAQAAAAAAAAAqRcg+zXkTnwIAAAAAAAAAoiBkn84aF6l9XZ1dAQAAAAAAAABUipB9mmnd3K3+o/Zn9yo1m42pIV0YcV8GAAAAAAAAAFSAkH1aSys5eEW9hy9q2G4BAAAAAAAAAJTvocXPLfnJLpc0f35c16/Xbhxb6+MDAAAAAAAAAFQXlewAAAAAAAAAAEREyA4AAAAAAAAAQES0i7HSC/+jXarMR/91q/v7P//Lf3F/AwAAAAAAAACmDyrZAQAAAAAAAACIiJAdAAAAAAAAAICICNkBAAAAAAAAAIiIkB0AAAAAAAAAgIgI2QEAAAAAAAAAiIiQHQAAAAAAAACAiAjZc/xq7W/0r2/5Pxv03974tX5Vb18EAAAAAAAAACCAkL2o2XqiLq6NHb/Wr+wWAAAAAAAAAAB8hOw5/vsf/6B/edf+9P8/+mPabJ2teVSzAwAAAAAAAAByELIXM/o3ffr3MbsCAAAAAAAAAEA2QvYShm8RsgMAAAAAAAAAwhGylxCfM9suAQAAAAAAAACQjZC9LGO6MWoXAQAAAAAAAACwCNkBAAAAAAAAAIiIkL0scW18Y5l+VW9XAQAAAAAAAABwELKXMHzxjI5cG9NXdU3a2PEb/etbv9F/WzHHvgoAAAAAAAAAmM4I2cv0hP0NAAAAAAAAAICPkL2URc9r49OzpfSwjvT/3/qXd/+g/+PiLfsiAAAAAAAAAGA6I2QvIT5ntvPfMf3x4z/pv48SrgMAAAAAAAAAxhGyl2VMN0btIgAAAAAAAAAAFiF7WWZrXr1dBAAAAAAAAADAImQHAAAAAAAAACAiQvYShm+N2SUAAAAAAAAAALIRspfgTXwKAAAAAAAAAEA+QvZi6n+ptucJ2QEAAAAAAAAA4QjZc/xq7W/0r2/Zn45/VpPZmB7Sp6PuywAAAAAAAAAAZBCyFzWmr64N6sjHlzVstwAAAAAAAAAA4Hto8XNLfrLLJc2fH9f167UZN6cX/ke7VJmP/utW9/d//pf/4v4GAAAAAAAAAEwfVLIDAAAAAAAAABARITsAAAAAAAAAABHRLgYAAAAAAAAAgIgqqmQnYAcAAAAAAAAAYBztYgAAAAAAAAAAiIiQHQAAAAAAAACAiAjZAQAAAAAAAACIiJAdAAAAAAAAAICICNkBAAAAAAAAAIjoocXPLfnJLpeldXO3upvsitJKpsZ0/PApnR2xmwAAAAAAAAAAmBak/x/MrTpX1Po0qwAAAABJRU5ErkJggg==;" vertex="1" parent="1">
          <mxGeometry x="960" y="240" width="1497" height="647" as="geometry" />
        </mxCell>
        <mxCell id="Km0Jx6emCK2xYYK6pRIC-2" value="" style="shape=image;verticalLabelPosition=bottom;labelBackgroundColor=default;verticalAlign=top;aspect=fixed;imageAspect=0;image=data:image/png,iVBORw0KGgoAAAANSUhEUgAABDYAAADvCAYAAAAJrVS4AAAAAXNSR0IArs4c6QAAAARnQU1BAACxjwv8YQUAAAAJcEhZcwAADsMAAA7DAcdvqGQAAFwJSURBVHhe7d0NbBRXmi/8v2HmlYylO/FX1jbY7gDxB1qCsRNCtgdQuGFHgXiwMgvXTHRnwigeJVYGUJjoQgTiIlBglSUiTORE62hgI2WwYCfXDiFRhoi8wPoO+bCBcF/AHgKNHWxu8Ed2V+C9ugG/55w61V3dXdUf5bbT3f7/pKa7q7v6nKpuF3WeOuc5GQ/MqxotKfGgp8eHdJXu20dEREREREQ0WU3R90REREREREREKYeBDSIiIiIiIiJKWQxsEBEREREREVHKYmCDiIiIiIiIiFIWAxtERERERERElLIY2CAiIiIiIiKilMXABhERERERERGlLAY2iIiIiIiIiChlMbBBRERERERERCmLgQ0iIiIiIiIiSlkMbBARERERERFRymJgg4iIiIiIiIhSFgMbRERERERERJSyGNggIiIiIiIiopSV8cC8qtGSEg96enx6UfpJ9+0jitXw/X+tH8Un+y//Sz8iIiIiIiJKLuyxQUREREREREQpi4ENIiIiIiIiIkpZDGwQERERERERUcpiYIOIiIiIiIiIUhYDG0RERERERESUshjYICIiIiIiIqKUxeleiSYR5+lec/DjhQ+idpYHBdl6EXxofv1P+BfxiNO9EhERERFRsmKPjXQwZyoW/vYH6lY2Ry8LkoEy/frCugy9bBK6dwrm6f0wb9Ek3g82frz879DwoDWoQURERERElBoY2EgzOWU2DfY5U5CjH05m08ozkKkfZ96fgWn6MeVgug5onPnTP+OXr/+jvhm9NYiIiIiIiJIZAxvpZvYU5OmHpjy7YMekk4Hc+8V+GLqL65+Oira8eH6vfokMw2fQ2j2knxAREREREaUGBjbSyNBl0WAXDficoOEo4vlscSdem9RN1nvFfsgBRv4yit6uUYzI/VLOgA8REREREVGqm/pXBQX//Uc/ugf/+q/f6kXpJ923D/lTMEP2RhCN9n+fIRrsGaP4+pJ+bc5U3C9eGxKvQbyWOWR5zWLanCm4r1a89z+Lz/obeTN6NPy7eO//1e/xk7kqnpuK+yqAoTOj4a8jA8W/+gHm/OcMZFwexb/d0ov9MpC3SJT1mPiM0PKGRHlh77e4V3z2MrHeE+Km1puC3IoM3Lk+ituR1isV2yf2w79/eReDPvGbEOv9p2lO9TdME3WsWT0lsA12Zd8r9rntPnJZT4f1/p//A/zbTf2eMfgP224qI8gurkFN5g38v+f7YPeXkjn0jX5ERERERESUXNhjI62MYkR2y7AMR5mWK/8VywdF41QtCWUEIR5YPkX1aAjIQObsqXjgt1NRnNAhGxko+9VUzH5YfL5deb+YijKHxJ4y0LBQvD59diBXhpSZk4HZv4icENQYjjOKoQvymbi/LO7iGI7iWLa43TYe+rmrp/ge6pzXm75c7BfbxLAJlJ2NGfohERERERFRqmBgI80Myp4ZopFsDEcx80qMYnBAPg83bdEUTFcBBtHY/+AOTv/Dd8bt7Tu4rsauiEa1aGyH5u1wS5anAiiiTpff1mWp2x18+YEMzAQ36v3mTMUDD+vgxKfivf71vjPWE69kPjzFIQhjDse5C3M3DHTr/RR1OIqoz9/oslWdLftI1vl/ys+xcFvPOeJ7mJ0htj+8jMsyJ4iQszxx3wMREREREVG6YGAjjWTmArdP3VW5NNTsKDqvxNDpu2G9CpR7p+B+3Qi/LhrT3RcsjfRvRtH7e0twI8HTo4785S4GgkY3jOL2hTs49/vvcO5USLBAlF+80ChfBl+6xevW7VHrfRAhUKFnhRlSwQztgrGfYpkdJUcGHD69g9NifwyI/RIg6hG0DWOop3jty7fFttuUMXDqDi7LHiZCZkJ7z0g58Cz8W9TOFA+Hh/G1sZCIiIiIiChlMLCRdgLDLPLU9KbiuRx+kWfTE8Jcdvkuem1TKIyi97TRyE7U9Ki3VeJOo9eCHHIyLZaGug7QyBlNvlZDSWxECFQED0MxBfZT1OEol+/YBFtsjLGe/iCJ+Jy8OWL/1E3FvF9NxcLf/gCzZY8TiO8rUV028h7C3z//a/zT83+H7Q96UDDswwcffQ6ffpmIiIiIiChVMLCRhtQwi5wpKo+FdfhFKCP/BlT+DUcDRiBCBgASEdjAN3dx7m3RuB/KQM7DMqfGD1TDfaFowDsGOswAjNimB+R7bW9TVa+McKIcHRSYHbKOGSyINhwl4v6xGlM9xfchgxm/Eu/5xVTMljlPZK4Nsd8nwg1xu248JCIiIiIiSikMbKQj3StAChp+kSy+uYvu33+n8njI/BFDQ6MYEQ14M9Axry5BQRRJD0OJJFG9UcZE5uYwE7iK/SHzc8hcG1/qfBvmUJSEGfgc/+31f8QvX/9nNH/xLQqyPWj4yUPw6JeJiIiIiIhSBad7TQfmdK+iQWxO5ZoxNQOZ00bxzZ90ngeb9/ywdAr+akYGfvgf9lPAKnqaVLWeOTVqVgYK5on1Rkbxvx2me/3R/Cn4T5nAv5+zm+5VE8tv94xiUHzG//6fd/H15VFMKxbrTRe3qWJZj35fRgZyZXmXZZ4L8T75XqdbSH3yvFORk2PkELlwLPT9o8ioEGXlAN/ZTEtr7p/vrlvqEonremag7JdT1LCh6x/cxYU/3cWgKE9OC2tOfTtN1FMGPWRuksExTPsaPt3rCHq+/v8wkFeDmqL/g8uffQW7TeV0r0RERERElKzYYyNNyYST50Tj2mkYimTmu5DTwzrNJmImwxz5iyUR5jeRh6cEZloJN21OhN4R4nO7zZweepiMIpYPyS4ojvV0ooehDI1i0CGHiH8Wmaizo8TAdT01WU9rAlc/PcSFiIiIiIiIwjCwMZl9cxfX1RAHY0rXsjmWxv29GSj+1VT/VLDXQ5JnjqixLhmYbR02ItepM6c7tSFnYVkuXv/tVGO4iXi/lXxetlwHUoLyWphJTHU9w3JxZCBvkfhM8blBuTX1MJSgoEwIfzLThAxHcVlPU47YP3Id/VS+f9ocI4HodJUPhIiIiIiIiEJxKEo6sBlmEsbhPbcv6eEYmRmicS/e8zf6Ns8YSqKCGm/fwY2QYRr/9n8yjM8TjfG/sq6TY0yNeu0/jKETQUNRbo3i38XX8MNc8b7pYj3xfn954iafqyKH7uJiW8gQl5ujGJqaoYaGZM4IXzdHDqkZAkauB8ozhqGIOnwZYfiGeO+PxPqZouDQ4ShxD0WRXNRTGtHr/FCuY3n/X4l9LIf8XP5S7GrxeuKHokg5eGTBHNz/H1fx3vk+2P2lcCgKERERERElK/bYmPRG0fv77/DlB3KmEr1IGcXI5Tv48h/u2E8Fe0G89oF4j3WdIdEAf/s7NTXq7UG7IRXA7QtG4lCjvNBeIDLHhPjc39+17WFx+9QdlXD0+mU9FMYk1pPJNr/8vbWu5mwo4jWnqVcV8brutZKQ4ShCfPU0yHXs9qfcH6fF+wdinZmFiIiIiIhoksl4YF7VaEmJBz09Pr0o/aT79hHFavj+v9aPrHLwX576OyzHGWx753PY/aVk/+V/6UdERERERETJhT02iMiQPR91ZQ5ZX4mIiIiIiJIUAxtEk94QPv3KyKwx/2//Dv/0/K/17W/xY7WUiIiIiIgoeTGwQUTwnT6EbV/4cGNYLyAiIiIiIkoRzLFBNInY59iIjjk2iIiIiIgoWbHHBhERERERERGlLAY2iIiIiIiIiChlcShKGuBQGyIiIiIiIpqs2GODiIiIiIiIiFIWAxtERERERERElLIY2CAiIiIiIiKilMXABhERERERERGlLAY2iIiIiIiIiChlMbBBRERERERERCmL072mAU73miwKsKG6AWszB7H/bBP23tKLyVZl/lI8V1yBJZm5egngG+nCJ70nsffmDb0klLmPxXt7W7Gy57xebpG1FG1VXnj0U7+RdtR3HsdF/TSM2/WIiIiIiOh7xR4bRDTx8lejpcwbFNSQPJnlWJubr5/ZyJqDRzONh57iStQaD4lseVatQcuBx7FYPyciIiKi9MTABhFNsLnYV1auHsleF/XtOzDPvJ1txpbem+o1W7cu4JMR46Gv9yKOGA+D3TqOldbPbG/FCf1SRG7XoySVh0eqs4H+YfToJURERESUnhjYIKKJlZWPUnk/0o5NPeeDh3jcuoEj4ubsBvZ2GoEH22EoRH45mFEo7m4MgQP1iIiIiNIbAxtERIlUuhAv7mpEy4FGvLoqTy+kCeedhRpx1/FFt/GciIiIiNIWk4emgUmVPDRrLjYUL8Kjubn+JI/OCSd1okmYyR8LUFvxJJ6xrjvYjk2XIiWGLEBl/mLsLs6Dx58PYlCsd0qsF9LbICx5aPzlGQk1Ze4JvcCxrIDKEtGILkYgYandPhpsta1vbcliPJNXLrZNLzLL6xXvTWDy08qS1WIfinL0c0einvNEPQ2BRKF2fL3NWNkTqXeHaS72eeuwJO4koO7WW7y+EY3z9RMMo23bQRy8pp8mTB7W7FqNlTc+Rv1r3fB4F2LVE9WokT0UhL7+q2h980OcdCw3T9RzGermZ6NIL+k704nW1tM4OeNxtDTcY1tvmbNi9woEXistw4vP1ohys403iHKbHMr1eB/HuifuQ5Guo9w3HUc7cPhwt02PiuDtU/Vd9RDqVoj1jTeI+n6MfeK1wLqiLrssdYlI1PNpUU/9jIiIiIhSG3tsUIoQjdyKRpyrqsNaS4NdUgknyxqwzynnZGYeZovG/j7RSN4Zum6uFy3VS1GpnwfR67SUyYa/Ncml+IzcOrR4G7EhSy8KNS3e8mQjfqtOqKkXKTGUZSGDHLb7SNyCG+a6fjLYYFdeVSP2lRToZYmQF1QfGqPS2XioUDTukYM169dgd0MgqCEVFd6Hxu1rsEaN+QlRuhCvHliNRktQQyqaX63WefHB+8Szb3HdJjhRUiSDBsZrKjHn9seCAwmyDmHryYBDo6ijNaghZaNmxWPYvWth+G/D3L6+oUB9LUENqWj+Y1hn7RFTmoPCmIIaAvNuEBEREaUV9thIA5Oix0b+apwrK1e9M97qOmnJwyB7HTwpGugy8NCFLe2HLAklQ6/4D2J/97v+nh2VamYOI4nlie4dWBeUs1JfrZcPRZn7g3qE6J4OxeW4FrSe+/KMXhdyGwbFa++K13RZsvdFeZ3+zNDtM5jrnhjswpJc8fmivltC9lFl1o2gHhj+8tR7xWf6XzN7qIjPGYi1R0SczGlVXU6jatY9WXtsqKEozxqBhr6jh/DC4QH9QgJ5Za8KGYCQhtHRfAyH2weM3guqF4UMOIjHZ8weDybx2gHxmnzY34mmN0/7e1eoHhUy+CCfiNc2bT4d0pNC96KAeO39bBWoUL0mWrvhU5+Rh8Ve4KSoR4BZnu6d8Zn5XkHUc42o50pRz47mJrzSrpdLevv6+oeBwmwUqZ4gn4u6ys+WvU1kYEY8DNs+ky7XdjuIiIiIKN2wxwalhpuHUH92B1Z2yka4tTF7A0d6mrBlUD7OwyynXg2yAd/eFDRc5aL4TGM90cbKDO6dUFmySAc1ZKP2UMgwF1nmIaw82xwSDLGIpzzR0N+tgxpyOIk/qCHdOo+9nc3Yr2YCKcczEXpRyKCGbOzPs9lHTsNKfAMyAKKfKOK9op4rO2VyTutnUMyuncYrm5tQ/3TT+AQ1BE/RPcYD2XB/+iBeMYMa0rVuvPJmJ/rk44KcoN4Qi9froIYMCIgGv3XIiK/9Q7zQfNV4YptwUyfjxH1Y13APOpoP4QU5FMT/GQMhQQ2zvKto2ibqKIecWMqT9Tyo61lYFJyLxNy+ItkD46j4298sh7eYny3KadXb50T23pD3TBxKRERENCkwsEEpw984zypAbf5S7KtoRFt1I855t2KnGimSi5nT1DtCDGK/7JWgn1ldvq0jDUEK8JM8HWjoinCl3nH2jjjLm6aHaQyeMnJkhLmBvb1d6pEnb479sBlpsDXmYMTFwUuqwecpfhL7SuaiMoZhLpQ8jCEhw2h706E3wrUh9OuHfqULUSd7OchgiG0vhwDbhJtmsKAwG/3NRjAlsjI8rHKNyGExjSqZathte3XQ8BKTsX2yJ0fkHi9qqIqdGcYwGyYOJSIiIpocGNiglCETa+6r3opzVQ3YKXNRyDwSQbkvEiUfM9XQjwF85dDTIZEqM42r1b7bTt0/hNv6irzMF6IWhIu4fqhbx7HybDtOjORiSbHMqSH2q1fcqmVuDQY6klsepquOO/Z5MJx4FhjDTPo6Lzv2YjB6Sgzj66+N50F0sEAOrwkaNuJEz0oSP3P7ruJTh+CJuS39ffavL1Z5Qhy2g4iIiIjSDgMblBpUfgqdWHOkCyd6W7HlbDPqxW1e+w7/EA+Kw63jWNe5A/PEPtzSK/bpyCB8mYFAR1vFXOfeIfQ90kNCznzlPKuHzVAMs5fH55859YDIwyPV8j32ARMzWOC8fjBzOInMnyGH5US6BffK0NsXIcGnuS32gQt3gR8iIiIiSl0MbFAKmIt9KummTMZp5JBY13Ne5ZG46DgcJBEi5OwYB55pTtO6COZwlZEBXFYLEkjsQ5kzZF1nE1a2y0BHK06MiPrk1mF3QmdGoYTQPSEch2EIi+uMIR7xDcWIFFBwHywIzZ8RldnTwzE/RrS6xBD4ISIiIqK0wsAGpY6RS/goKImnqQCz9KPEOI9jqgdILtaWO0wFK2UVJKRHg5nvArmLHKZ0LcAGOUuJ4Bu4EPcsInYq8yP0xrh1HuvMnB6Rgi1ZemiQdyvaUiEAEmEYT0TxridnRdll5JB41TodaYKYPSGchmHIGUXUjCFqKIdaYpGNGTP0wyByphGdWDRS4tA4pkn19X2r7ouqZztO9evxhk8D7O/p4RiUiVIXs7cKEREREU0aDGxQ6sj0YrfM/6CfGlOTrkabnGI1wak2jvS2G407UWZL9WpsyLc23HW5VQ1oqZirl43BreN4ywykVDVin7UsOd2rfwrZLryViJlK5CwsZXVo8TYaw02ygoMSlaJMo4dM5LwdtcV6aJAgk5DaB2WSwU1c8c8qY/n9iO2sjVhnd+vJ3hJqqlWhaMUyrCk1HieKmVizpkEGTsosgQEZnFjjnwa2o/nDoB4LPX3D6r6m4XEsttTJ45WBGD19qmDbE8TNLCPtX6FD3hdWY/euhcFlyqleRV13N6zGKq9eqEUeZiKYPVYi5ApR5tdgjTcQWDLKFPXQz4mIiIgofTCwQSngPN7oNZJoeGT+B5nkUt0a0CIa4B7R4Jc5IhJKJ9c0ghvlWFvWoMu0ljuI/b3n1dvH6sglc0rXXCyxllVVp4Maoqyz9jOtxE1s26ZuI3GoHG7SUmXdtq3ieZ1/qttNaTHl6w18NGDz+xHbubM4UmDK7XrjSQ/D6B9GX78MnDyG3f5ZRmRwwgh62CX49B3uMAINIbOU7G6ohpqS9agMfDjk0DATh0YY/hKuG6+Y08cWVgeXuf0xrBR17TvzMQ4H1TP6kJeoPVauXcbnakqYbKxsWB1SZjUeDgmkEBEREVHqY2CDUsLFnibUd3fBpxr/2kiXP+fGEevyRJHBjXYjsWZQuRiEb7AV9e1NDtOzunEDezt3iG2UAQe9SBmPssT+vGkkDjXKMxrvJp/er/WdEaa6FWSvFrOuvt53E1q/RFO/H/k96ueK3M7ByDPJuFnvZGsnOvRcq31Hj+FgQhNY6mEYNzrwwuZDaDozjD7jBaXvTCeatoUm4zR145VtH6NNrOPXP6ymVN20+UM9rMM+oBA1mOCk/UPUizI7RDlW/nq+1h3S6yL6kJeoPTowgINi3wRtp9DXf1WVGdOMLkRERESUUjIemFc1WlLiQU9PxE69KY3bR0RpoXQhXt1eDRw95BC8ICIiIiKafNhjg4goRXgW3KeGhMTdc4KIiIiIKI0xsEFElCKiD8MgIiIiIpp8GNggIkoJ0RNrEhERERFNRgxsEBGlhOiJNYmIiIiIJiMGNoiIUkI3Xnm6CfWbT4fMJEJERERENLkxsEFEREREREREKYuBDSIiIiIiIiJKWQxsEBEREREREVHKYmCDiIiIiIiIiFIWAxtERERERERElLIY2CAiIiIiIiKilMXABhERERERERGlLAY2iIiIiIiIiChlMbBBaaAAG6q34py3ERuy9CKiNJK3ag+eP/AHLPfqBRSBB4/s+oPYXxtRrpfExLtR7ePQG/c5ERERUfJjYIMoLejgTvVSVOolJKXDfvHg/upCcd+P4a+NJRRJMbLV7rqOQWNBTPKKivQjqw581a4fJlppPZ6yCaTI21O7NuIRr0e/MXkYAbY4A0ZEREREE4CBDSKipGY21D/HX64ZSyiC0unIlvc3rmNALYjNwOGNeP3pn+vbS+joFwvjDI7EZYaup43swhrUNLyMp1YlU3BDB9jGc58QERERucTABhFRMnPZUJ+s8hY8pPbXlS9OGQtc0cGkcdznZg+RK81mMEXftr2EY0dlVAXIXvGzJOodMf77hIiIiMgtBjaI0kI+Zmbqh2Qxhv1SuhAv7mpEy4FGvLoqTy/8Hugr+8N9vcZziii3SHVvGduwHe8CzBR3YwuOROZYz2s+dB3+ndFjBEXIKVVLv38TsE+IiIiI3Mp4YF7VaEmJBz09Pr0o/XD70kUBKvMXY3dxOTy6seobbMdbvceB4q3YmTuI/WebsPeW8ZqpskQ0TosReC1rLjYUL8KjubkwO3r7Blux6dJ5XNTP/ezeO9KFT3pPYu/NG3pJuMr81UH1tOPrbcbKHufPiEqU0RalDD+xffPE9oVxsX1j2Z+u94tDPd/qOoQjId93QvaLsHh9Ixrn6ycYRtu2gzg4bkNBPChf/xs8OL/QPzxh+Mx7+KK1BYML9qB+RaG6sv9BSL4HmfOgfgXQsW0j/izrVroIy5+tw8xC2WgW+jtw7M096Aqrt3N5XTM24vmGosBnBkn29WTi0JdRUyi2++k9GPTWY8ETPxX7w3h1WOyPL2z3R7Cw/RqDPO9G/OSJGqNXg9KPK0db8dnhUzY9HILr2aWXWpWv/wOWze93rEN85QXkid/I/XXiNxKyTz96rSVkPfFb2mX5LUXkvB1EREREE4E9NihFyCSQDWgpC26wenK92FnViGem6QVRyEb5uao6rLU0kCX5OLgRLsqrcHhvZjnWljVgX75eEKJWrBdaz/Hivgz322cV+/50v18cyxD13Fm1FW0lBXpJwETs+4RRSSRfFo3YQENTyp7/UyzbvhELVOJQ+ySWxlX/PgyJhq9K7Lj9ueCGqHwY2iiOWN4eLH+wRjwzPjNIlHpO7HpO9dTDJc5cR86uP6C+IRDUkGTuCrnuI1F6QVj3a3QyACDLsgYZpELMXPEc6nfVI6y/T+lCo15nPrMPBohtf1AG1WzzqrgoT5FBoj2oF7+RGpt9Wn8gZL/IIVAxBTUE5t0gIiKi7xl7bKSBydBjo7ZC9siQjwZxovtdrNO9CSqz5uK58josUQ3ZSD02cnFisAtLcsuBkS5s6TqJI7fMXgEF4nNu4KJ1vfzVOCca4UavgOD31pY8iZ3i8yCaJFvaD+GI8YJBr6fqIupp9nqozF+K3WVe0bSwWSch5mKfV+yHkXbUdx4P73kSyu32CWPZn3HvF8t6J3pP4Y2eQC8Q1ftDvOZx+N4Nce4XKzkU5dlq1Ii2Xd/RQ3jh8HhkFhCN1APPqS7+6H8Px95s8fcmUFfkZeNVPhGvtWwOvaKur/pDvPb+dNXQHT7zBj5qPYUB9RmiIesV32K79djgtrzAev4eExO0Xlz1lMGQ7T81XpM9GJp/h8/E9qvXVW8W8ZkqoPAGXn/NaUiFLjvie0xmPXVvic/MfS+I8h4R5cnfT1hvG7ENz8vv6+hLeOew5fspFd/Zgp/hwRXG9oX30nFZnvlbUXGKkP0ifyerdJlh34NJl+v4OhEREdH3iz02KPllLcUzOqghG7BmUEO6eOs81nU2Y/+IXhCBbITLYQ7zOuXwhcBnACGNcOnmIdSf3YGVNu890tOELeryZB5mZamFfpWZxrXSE92ioW2t583jWNktr82WY1kMPSHGncvts4pnf7rbLwXYUCyDGsZ66yxBDemi2AZj3Vw8mhvea2PMrp3GK5ubUP900zgFNeRwA9lIFWQjWjQYzca7NNC+B+80d2BYPrFN2Kh7J+Ah0dAvEo1V0UgWDXF/Qxe+kKBGbOUpIeWZ68nAyTuvOa833Hk6oevFW08zcagKeDy9UTTuzca7cO0UPnjzPWN/Fkx36NUg6GStseQ0MerZgWPbRFlyCIilnrK8P+vysousfY1EPXXi0OwVLwdP9br9ZSxTQQ0ZuHgpbOiR6/JW/cYIatjtF/k7OSz26bY3VADJuj/9mMCWiIiIkhwDG5T8puVBnaYPnnK4Kh+jwda4clr4G+dZBajNX4p9FY1oq27EOa/ZeyQXM2McAmNVmjkOjXAXxrx9ce7PaML2S9YcPCp74oy0442bxqIwNy/ihLjz5M1BpbEkdfiHG4jGZoSeAY6NbLOxWViI4WajsRpRjOVJQQkiLet9FGW94T5r74OxrxdXPQUzIWeHUwP92nUjsBGJP1lrlP2JRZgl6wk5vMUSnAgKVJi9R4IZ9bQjAxpvoEUFLkLLd1veIixYIcvrwLFIvS2unQoKIAXR+4SJQ4mIiChZMbBBSc+82u+77dS6jU2868thEvuqt+JcVQN2lnmxROZ4yFQtfkcXR4xmw5Ky1ai19nbImot9akiFaD+MJC4YMBZuts8qnv3par+YAa1ML1q8op62tzosUW9OPWbvgtDeClbmlX3bRrbZALe5sm8n9vKCZ+pIlfXkkIocFRuLNTeGvXKVu8M+p0kQPUtI/Mx6yoSb5hSvuidJ/+dG8k+7+rstzwyAOeXziIGxT2xmcCEiIiJKEgxsENnJX40W2dhXPQa6cKK3FVvONqNe3Oa179BDNWzcPKRfMxJb+hvgVboBPtjq3PtgIrndPrdSZb9MILN3wZXPnHoGeHB/hMShZmPTef1gsZcXHBhIlfUCiUMjNOCjDqnQQYcYkmGaQSeZz0IFJyLcgvJo2NXzWgu+OCPuCx/C/Q6JTV2XN+bpghMTMCIiIiIaTwxsUMrwTJuo5BRmLwKZ6NLIISHzO8g8EheDckk4MZpEwc0ymfyyFfV2U8omUmYeZuuHzsa6fW7FuV9uDxjvlVOytu+IfIuWGDSm/ZJsdAPYtpE9Ho3NSOVFYM7wMVHrOdUzhtwY5XXGUA3nIRX6s+PIJRGazyIq3fMitJ5dX8i8IYWoqVtkLHAQd3ljZhOIISIiIkoyDGxQ0rs4eMlo4OZWolYtCZGVj5njMb3nyCV8ZEl0GVCAWfpRmPzVKj/FfpmYM6jxHZ780lGWHiLitZ/KNLLICT+DuNk+t9zsl1sX8IlMCpu7CBti3SZHcewXk5wVZVcjWg404tVVjqkmx6gQ2TP0wyByak6dQNO2ke0yCOG6vELMXGDToFYzcei8DgleL956mkNYnMjZVJapHBURhpk4BB3sDPT1qfvs6oWOiUjzvJ6w18yeF2HDi9o/wxV5P38BjMFZwdyWh6+NvCLZK35m+7mK+D4cf+FmLxciIiKiJMbABiU/s4ErhzFUB+dokFN+tpnDGRIt04vdJXMtSSkLjPKqG7DWIRWFkQ8kFzPHMEtHbbEeIiJ4ip+MsVF/HsdUCzcXa8uXhuSxkMlBberjYvvccrdfbmBvrzHrydqqRuyTdQ3aF3JqWlFfr/hN6CXhXOwXbXGdMdWrVLRiGdY4DBFwa7CvX93PbNiIcstn53nrsXzXy7oR7tDIjjqkIpzb8oyeBLJh/DKeWrVIrCsazzIwsX4PntpuTC8qhfaCcLue23oaQ1gC5QUa6jIYskdNhytdad4TteeBDB74y5ZTsHptgjNmIKLwp6jfVR9cV72d9Q0vY4FXL9TMoTbh+SpO4Ss5HAU1mBWyjuKyPDm7zxW1S2uwbJfcp5Ztkdsm1ntefB8/WRWlJ8j8Ojxi2Q9GmaIe+jkRERHR9ynjgXlVoyUlHvT0hFw9SiPcvjSQtRRtVV7RRLEhc0TcLseSXGM62NCZUypLGtFSnKumJo11Fg9zHVuivC2iNbmzuBwnundgnTU3RKR6aj6x/ie9J4OmPbWqrTBnJZHst8lWxLJFndsP4Yh+5nr7BDf7cyz7JWJdJbHe/q5Dzvsojv1itXh9Ixp1I1o0o9G27SAOJjTHwCIsP6B7H4Tq78CxziIsWwF0bNuIP4eW692I50VDXSYODc7fEIn78srX/8EfULAaPvMevuh7KMHruamnB4/selk03TtE47/GGOISph9Xmn8XZfYYh7LlDC12M4ro78GJnOZWzggTWE/Xs1AmDrUJsJifl7DytNJ6POUwQ4skv4+PXnOaMcWss34aQub8iCV5LREREdF4Yo8NSg23jmPl2VbsH7R2vNf5GToP4Y3b8XXIj+ZiTxPqu7tEY1svkGQDWuekOGJdbnXrAt4KqmM4T2Y51pY1YJ9DypAjve04oT/f1/tu7FPc6n10YiS4fBkw2N99Mqjx7nr73BrDfpF1nae/+6AmqdhO8/uPuI/i2C9WJ1s70WF0HkDf0WMJDmpIp/DBtjfQcUYXIvXLxvdLolG7Rw8xsc+h4TicISL35XW99nO0NL+HK2LdYbmOaAgf2/YS3nntNHJsE3ka3K3npp7G0Jzhzj/ig80v4ZgsT78iVlYN92PbYpgSV5Ut6msperi/Ax3vO8zQ0r4Hr4u6XhH1szLK+7nYztAgQ5QhRO1/NH5zTklE4y5Pu9aCd54O3S+C3DaxX99xDGpIPvxZ7NOg70OQ+0WWyaAGERERJQP22EgDk6LHRkoowAY5jAPtorHtlMyyALUVDapHRlw9HlIa90v60j0cnHoYOHK7HhERERFROPbYIEqUrDl4NFM0zAcuREgSegOXE9y7JOlxv6StvFV1RrLNToceDQ7crkdEREREZIeBDaIEkwk/9+UXWJJyGiqz5mJDhZkvogtvTbJeCdwvKUjmZjiwB8uDknEKZrLKFXJcRQe+CM3z4XY9IiIiIiIXOBQlDXAoSvIITvzpIFqyyzTE/ZKioiSdlPkrbJObul2PiIiIiMgFBjbSAAMbyaUyfymeK65AaWZu0Ewc5qwfH928EWFIRvrifklVckrQ3+DB+YWBQIVM5tnZis8OOySrVNyuR0REREQUHwY20gADG0RERERERDRZMccGEREREREREaUsBjaIiIiIiIiIKGUxsEFEREREREREKYuBDSIiIiIiIiJKWQxsEBEREREREVHKYmCDiIiIiIiIiFIWAxtERERERERElLIY2CAiIiIiIiKilMXABqWBAmyo3opz3kZsyNKLaIKY+34r2krm6mVEySIPa3Y1ouVAI15dVaaXEREREVG6YWCDiNzLmoNHM42HnuJK1BoPU1QGin/1Ayz8behtKub9aiqK52To900ypQvx6gEZHHgci/WiUJ5Va3TwIE8vseH/nCjvS6TS2Xio0HhYtGKWY/2JiIiIKLUxsEFE7t26gE9GjIe+3os4YjxMMxnIzMnA9OVTsfBXUzBNL500rp3GvqPD4sF9aFxv0+uhdCHWrcgWD66i9fCAscyGZ8F9KNKPi6pnw6Mfj6trl/F5v/Gw7+hXOGk8JCIiIqI0w8AGEY3BDezt3IF57Tuwsue8XpbqRnH5H77DafP29h1c/nQUKn6TMwUPTMLghu9wBzrkg/k1WFOqFvktrqtWAYuO5g8jBA7y8Eh1NtDfiTYZJCm8D4+EfM74GMDBzU2of7oJLxzu1suIiIiIKN0wsEFEqaF0IV7050uYoKEM0jejGDh1B+fevusPbsyYo16ZRLrxSvNVcZ+NlXWWXhviO6mbL+77O3G43VhkSw8J6eu8jIOfXUWf+JyHFkzgd0hEREREaS3jgXlVoyUlHvT0+PSi9MPtSxcFqMxfjN3F5fDovA6+wXa81XscKN6KnbmD2H+2CXtvGa+ZKktEY7gYgdey5mJD8SI8mpvr7w7vG2zFpkvncVE/97N770gXPuk9ib03b+gl4SrzVwfV046vtxkre5w/Iy5x1VMm/GzAWlG3E907sO6mXuxnvh66PwPr2Ym+PQWoLVmMZ/Ks+2VQ7PtT2NQr9n3I9xZq8fpGNMpGtDKMtm0HcfCafpoQMsfGVEzPkT027sBuUMW0RVPxwMMZwNBdfPn7u7itl0vGa8D1t++g9xux4F7xeX8zBTmzM2Bu7sjlO/hL62jQeorde4dGMXT6LnovjOol4abNmYr7F8qhMnqBjZFP7+DcKefPiJ1MxLkaKwtl74wmvNIe+E7M5468j6Ol4T79vjK8eOAx1PR3YtPm0wg/coWXE8x8PfQ3EFjPTt/RQ3ghwlAZuf7iVQ+hrvo+FPk/Yxh9Zzqwr7UbvoT+1oiIiIgokdhjg1KE0ahuKQsOFnhyvdhZ1YhnYhwbIIMc56rqsNYSAJDk4+CghiivwuG9meVYW9aAffl6QYhasV5oPcePm3rK4SOtOCEeLSkLn0mmsuRJFbzw9b4bFiRyby72ie9vZ1iwR9Q5tw4t4jvcV1KglyWv213mkJSMiMNRZJBj4S+mYrolUCHJx8FBjQwU1zm8V+f1KHPoHZIn1ntgeeSgRmIN4OD7stcGUPPEQnjM3hpnPo4c1BAWP3if+PcqPlXv68anZ8Sd43AUOXzkYzX0paZhTdjQF8+qZSp40Xf0WAIDW2V4cddqNK6wBjWkbBTNfwy7t6/BixPZS4iIiIiI4sIeG2lgMvTYqK2QPTLko0Gc6H4X63QvhMqsuXiuvA5LVIswUo+NXJwY7MKS3HJgpAtbuk7iyC2zd0GB+JwbwT0G8lfjXFm56vXwVsh7a0XDf6f4PEB8Tvuh4ISZej1VF1FPs7dEZf5S7C7zwmO3zli4radk1nWkHfWdx43ATtZStFWJelqXRWHu30g9Nsz3GPte1MXSC8TshYOBKD0+5FCUZ6tRoxq10a6+uxG9x4b1Pf6eGZrZm2Po8qjqeYEh8Tnv38XAN2ZviQxMu3cUty3rYM5ULFyeoXpnXA95b96iKZgte4eonB8h9dHrydeufxDo1TFtzhTcv3wKMu3WSRCzl0ZfP1AU1mvCju6hceZj1L+m81zoHhwRv0f9HjnMxd+zQ/wGXt1ejSLH3h7h5Iwtu1dkRyzLfA/6r6LpzQ9x0tILxON9COueEPXoHI/fHBERERElAntsUPITje1ndFBDBi7MoIZ08dZ5rOtsxn49M0ckMqghG9/zRAMlEACQQoIa0s1DqD+7Aytt3nukpwlbBuXjPMwK7e2QaVzVPdHdFDQE5OLN41jZ3SUelWOZQ08PV1zWUxHrqtczvditeksUYEO5DL6I/dwVW1AjXr4BGXzRTxSx70U9VnbK5KPW+tu4dhqv+BNBft8NzAzorzqMDGrI4R+nf3/HEqiQQoIa0oU7+PLt73DO5r0yr8fly8azzHuNe9M09fcADH1wJ2ioyu0Ld3HuA/k8AznjlAfkZGsn+sS96tlwpiN6rwnvLNSIu44vLMk7279SPTIizo7S/iGaVM+OaqxTvSXysOZZmah0GG1vxhbUiFdf5+eWoIY0AJ+oxwvid8egBhEREVHyYmCDkt+0PKPxM3hqbEMjBlvjymnhD3ZkFaA2fyn2VTSirboR57xm75FczHQxPUZpZmKHXIylnkcuGUNSPMVPivWMISgqKDOW/Wzj4uAl1RBV5ZTMRaVdoCVdXI4vp4U/2HFvBvLmTEFZ3VTM+9VULPztDzB7tnzBOYgSSWau7NGReNZpW1GQ4xyY0IKHoZiiDUcxnHzNGJJStGIZXlxvDEHpaE50bhXApxKa6nJWlcEzITO2EBEREVGiMLBBSc/sBeG7HZblMi7xri+Hj+yr3opzVQ3YWebFEpnDIlNfKndwccS4qrukbDVqrY33rLnYp4aoANdGYg+uxMJNPQPOY93ZdviQq9aTwZ/wZKIJcOs4VopyToyIcoplTg1RX6+4VcvcGqkY6BiF/qrDjKheMrGTw0fKfvUDlWdj9nKdQDQnclDiti4jZ/lU5Fl7c9ybgTI1REXWI/bgSuzKsEoP2WjTvSlWeY1X7JXhYZXw9T40HmhUM9qYNyMRbLTZUbrxyjbZQyQbNfNFuTHk83Dl2mm8IMrp6BflrJA5NXQ9d8ncGgx0EBERESU7BjaI7OSvRosMEsjcHSNdONHbii1nm1EvbvPad+ghHjbM4R0ox06z8S5vVXVYIhcPtuKNRAYO3NbTojK3InDVfVo+KvXDhLt1HOs6d2CeqNuWXlHXkUH4MgOBjraKueNXdqLcm4EcnaxzJHRYiRtzZALQKcZnyllQPr2Dy2/L4Sl3cPofvvMPRQlzwRymkoHZv/iB6t2hbr+YClW9y3fw9QX5ILE8q2qMYSXvf4iDekhKTcPjWKxetaGHoUQScTiKEG8PEdfMoU7bDqHp6FV09A+jrzAQ6Hh1fdn4lU1EREREY8LABqUMj2h0Twyzd4VMAGrk5FjXc17lsLgYlMfCiRFNCM4BMKiCDvV2U8q6NtZ6CjIwIpN6DrZiS6+otz/fxjgSdTvSI+ra2YSV7TLQ0YoTI+L7za0b/7LHaFq5nrnk8t0EJOY0e1fIBKBGTo7uU6Mq18btoHwbToz3BKeXMYIjX9pNKTtWpQuxTvXW6MRh2Wvi2mm0yl4buA91DjOGGMNQZIJRIzdK8O0Q2vrFy5GGo3gfN5J6nvkYTUeHLfk2xtG1AZw8/CFe2XwQL8h6bvsYHTJR6vzHxr9sIiIiInKFgQ1KemZ+BuRWolYtCZGVj5mqtZlgI5fwkSUBaEABZulHYfJXq7wW+2VCT9lo99+aVNAhpqBGlh5a4t2Ktlga+m7qqZiBkS5suXQeR3reVUlYPcXOU9m6VZkfoTeGTADbKxOrRgleyVlRdhlDBF79PhqY907B/WqWEmCoO4HDPIZGMWhJABqggyh25kxV+Teuy8Sj//Cd6t1h3IzgSExBjTj35+I6mbhT9tYIJO605sAInZbVPwyl/yr+bJsTYwB/7hwW907DUcrwopwVBVfR9Fo3Th4+pgIhRStW48WIw1/i5/FG6I1xrRuv6Glui4ombG5dIiIiIooDAxuU/G5dwCfqsnQ5dlYH566ozF+NNnOYR6Kp3gvWBrmcmlSUV92AtQ4pLIx8ILmYmeu+50FtsR5aIshkmxui5Z9wUU+ptsLYbye6zalgb2Bvl8y3oXOEqGUJkCWnuq1Di7fRGG6SFbxv5JS9Zv6RSHlQZMNaTvUq2Tekx4lM6rloKub9Qk6jKly+g+5EDvPImYL7F2UgkN9VPJ5jJBCdrpKHhjNmRclAZrn7BKFx7U/v40ZODLO3hl83DsueFMjGyroyY5FJD0Pp67wc0nspwJ+002Y4yuL1jxnDXpo/xEm1ZAAH34xh+Eu8ZE+Uhsew+8AaY7hJaXCQxVNqBljEtvQNqXsiIiIiSi4MbFAKCDS4RUsuKHdFi2gQe2RuiRhyScTuPN6QwzIEj8z/YObJ8DYY5ckeDrqHQSizd8mS4gZ/HUNvbdWrsSE/EUMu3NfT7FkSliz01nFsUp8p9nPFXGPZWMnP7DYSh8rhJi1VwfumxQxMjbRjUxyz1oyfDMw2c1bovBWzHzZ6T4xcvquGeSTGKL7+1PiszIen4gF/mTLvhixvFJf166Fud42qISg5Yj1/PUNuMjBSPMd94CMgD2ue0ENKbKZZ9R3uUL02ML8mKDhiDEMB+vsiDNq5NgQ5GiVsOIoZSAlNFnrtNPapQMp9aFwfEkhxS35ms5E4VA432b19tT/Bqbzt3m4EWGRQZx+nfCUiIiJKSgxsUGpQs2q0Yv+gNYKh81Z0HsIb5jQRCXKxpwn13V3wWRMYjHT5c1kcCU5sEHDrAt4KqmM4T2Y51pY5D/c40iuDAMZjX++7EadedVXPrKVoswxBCSU/UyUdza2LbShMDC7eNBKH1qsAR/D+8en61ncejzhU52SrbHwaj/uOHkv4lJ/ORjEyNKqSep5rvZvQ3BW3T93Blx/Iz9cLJFGWmXNjwOmn9I14z+XIARY5s8r05VNRNkcvCBHr/vSsMqZZxZkOh/d045VmOVQjGyufXah7XpizoYRO8xpKT/tqHY5SuhCvWoaghPIdPogmuc78xxI2JMnXbiQO3aQCHDJwEtAnZ4BpPoRNm8ODOkRERESUHDIemFc1WlLiQU9P+p6ycftoYhRggxz+gfYIjfQC1FY0qN4Svt5mrEyKHgqUWjJQLIep4C6+/L1ToCUDeXVGHo6RT+/g3KlE9TIhIiIiIko+7LFBlChZc/BoJuAbuBCh58ENXE5w7xKaZPSUsyN/iZQkVLw2yGAGEREREU0ODGwQJZhM+LkvvyBsFhCZJHNDRaMxvSq68BZ7a9AYZD48BWVzrElHDdPuzUBx3VQ8oGZwGcV19tYgIiIiojTHoShpgENRkkdtxVYjKWckMqdE16GIuTOIIsmr+4EaZhKRzNXx/h30fqOfExERERGlqal/VVDw33/0o3vwr//6rV6Ufrh9NFG6B07ixH/8APnTsoAfTsM9erkkk2T+j6v/A3//1ad4///qhUQu3L50F0PiT/6HMoiWmYEfGosVmej0m0/uwvenuxhk8IyIiIiIJgH22EgD7LFBREREREREkxVzbBARERERERFRymJgg4iIiIiIiIhSFgMbRERERERERJSyGNggIiIiIiIiopTFwAYRERERERERpSwGNoiIiIiIiIgoZTGwQUREREREREQpi4ENIiIiIiIiIkpZDGxQGijAhuqtOOdtxIYsvYjiZO7DrWgrmauXjaeJLo+IiIiIiNIVAxtEBGTNwaOZxkNPcSVqjYfjZ6LLG09ZS9HmlUGa1Y7bUVnSqIM4BXoJERERERElCgMbRATcuoBPRoyHvt6LOGI8HD8TXd54unUcm3oHxYNy7Kyw6X2StRS7i3PFgy681XPDWPY983gX4sVdjWg5YN7W4MVVZfDo14mIiIiIUgkDG0Qk3MDezh2Y174DK3vO62XjaaLLG18Xe07hhHyQuyhsOFRtsVcFDE50H0qKAI5n1RrsbqhGTaFeoGSjZsVj2L1rIYMbRERERJRyGNggIhqz81jX3SXuc7G22NJrI2spnpGdNUba8cZNY5Gj0kAvildX5emFCSbKWLciWzwYRsfRQ9j0dBPq5W3bx+joF4sLq7F7fZl6KxERERFRqsh4YF7VaEmJBz09Pr0o/XD70kUBKvMXY3dxOTw6P4NvsB1v9R4HirdiZ+4g9p9twt5bxmsmmd+gpRiB17LmYkPxIjyam+u/Ou0bbMWmS+dxUT/3s3vvSBc+6T2JvTedhxVU5q8OqqcdX28zVo5haEJthdzmLmxpP4lZFU9iragjMIgT3U1Yd7MAG8KWqdUEmbizAWsd6uZcL70e2lHfeVzsqwJRhydFw926H9vFfpSvWbkrz/X2yZwXVV54Rsx6hjLrE/x7cb8/TYHtPNG9Q71ufGbgeSSL1zeicb5+gmG0bTuIg9f00wQxy+g7eggvHB7QS01lePHAY6gZp7KJiIiIiMYLe2xQijAajS1lwcECT64XO6sa8cw0vSAKlcSxqk41UK1d7uXjsMZ4hcN7M8uxtqwB+/L1ghC1Yr3Qeo6fPDwjG9OqwS3lYknxUlH3kGVlzokt45aZh9lZc7FPlLszdN+I76Oleikq9fOxm+jtG0t5N7C3V/bagFqn0uytMdgaNagxMcrwsAqcXEVrWFBD6sbho8PiPhszZhhLiIiIiIhSAQMblBJqZcNSBQrk1fJmlZtB3urPtuLEiGhcRw0i5GJm8Wq0yCSOI13YcjbwGfPam1HfG5LnIX+xasjK3hmh792iEkWKxqtd4zZ/tWrsy3rut9azux1GnxrZI8BYNpbeGgFy22XPA6Nu+2VCzkyvqHvIMpRjmT8QE8hvYb3V6+2Krhw7q+qwRJYbtI1Go16W/1xQ0Gcs5bnZvrEYY3k3D2GL3Cyxzu5ymVtDrBf623JwsrXTGA4i9B09lvgeE6U5UGk1znyFk2qBwRqY8vV9q+4Li8ZpKAwRERER0ThgYIOSn3nlWzYSz8ohAIGAwMVb57Gu02xsRrYkt1wNe5jXeQhHblmDCjfE5+iHJtFArRcN2ZU27z3S02Q0XpGHWSGJIiszjQahHKpgHapy8eZxrFQN/0Q1wAN8ve/q4RQ38NGAESywLvvqtlqUWDLg0x66jbpRL5RmJm5a04nevrGWd6TXCGKpYNvgKb1eDK6dxiubjZwX4cNEEmBGNorEXV/fkPFcDT1pxG5rTo+vh9En7oqKcoznREREREQpgIENSn7T8oyryvE0Eu0MtsbVS8If7MgqQG3+UuyraERbdSPOeY28CaoXSIxDYKwS2eiXro2Eb5N12eXbOtqQMIPY32U/w0fiy5r47RtreZW5FYFeENPyEzgsJ8G8s1CjHzKQQURERESpjIENSnpmLwjf7bElKoh3/UoZzKjeinNVDdhZ5sWSXDlMQUU0HF0cMa60q2Eq1t4cMidFWbl6aNdwpnQxF8/p4U77ZfwjbFjO988fxGj/HG1q6MswOr7oVouIiIiIiFIRAxtEdvJXo0UGM+RwAtFIPdHbqnJt1Ot8G+aQizD+4RgyD8VW1btD3WROCrl4sDX6tJ+UsipLFqnv+UTvIezVQ1ISmrh1LPQwk4ABHFRDXw7ilXa9KGy4ChERERFR8mNgg1KGZ9pEXfo2e1cMGskxOw9hXc95lWvjYlC+DSdG1CN4At5BFRypt5tSltJD1lLsVr012o3g1a3jeEsHuZ4pSezwI1euDUF10Jg/C4vVgnCeonvUfX/fOOT4ICIiIiIaJwxsUNK7OHjJCBLkVtpf+c7Kx8zxmFp15BI+siTHDCjALP0ojJoVBWoGjZVBs4A0qeBITEEN0UBWQ2C8W9GWDA3iVHPrJtSEInJaWrUgWGXJk3qGncSqLZazoMjeGsf93/ORS604Ie49xU9iQ0ii2TClC/Hirka0WJN5JlQ3Pj0j7+9Dne3nl2HVimxxfxWfmj04iIiIiIhSAAMblPxuXcAneorNndXBuSsq81ejzRzmkWhyys6SuZbkjwVGedUNWOuQasPIB5KLmbnuAxKygayGwAgxNYgpxE1cMX8vFZbvL6sAGyoajSl/E00HtPy9NfzO4w01rW0u1hbPNRY5WFxXjRo1HytQtGIZ1pQajxNJTimrZj1ZsRqvrioLJDktLcOLux4zkomGTAdLRERERJTsGNigFHADe7uMfAXIDM5d0VJWDo/MgeGU88IVszEqAwt1aDHzZHgbjPLQhS29curWcGbvkiXFDf46ht7aqldjQz57Yowf8Xsxv59cy/dXJQNSuZBT/jrmSHGlABuK9dClrkBvDdPFnlOq1wZyF33/Qaprp7Hv6LB6WLTiMTXVq+wh0rL9MSOo0t+JTa8xkSgRERERpRYGNig13DqOlWdbsX/Q2iLVeSs6D+GNBE/5ebGnCfXdXfCpK/+anOlC59w4Yl1udesC3gqqYzhPZjnWljVgn0PKkCO97TihP9/X++7YpridrG4esv3+tsghQj03EjpFrH9oi+N0xOexTtRF9dooX+o4/avsTdGhkmAAfUeP4aAaT5N4vsMHsalZlmUEOAzD6Dj6MTZtPh2SG4aIiIiIKPllPDCvarSkxIOenvQ9neX20cQowAY5TAXtqO8Mv3JvKEBtRYMatiB7DshGNhEREREREbnHHhtEiZI1B49mAr6BCxGShCa2twAREREREdFkx8AGUYLJhJ/78gvChhxUZs21JK/swlvsrUFERERERDRmHIqSBjgUJXnUVmw1ZseIRObq6DrE3BlEREREREQJwB4bRAl05NIO1HfL5J+DYUkYfTr5qEx2yqAGERERERFRYrDHRhpgjw0iIiIiIiKarNhjg4iIiIiIiIhSFgMbRERERERERJSyGNggIiIiIiIiopTFwAYRERERERERpSwGNoiIiIiIiIgoZTGwQUREREREREQpi4ENIiIiIiIiIkpZDGwQERERERERUcpiYIPSQAE2VG/FOW8jNmTpRZTkzO9sK9pK5upllCzyVu3B8wf+gOVevYDSTvl64zt+av0ivYScJN/fQx7W7GpEy4FGvLqqTC+Ll/kZa7CmVC8ak0R/Xuri8TMeHjyy6w9if21EuV4SE+9GtY9Db9znqYjHM0ocBjaIaOJlzcGjmcZDT3Elao2HqSlrKdq8Mkiz2nE7KksadRCnQC9JZh7cX10o7vsx/LWxJHV5UL5qI55SJ87G7an19ShPshMVoyEU54n9WJTW48H58jsGsgumi1O4dLAIyy0NHMdb3IGcJPx7KJ2Nh4yvD0UrZmGx8XAc6JP7XQvFXqDYpNPxcyIUI1vtrusYNBbEJK+oSD+y6sBX7fphoolj5lN2xxNxe2rXRjziTb6/kAn/f8UtHs8ogRjYIKKJd+sCPhkxHvp6L+KI8TA13TqOTb3ylKwcOytsep9kLcXu4lzxoAtv9dwwliU180Tzc/zlmrEkFeV5N4oT0ZexbEWNsT1a9vyfYtn2ZDrZ0w2hOE/sx+TaaVzplw/6caXzNAbUwhTnXYCZ+mEkw329+lGskvDv4dplfK6+P6Dv6Fc4aTykpJAex88JUzod2fL+xvW4jkMDhzfi9ad/rm8voUP+PYznMXSGrqeN7MIa1DS8jKdWJVNz+Xv4f8UtHs8ogRjYIKLvwQ3s7dyBee07sLLnvF6Wui72nMIJ+SB3UdhwqNpir7o6cKL7UGoEcFyeaCYTeaWqvqFGbcfwmTfQsi1wAnzsqDyDqsGypBmCoRtCE7q/ffjzZrk/NuKDwz69LMW179HfsXFrUd8zcKU5sEze3ol3e5Py72EABzc3of7pJrxwuFsvo6SQBsfPiZS34CG1v658ccpY4Mr4H0PNHiKhx5PXt5n/pwDZK36WRAHz7+P/Fbd4PKPEYWCDiGjMzmNdd5e4z8XaYkuvjayleEZ21hhpxxs3jUWOShfiRf840+9xcIC+MhX/le0kUVqPn6xQl0zVSeg7r53CgP/KqQ9dhzeipfk9tIjlSUH3NBjbiT2Fyi0yfgNjHg6Q6n8PY5KDGXI3Uuwm9e8lfgn5O52AY6hjPa/J/1N+Z/QYQRFykmWYI/9fscHj2WSQ8cC8qtGSEg96etLkqo0Nbl+6KEBl/mLsLi6HR+dn8A22463e40DxVuzMHcT+s03Ye8t4zSTzG7QUI/Ba1lxsKF6ER3Nz/ePsfIOt2HTpPC7q53527x3pwie9J7H3pvOwgsr81UH1tOPrbcbKMQxNqK2Q29yFLe0nMaviSawVdQQGcaK7CetuFmBD2DK1WrC4tk8m/GzAWrFNJ7p32Hye+Xro9xBYz47TfnC9fTLnRZUXnpF21HceD/9OHeo59v0Z2E5z/xif6bS/gi1e34jG+foJhtG27SAOjltXZg/K1/9G5VlQVxeF4TPv4YvWFgwu2IP6FYUqKPBByHhl1RNiBdCxbSP+LOtWugjLn63DzEJ9ttDfgWNv7kFXWL2dy+uasRHPNxQFPjNIvOvJRHQvo0ZUx67+UZWK8uqCy5Pb1PH+H/HndrtjrC7vxht4XQVKZE6Pn+FBOfzFeIPqMfKRDK7o5yoXxC7LPotI7M+nxf7UzwLi3C8y0V5DjX5i0f8eWja3RLii52b7gskhQT95wjocqB9Xjrbis8MR1nH9OzPJfBvPiRN7p/0Xynl/Rvp7iJX5t93R3IRXrJ9RmidKFsfAa8F7wni/eQyQ48JXY6XDz6Xv6CG8cNj5GxR7Ex7vQ1j3xH1QbTOh70wnWltPA3XWcozX4H0cr1reG9GZj1H/mnmF1axnoN6L1y9D3fxs0dwzyHL3vXYaqX+24u73kvzHT9NErWcer42/00FvPRY88VOxP4xXh8X++CLi37khbL/GIL7jUnA97Y4n5ev/gGXz+x3r4OY4KOWJ38j9deI3ErJPP3ot9LidiP9XYsPjmSF9jmfphT02KEUYjcaWsuBggSfXi51VjXhmml4QhUriWFWnGqhmQ16Sj4MbwLIh6/DezHKsLWvAvny9IEStWC+0nuMnD8/IxrRqcEu5WFK8VNQ9ZFlZaGJLN9snh4+0qiEXS8rCZ6CpLBENf7HNvt53w4JL7rndPrfGUp7YP73GqYJcp9LsrTHYGjWoMaFUErSXxUlY4ERJMnNPLFCJ7+yTsBlXrfowJE4a5Mnk89tF49F6IiUfhp7URSxvD5Y/KBvcxmcGiVJP2/W8P1NBDdlg/yzORqjKybE9vDxEGj9dulCdhKurs2Z9LY1+KXv+c/iJdV3ZVT2mk0/Bbny0i/1pn2hP1Dtafg032+cnT7T/YAwJCtrcQsxc8Rzqd9WLvzZ7rn5nVuZwgDOfRT95j/I7i/T3EKuevmF1X1hk3WJx4vzsauzevjqkh1Yepsscw/1XY26kOTNOznc3BJ/YF82vRuP2NahzyGUcUyMgkhlleFGU22hpBEiy3N2pnrhvDL+XpD9+SuOynlM99XCJM9eRo44VgaCGJHNXyHUfidILwrpfo3NxXNLHQcfjidj2B+VFCdu8Km6PgzJItAf14jdSY7NP6w+E7Jex/r8SBx7PDGlxPEtD7LGRBiZDjw3zyrdxtfxd0VA0rvBXZs3Fc+V1WKKCCJF6bOTixGAXluSWAyNd2NJ1Ekdumb0ECsTn3MBF63r5q3GurFz1Xngr5L21ogG/UyeD3NIekjdBr6fqIupp9nqozF+K3WUy14LNOi5Z94mx3YEeA3bLgnoNuN0+ydxGa4+IqL0kwpnfS+QeG/JRnNs3ph4b8pGL/Wlhfo5vRAaJgsuISA5FebZaNcyjX7VwS5xkqSvZgmj8H3uzxX81TF1R0nkp7K/k66tWEK+9P12dqKmr9a2n9FAPcSLmFb+aoJ4NbssLrOe/4hfDesZVMxe9NcRnmj0agnsgeEQD5GeoF415UVj41Ti93nB/vzjLEyef6orrH0Vd5T6QJ6byRF88FJ9p9HgIpbfTdn/bGcv3Z6HrHXU/ud4+s576quRn5m9EKF2ER54VJ+vid25fvpvfWQiz3kdfipJTI0H7Mxrv42gRJ+NBVwTF3/ur26uNE2W75UFXD8N5Vq3B7hXZEY8VgV5gw+hoPoZX2vWvurQMq559zAgCRuwdJk7oD4j39Xdi0+ZoVybNK5z6qfxcUeZBs0yxD2SDRAq70psyxvJ7Sf7jZyLWi6ueMhiy/afGa/JY0fw7fCa2X72uerOIz5S/J8fjp6TLjvgek1nPOI9LYhtsjyeyh9+CQA+28OOZy/LM34r6WwrZL/J3YvaaC/seTLpcx9fHiMezNDmepSf22KDkZ1751o1LM6ghXbx1Hus6m7Ffz7ARiQxqyEb0vE7RWPc35KWQoIZ08xDqz+7ASpv3HulpwhYV7s7DrNBeC5lGpFoOVbAO5bh48zhWqhwM5Vjm0NPDrUAPiRv4aMCIw1uXfXVbLQrmcvsUsa56PdOL3Wr6UtHYF2dkHvn9dMUW1IiHq+0bg7GWd6S3Xf2HqXrsDJ7S68Xg2mm84k+glfBTEaV8vTzJEuRJoDjhMU8+pYH2PXinuUP89y3YJhzTV9fwkDhRLRInW+IkTwYA/J/hC2tsxlKeElKeuZ488X/nNef1gnscLMIsddIT79V1cRIoTloleYKptkk9k8TJ5OE9OhFlIWYuCL42Y/aEUFfKxEnv65tlt2lzH4j90fqesT+dxJlo0O3+DGXUO/q4drfbZ9SzA8e2yeSk1t+IcO0U/vymsV52kd21rvh/Z6HMeg/3RX7f2P4e4tD+ldgbQkGOOE5qM+TVv6voOCMehy0H+vqGjOduiQZFnW4EyBN9sxEg+a51i2PNIbQZOQ8Tr/8qmp4WjQtrme0fokluqxB8pdct2UgxchJFu73o1auM0dh+L8l+/Bz7evHW00wcqgIeMpGxv/EuiOPEB/o4gUhTUutjaCw5TYx6xn9c8h8HV7wcPNWr7OGnghoycPFSWJDWdXmrfmM00u32i/ydiP+T3tn2hgogWfenX5z/r8SNx7NxOJ5RojCwQclvmjFuL65Gop3B1rhyWviDHVkFqM1fin0VjWirbsQ5r3llPxczYxwCY1Wa6dBfzqVrI+HbZF12+bbROA81lu07cskYkuIpflKsZwxBUcGcsXw/Dtxun1tjLa8ytyLwn/q0fFTqh987f3dZcbIU4cqW40miebIkGrnDzcbJVkQxlicFJTizrCd7TkRi23CNs5tt3qo642Te5sTUNPDZ5/oEtNhYoBldoGVAJHLPAMeTbp1oMKYEb273ZxhzGsDo01G62z4zwCS7kVsaAUENAvMqrY14f2dh9PaJU++IAa6x/j3EZQhfq9hYNkqMBVj84H2i7GF8Krt1F97n71buKbpH3ff3jbFJohsUONPhcPVyvIiGx5sf2k7ZaHZhT0npfvxMwHrxHpeM40s/Opwa6Neuq+NuRP5krdGOE+6PS+ZxMJwMaMhZt2TgIrR8t+UtwoIVxvHr2OYIvS2unQoKIAWJ5/8VV3g8k1L6eJbGGNigpGf2gvDdHluignjXl8NH9lVvxbmqBuws82KJzEWRqVr8ji6OGAdvlYPB2tshay72qSEq9g3n74Ob7Qs4j3VnZc+EXLVe0uWR+N7MxXNyGM9IF/bL1nWmF88luIeOW+bVsUh5FSJe6TZPICMEAKxiLy+454Db9fwNhziZJ9dXPot2YhzKgxwVo5QNaPt1/dvicNJdrsadxzYjgOv9EibWaQBdbp/Oxu9anL+zcHr7ogS4Yt+fzt9f7AZwXR3278PDqveAHnd+Ywgn+74VD7IxY4ZcDpQUyVpdxaeutj3AbFCM+Upp0urGK08bPdyi3RLRTXzMv5ckP35O9HqB40usuTHsGcfQGHrpuT4uBY6Dx/xTvOqeJP2fG8k/7ervtjzz/7FY8gM5iOf/FXd4PKPkxcAGkZ381WiRjX05nEA0Uk/0tmLL2WbUi9u89h16qIYNc5gGyrGzaqvq/aBuVXVYIhcPtkaf9nMiuN0+i6TtmfA9qixZpL7nE72HsFcPSUlcYtOxid6Aj3yl2zxZijUAEHt5wSe2btdzJ8aTa/9VQeuV2OgNaHNb7E8w4zuxT9h+iXkaQHfbZzbu5LAe1QiIcLPrBRLv7yyM2TCIEriJfX/G0GiKQXDCPWPaQXWS/vWw+MbM5WV4WF39HkaPuKPkMdbfS7IfPyd6Pf/xJVIDPurfsj6GxtBLz/1xyaae11rwhRyGUPgQ7ndIbOq6PNv/a+KRmIBRNDyeUbJiYINShkc0nieG2btiEPu7jZwc63rOq1wUF4PyUTgx/osN/m9+UAUP6u2mlJ1wY90+QQZGZM+EwVZs6RXb68+3MYllLcVu1Vuj3Qhe3TqOt9RPoRzPpMS+idSQHY+TpegNZ1ulOkN96Hpmt+XC6Yi131FsPHjkCdkokSeblr9q84pctJNux30Ww4l9XGLbn/ZXT22Mcfvs82dEk4Df2ZgbBiaXv08Hvs+uqhP+oqIcsW9nQTVzZffsa5fxeb9YXj0bntIcNTGGvPLp1EyMlypvrCxdzslJih8/o3G7nlM9ddAi0t9peZ0xVMM5CKs/O2rvs4C4j0v6OBhaz64vZJaJQtTULTIWOHB3HBwLvU8S9v+KPR7PKFkxsEFJ7+LgJeOgmFtpf+U7Kx8zZc+DRBu5hI8sCUADCjBLPwojGvwyP8V+mZizfYfq/WDcmlTwIKaghmggqyEi3q1oG88GsZvtU8zASBe2XDqPIz3vquStnmLnKXAn1K2bxox5mXmYrRYEM6elTbTaYplAVfbWCCRQteYi2WCXiNVKnDi+uMtIdhc8XVoiFSJbdxENJme40AngbE8SXZ5Euy4vPFGnojLJ63HJYeudwlcqmVcNHrSdflTyhCSh82FI/QnUYJZDgkFrIjfrFLL+K3LRTrqd9pmroTNu92eAcYU1egPL7fYN9MnTXXFCX73QMeFfnjf0ezC5/Z0FxHdlfOz7M+a/22tDolZCQQ4Wq27VZvds3a1bnmwnKtGeYDY8MH8WFqslIUSjQ15ljc09mB5lys3JIZ2Pn5L79eKtpzmExYmcTUXNuBSpx5RD0MGO2+OSeRwMG17U/hmuyPv5C2AMMg7m+jj4tRGgz17xM9vPVcT34XikcfX/igWPZ5TiGNig5HfrAj5Rs56UY2d1cO6KyvzVaDOHeSSa6oUw1zLEosAoT0736XBJ2MgHkouZue4DErKBbExfK04LYmkQu+Vi+6TaCmN/n+g2p4K9gb1dyTTs4iaumL+XCsv2ZRVgQ4X4D1tNZZtgOqDl763hdx5vyB4t4jextniuscjB4jpjqlepaMUyrEnwf7yDfeo0BDMbNqLc8tl53nos36Wn7RRsTxJj7N5v5bY840qYPLF7GU+tWiTWFSd/8sR6/R48Jef01/vIrsFtztKh1l0ffPInT5SfOvAy6nfVBy03y5vZsAfLxYmmny6zXiVyC09wZ3bBduz5YJ50Rxh7rsyvwyOWco1trQ87qR3T9+dnXjkODv7keeV+1k8019tnnvAX/lTt66C6mvu04WUssAskufidBYv9ynhi9mc8f7eBhHsPy3Hnlu7ZJ7+4Kv69Bw8/KJ8N4/PP3G19EH3lVI6Db9z1OBZb6iWnKnx1+2PqKmtk3fhUBQuzsfLZhUGfgdI8LPZGaPikmXQ/frpdz209jeNLoLzAL0kGQ+Qxwvh1XmneE7XngQwe+MuWU7Baj+Mml8cl5+NgIJBuGxR3exy8dhpX1C6twbJdcp9a/08y9s3z4vv4iWPwXovx/5VQPJ5RqmNgg1JAoOGMzODcFS1l5fDIHBFuL+/ZMhuj4oBZXIcWM0+Gt8EoT/ZU6LX/r9bsXbKkuMFfx9BbW/VqbMgfx54YUbnfPn8DPjRZ6K3j2KQ+0wgmfL/E78Wsf65l+6pkwCYXcsrfWHKIxK4AG4rl6YL9dLcXe06pXhvIXTR+QaoYDBxuNU605AmTJUt7fcNPRQO1A8fUlKYOV7pddO93XV77HhxTJx/ypPc5se7LqJcn1vPF2daZ9/zr2Ta4r7XgI/W6WHf+c6jXZRrlGtPyhWXg95dXKE7OLdP5mWXKdbZtxJ+DGsrRG9COV/pM/hPYQtRYyjW29adhJ8tj+v78fPhLp94/okER+IznMCvoiutYtu8UPjCndxQn9UF11ftUTidp7f3iF/fvzINHdgU+//kDL+uTcrGP/MvELSSYJSVmf8YjkHCvRjb2rN2z1bj0bLH8PvHkW1yPEpSJzQAOvtlpXOUsFI2B7cZVWHnb3XAfivr11IxRnGw1P6M66DNatq9GY8ND9ldP01DaHz9drueunvr40t+hjoGyvMCxWgZDjOOunI0pYqJVS/DAX7acgvUJu14Sbo5LkY+D/qD4E+HHF/fHQZ9/GlgUyn1q/T/J2DfD4vv4yGmWqjj/X3GPxzNKTgxsUGoQDeeVZ1uxf9DaItV5KzoP4Y0ET/l5sacJ9d1d8Kkr/5qc6ULnpDhiXW516wLeCqpjOE9mOdaWOQ/bONLbjhP68329747LFKquti9rKdosQ1BCyc9UAYPcuvEdQhOLm4dst2+LHCLUcyOhU8T6h7Y4Tkd8HutEXcSOwdrypY5JVuV/uB3qhEScRh09Ng5TmokTrW1viP/8dSFSv3Hy2LJ5j+4ibX8CF7WRbst9eV2v/Rwtze/hilh3WK4jT6y3vYR3XjuNHNtEdAEDhzfidVHuFbFegPgccRLZ8nRogMJglNchytILJFmunMrPdp3oXcuj9niQJ7CbXwreP8KwONk/tu3nNif07ven1cDh34kGTPC+kdsZfII9xu0TjaTw70Bsm/oefy6+x1PBwSUt/t+Zrmc0tlfKE7M/4/m7Na5kGjq+6NaPBLNbt5TIRHuikfPCto/RdsZI9GcYRsfRj7Fp84c4HMt0hfozOkS9rPpEQ6Kt+XPbaRDTU/ofP92t56aext/tcOcf8YE4BsrjUeDXJR6rcmOZ6lmWLeprKVoePzved+glF/dxKcpxsP2Pxt++UxJRl8dBGaB/5+nQ/SLIbRP79Z3XIkwDG/f/K8F4PKNUl/HAvKrRkhIPenriOeCmFm4fTYwCbJDDONCO+s7wK/eGAtRWNKheD7LngGxkE1GsFmH5gecws/89cdIc6eSOiIiCuT1+8rhLRKmBPTaIEiVrDh7NBHwDFyIkCU1sbwGiySRvVR1iyltBRERB3B4/edwlolTBwAZRgsmEn/vyC8KGHFRmzbUkr+zCW+ytQRSstB5PHdiD5UHJ5AQz2ZpK5NmBL5zGFxMRTVZuj5887hJRmuBQlDTAoSjJo7Ziq5FcMxKZy6Lr0LjkziBKafIEe7ueVtCWXSJPIiJyffzkcZeI0gQDG2mAgY3kUpm/FM8VV6A0MxfWCbl8I134pPckPrp5I8JQFaLJTk5p9xs8OL8wcKItk9F1tuKzww7J1oiISHB7/ORxl4hSHwMbaYCBDSIiIiIiIpqsmGODiIiIiIiIiFIWe2ykuOH7/1o/is/7Wzaq+//6y7XqnoiIiIiIiCgVsccGEREREREREaUsBjaIiIiIiIiIKGUxsEFEREREREREKYuBDSIiIiIiIiJKWQxsEBEREREREVHKYmCDiIiIiIiIiFIWAxtp4sfLf41/et68rcbfP/W3+HGefpGIiIiIiIgoTTGwkZbuQUG2Bw31f4sf6yVERERERERE6YiBjTTxLx/8I375ur61HMcHw3LpPZjOXhtERERERESUxhjYSEcDl/HpV9/qJ0RERERERETpi4GNNOUbYmCDiIiIiIiI0h8DG2nKk3OPfkRERERERESUvhjYSGvf4vqAfkhERERERESUhhjYICIiIiIiIqKUxcBGWvOg4amH8GPOjEJERERERERpioGNNOU7/TGar3yLG9nz0VD/a/zT87/G3y/M0a8SERERERERpQcGNtJcgb4nIiIiIiIiSkcMbKSrsgfRMPMeYNiH5pZ/xi9f/0f8t9ND+kUiIiIiIiKi9MDARpoypnv9Fh989Cf8ywADGkRERERERJSeGNhIa5zulYiIiIiIiNIbAxtp7R5M54woRERERERElMYY2CAiIiIiIiKilMXARpryDX2rHxERERERERGlLwY20pSRPJSIiIiIiIgovTGwkY7yZqPuQQY2iIiIiIiIKP0xsJEmfrz81/in5/Wtfinmy4XDV/EpZ0UhIiIiIiKiNMbARlr6FjeunEHzR5/Dp5cQERERERERpaOMB+ZVjZaUeNDTk75N4HTevuH7/1o/is/7Wzaq+//6y7XqnoiIiIiIiCgVsccGEREREREREaUsBjaIiIiIiIiIKGVxKAoRERERERERpaxJ0WODQQ0iIiIiIiKi9MShKERERERERESUshjYICIiIiIiIqKUxcAGEREREREREaUsBjaIiIiIiIiIKGUxsEFEREREREREKQr4/wFCL/7f50bUZgAAAABJRU5ErkJggg==;" vertex="1" parent="1">
          <mxGeometry x="1169.5" y="1060" width="1078" height="239" as="geometry" />
        </mxCell>
      </root>
    </mxGraphModel>
  </diagram>
</mxfile>
